# WaveFront *.obj file (generated by CINEMA 4D)

mtllib ./12_test.mtl

v -12.04903602600098 10.12434101104736 -280.11444091796875
v -12.04903602600098 15.2225284576416 -66.90415191650391
v 1.83164608478546 2.46741223335266 -277.7491455078125
v 6.52067184448242 4.65895557403564 -68.73625946044922
v 1.83164608478546 -12.84732532501221 -273.01910400390625
v 6.52067184448242 -16.46821594238281 -72.40017700195312
v -12.04903602600098 -20.50425338745117 -270.65399169921875
v -12.04903602600098 -27.03133583068848 -74.23237609863281
v -25.92971801757812 -12.84732532501221 -273.01910400390625
v -30.61874389648438 -16.46821594238281 -72.40017700195312
v -25.92971801757812 2.46696043014526 -277.7491455078125
v -30.61874389648438 4.65895557403564 -68.73625946044922
v -12.04903602600098 30.81441879272461 -81.07670593261719
v 17.72744178771973 13.87597370147705 -84.01469421386719
v 17.72744178771973 -20.00139427185059 -89.89028167724609
v -12.04903602600098 -36.9403190612793 -92.827880859375
v -41.82551193237305 -20.00139427185059 -89.89028167724609
v -41.82551193237305 13.87597370147705 -84.01469421386719
v 10.11187553405762 19.64005851745605 -183.07208251953125
v 10.11187553405762 -5.90949630737305 -184.50173950195312
v -12.04903602600098 -18.68404769897461 -185.21650695800781
v -34.20994567871094 -5.90949630737305 -184.50173950195312
v -34.20994567871094 19.64005851745605 -183.07208251953125
v -12.04903602600098 32.41460800170898 -182.3572998046875
v -12.05490112304688 -33.55577087402344 -344.91241455078125
v -7.85525321960449 -35.51367568969727 -343.48782348632812
v -7.84938812255859 -39.55498504638672 -340.81106567382812
v -12.04360008239746 -41.63841247558594 -339.55810546875
v -16.24281883239746 -39.68053436279297 -340.98214721679688
v -16.24868392944336 -35.63919830322266 -343.65948486328125
v -12.04903602600098 0.43703201413155 -61.40536499023438
v -5.28185844421387 -3.41260647773743 -62.07284164428711
v -5.28185844421387 -11.11185836791992 -63.40827178955078
v -12.04903602600098 -14.96149730682373 -64.07574462890625
v -18.81621360778809 -11.11185836791992 -63.40827178955078
v -18.81621360778809 -3.41260647773743 -62.07284164428711
v -12.04903602600098 -7.19811105728149 -32.42758941650391
v -7.50844955444336 -9.78130340576172 -32.87543487548828
v -7.50844955444336 -14.94723510742188 -33.77122116088867
v -12.04903602600098 -17.52994918823242 -34.21954345703125
v -16.58962249755859 -14.94723510742188 -33.77122116088867
v -16.58962249755859 -9.78130340576172 -32.87543487548828
# 42 vertices

vn 0.41463154554367 0.61207222938538 0.67338567972183
vn 0.82924103736877 -0.09550256282091 0.55067104101181
vn 0.41460940241814 -0.8031240105629 0.42789116501808
vn -0.41460940241814 -0.8031240105629 0.42789116501808
vn -0.55838125944138 -0.1417515873909 0.81738418340683
vn -0.82924103736877 -0.09550256282091 0.55067104101181
vn -0.41463154554367 0.61207222938538 0.67338567972183
vn -0.49516448378563 -0.83026379346848 0.25587922334671
vn -0.49719393253326 0.86754250526428 0.01296891830862
vn -0.99695909023285 0.00950020551682 -0.0773454234004
vn -0.49841514229774 -0.85060894489288 -0.1674717515707
vn 0.49841514229774 -0.85060894489288 -0.1674717515707
vn 0.99695909023285 0.00950020551682 -0.0773454234004
vn 0.49719393253326 0.86754250526428 0.01296891830862
vn 0.49038413167 0.84935957193375 -0.1952223777771
vn 0.99600267410278 -0.00721876928583 -0.08903148770332
vn 0.49376076459885 -0.86936271190643 0.02021919004619
vn -0.49376076459885 -0.86936271190643 0.02021919004619
vn -0.99600267410278 -0.00721876928583 -0.08903148770332
vn -0.49038413167 0.84935957193375 -0.1952223777771
vn 0.02528217621148 -0.55198895931244 -0.83346801996231
vn 0.99152493476868 -0.04615740850568 -0.12144054472446
vn -0.99157774448395 -0.04650071635842 -0.12087686359882
vn 0.48728889226913 0.72360509634018 -0.48882016539574
vn 0.49779206514359 -0.82901799678802 0.25481805205345
vn -0.48766323924065 0.72341668605804 -0.48872578144073
vn -0.49860563874245 -0.86364561319351 -0.07422052323818
vn 0.2791899740696 0.33472174406052 0.90000796318054
vn 0.2791942358017 -0.6182336807251 0.73473644256592
vn -0.2791899740696 0.33472174406052 0.90000796318054
vn -0.2791942358017 -0.6182336807251 0.73473644256592
vn 0.55838125944138 -0.1417515873909 0.81738418340683
vn 0 -0.17090727388859 0.985287129879
vn 0.9972328543663 -0.01268767938018 0.07325103878975
vn -0.9972328543663 -0.01268767938018 0.07325103878975
vn 0.49860563874245 -0.86364561319351 -0.07422052323818
vn 0.49861219525337 0.83821851015091 0.22085191309452
vn -0.49861219525337 0.83821851015091 0.22085191309452
# 38 normals

vt 0.97206199169159 0.46347498893738 0
vt 0.97681301832199 0.4615889787674 0
vt 0.97103399038315 0.45813798904419 0
vt 0.97042000293732 0.4631040096283 0
vt 0.97238999605179 0.46510803699493 0
vt 0.97680598497391 0.46815204620361 0
vt 0.97103399038315 0.46641004085541 0
vt 0.97121202945709 0.47185504436493 0
vt 0.96926802396774 0.46590805053711 0
vt 0.96500498056412 0.46901798248291 0
vt 0.983677983284 0.46602201461792 0
vt 0.97712802886963 0.45532405376434 0
vt 0.96449202299118 0.46201598644257 0
vt 0.9689689874649 0.46418499946594 0
vt 0.96972501277924 0.46287107467651 0
vt 0.96963500976562 0.46288108825684 0
vt 0.96987402439117 0.46307802200317 0
vt 0.96973198652267 0.46303606033325 0
vt 0.97034001350403 0.46441507339478 0
vt 0.97052401304245 0.46430206298828 0
vt 0.97055900096893 0.46392202377319 0
vt 0.97016799449921 0.46357798576355 0
vt 0.97013998031616 0.46377503871918 0
vt 0.97014701366425 0.46402108669281 0
vt 0.96989399194717 0.46334707736969 0
vt 0.97012799978256 0.46331906318665 0
vt 0.96983599662781 0.46326303482056 0
vt 0.97004199028015 0.46307706832886 0
vt 0.96980500221252 0.4628289937973 0
vt 0.96953302621841 0.46270108222961 0
vt 0.96973997354507 0.46263599395752 0
vt 0.96938198804855 0.46216201782227 0
vt 0.96721798181534 0.9682480096817 0
vt 0.96712100505829 0.96807599067688 0
vt 0.96277797222137 0.96021002531052 0
vt 0.95826101303101 0.96810400485992 0
vt 0.96480202674866 0.47646701335907 0
vt 0.97792702913284 0.47810399532318 0
vt 0.96525001525879 0.45532405376434 0
vt 0.9592159986496 0.46543598175049 0
vt 0.96741598844528 0.9682559967041 0
vt 0.96723699569702 0.96790498495102 0
vt 0.96744298934937 0.9679120182991 0
vt 0.97638201713562 0.96806699037552 0
vt 0.97186201810837 0.96023297309875 0
vt 0.9628090262413 0.97591698169708 0
vt 0.9675350189209 0.96809899806976 0
vt 0.97184997797012 0.97591698169708 0
# 48 texture coordinates

o ChiliPepper_Cylinder.010
usemtl VegetationMaterials
f 13/4/1 2/3/1 4/2/1 14/1/1
f 14/1/2 4/2/2 6/6/2 15/5/2
f 15/5/3 6/6/3 8/8/3 16/7/3
f 16/7/4 8/8/4 10/10/4 17/9/4
f 12/13/5 10/10/5 35/12/5 36/11/5
f 17/9/6 10/10/6 12/13/6 18/14/6
f 18/14/7 12/13/7 2/3/7 13/4/7
f 7/18/8 9/17/8 29/16/8 28/15/8
f 23/20/9 18/14/9 13/4/9 24/19/9
f 22/21/10 17/9/10 18/14/10 23/20/10
f 21/22/11 16/7/11 17/9/11 22/21/11
f 20/23/12 15/5/12 16/7/12 21/22/12
f 19/24/13 14/1/13 15/5/13 20/23/13
f 24/19/14 13/4/14 14/1/14 19/24/14
f 1/26/15 24/19/15 19/24/15 3/25/15
f 3/25/16 19/24/16 20/23/16 5/27/16
f 5/27/17 20/23/17 21/22/17 7/18/17
f 7/18/18 21/22/18 22/21/18 9/17/18
f 9/17/19 22/21/19 23/20/19 11/28/19
f 11/28/20 23/20/20 24/19/20 1/26/20
f 30/30/21 27/29/21 28/15/21 29/16/21
f 3/25/22 5/27/22 27/29/22 26/31/22
f 9/17/23 11/28/23 30/30/23 29/16/23
f 1/26/24 3/25/24 26/31/24 25/32/24
f 5/27/25 7/18/25 28/15/25 27/29/25
f 11/28/26 1/26/26 25/32/26 30/30/26
f 25/32/21 26/31/21 27/29/21 30/30/21
f 35/36/27 34/35/27 40/34/27 41/33/27
f 4/2/28 2/3/28 31/38/28 32/37/28
f 8/8/29 6/6/29 33/40/29 34/39/29
f 2/3/30 12/13/30 36/11/30 31/38/30
f 10/10/31 8/8/31 34/39/31 35/12/31
f 6/6/32 4/2/32 32/37/32 33/40/32
f 39/42/33 42/41/33 41/33/33 40/34/33
f 33/45/34 32/44/34 38/43/34 39/42/34
f 36/46/35 35/36/35 41/33/35 42/41/35
f 34/35/36 33/45/36 39/42/36 40/34/36
f 32/44/37 31/48/37 37/47/37 38/43/37
f 31/48/38 36/46/38 42/41/38 37/47/38
f 38/43/33 37/47/33 42/41/33 39/42/33

