# WaveFront *.obj file (generated by CINEMA 4D)

mtllib ./20_test.mtl

v 0.74901902675629 3.83637547492981 9.58454895019531
v 3.83079934120178 7.5090765953064 2.78171586990356
v 3.83079934120178 7.5090765953064 -4.30254888534546
v 2.36757731437683 5.76524448394775 -10.03387355804443
v 1.14756917953491 3.14603209495544 9.58454895019531
v 5.86914205551147 3.97858214378357 2.78171586990356
v 5.86914205551147 3.97858214378357 -4.30254888534546
v 3.62733626365662 3.58329176902771 -10.03387355804443
v 1.0091655254364 2.36106514930725 9.58454895019531
v 5.16123199462891 -0.03612171858549 2.78171586990356
v 5.16123199462891 -0.03612171858549 -4.30254888534546
v 3.18980526924133 1.10207569599152 -10.03387355804443
v 0.39855018258095 1.84869515895844 9.58454895019531
v 2.03834223747253 -2.65655636787415 2.78171586990356
v 2.03834223747253 -2.65655636787415 -4.30254888534546
v 1.25975906848907 -0.51743340492249 -10.03387355804443
v 0 2.94370079040527 -11.5455379486084
v -0.39855018258095 1.84869515895844 9.58454895019531
v -2.03834223747253 -2.65655636787415 2.78171586990356
v -2.03834223747253 -2.65655636787415 -4.30254888534546
v -1.25975906848907 -0.51743340492249 -10.03387355804443
v 0.32362112402916 3.29430556297302 10.33741569519043
v -1.0091655254364 2.36106514930725 9.58454895019531
v -5.16123199462891 -0.03612171858549 2.78171586990356
v -5.16123199462891 -0.03612171858549 -4.30254888534546
v -3.18980526924133 1.10207569599152 -10.03387355804443
v -1.14756917953491 3.14603209495544 9.58454895019531
v -5.86914205551147 3.97858214378357 2.78171586990356
v -5.86914205551147 3.97858214378357 -4.30254888534546
v -3.62733626365662 3.58329176902771 -10.03387355804443
v -0.74901902675629 3.83637547492981 9.58454895019531
v -3.83079934120178 7.5090765953064 2.78171586990356
v -3.83079934120178 7.5090765953064 -4.30254888534546
v -2.36757731437683 5.76524448394775 -10.03387355804443
v 0 4.10897207260132 9.58454895019531
v 0 8.90339088439941 2.78171586990356
v 0 8.90339088439941 -4.30254888534546
v 0 6.6269965171814 -10.03387355804443
v 2.30016374588013 5.62810850143433 8.47034549713135
v 3.52510690689087 3.50641584396362 8.47034549713135
v 3.09970903396606 1.09374523162842 8.47034549713135
v 1.22295105457306 -0.48103284835815 8.47034549713135
v -1.22698044776917 -0.48103284835815 8.47034549713135
v -3.10369324684143 1.09374523162842 8.47034549713135
v -3.52913641929626 3.50641584396362 8.47034549713135
v -2.30419325828552 5.62810850143433 8.47034549713135
v -0.00199207174592 6.46604585647583 8.47034549713135
v 0.52826118469238 2.93980717658997 10.33741569519043
v 0.4571804702282 2.53668427467346 10.33741569519043
v 0.14361026883125 2.27359509468079 10.33741569519043
v -0.26566994190216 2.27359509468079 10.33741569519043
v -0.57924020290375 2.53668427467346 10.33741569519043
v -0.65032088756561 2.93980717658997 10.33741569519043
v -0.44568079710007 3.29430556297302 10.33741569519043
v -0.06102984026074 3.43429398536682 10.33741569519043
v 0.24004465341568 3.01319694519043 11.09028434753418
v 0.374735891819 2.77989840507507 11.09028434753418
v 0.32796746492386 2.5145902633667 11.09028434753418
v 0.12160693109035 2.34141612052917 11.09028434753418
v -0.14782078564167 2.34141612052917 11.09028434753418
v -0.35418128967285 2.5145902633667 11.09028434753418
v -0.40094971656799 2.77989840507507 11.09028434753418
v -0.266258507967 3.01319694519043 11.09028434753418
v -0.01312956400216 3.10533022880554 11.09028434753418
v 3.2963809967041 6.84377002716064 5.62603044509888
v 5.05089807510376 3.80486416816711 5.62603044509888
v 4.44155073165894 0.34920838475227 5.62603044509888
v 1.75352132320404 -1.90636026859283 5.62603044509888
v -1.75551331043243 -1.90636026859283 5.62603044509888
v -4.44354248046875 0.34920838475227 5.62603044509888
v -5.05289030075073 3.80486416816711 5.62603044509888
v -3.2983729839325 6.84377002716064 5.62603044509888
v -0.00099603587296 8.04390239715576 5.62603044509888
v 3.29588294029236 6.87156867980957 -7.16823053359985
v 5.04953956604004 3.83406639099121 -7.16823053359985
v 4.44050931930542 0.37999492883682 -7.16823053359985
v 1.75370228290558 -1.87453246116638 -7.16823053359985
v -1.75370228290558 -1.87453246116638 -7.16823053359985
v -4.44050931930542 0.37999492883682 -7.16823053359985
v -5.04953956604004 3.83406639099121 -7.16823053359985
v -3.29588294029236 6.87156867980957 -7.16823053359985
v 0 8.07115840911865 -7.16823053359985
v 3.97178387641907 7.67709016799927 -0.7604164481163
v 6.0851001739502 4.01665782928467 -0.7604164481163
v 5.35115766525269 -0.14577621221542 -0.7604164481163
v 2.11331653594971 -2.86264538764954 -0.7604164481163
v -2.11331653594971 -2.86264538764954 -0.7604164481163
v -5.35115766525269 -0.14577621221542 -0.7604164481163
v -6.0851001739502 4.01665782928467 -0.7604164481163
v -3.97178387641907 7.67709016799927 -0.7604164481163
v 0 9.12269973754883 -0.7604164481163
# 91 vertices

vn 0.13687625527382 0.3760971724987 -0.91641461849213
vn 0.34141430258751 0.93811577558517 0.05809511616826
vn 0.78308308124542 -0.13809739053249 0.60639095306396
vn 0.33000674843788 0.90651845932007 -0.26328662037849
vn 0.15368966758251 0.42238095402718 0.89329379796982
vn 0.34659975767136 0.20009723305702 -0.91642224788666
vn 0.86455452442169 0.49916967749596 0.05809531360865
vn 0.66008061170578 0.38107296824455 0.64736151695251
vn 0.83545482158661 0.48238500952721 -0.26328673958778
vn 0.38579177856445 0.22269357740879 0.89530569314957
vn 0.39419680833817 -0.06947039067745 -0.9163966178894
vn 0.98314046859741 -0.17337772250175 0.05809466540813
vn -0.26519206166267 0.72860634326935 0.63151091337204
vn 0.95007127523422 -0.1674702912569 -0.26328366994858
vn 0.43257316946983 -0.07628313452005 0.89836591482162
vn 0.25728940963745 -0.3066034913063 -0.91640406847
vn 0.64167547225952 -0.76477283239365 0.058095484972
vn -0.70647662878036 0.40787953138351 0.57838141918182
vn 0.62010794878006 -0.73901689052582 -0.26328727602959
vn 0.27879086136818 -0.33229273557663 0.9010311961174
vn 0 -0.40019738674164 -0.91642898321152
vn 0 -0.99831104278564 0.05809548124671
vn -0.84340214729309 -0.14869228005409 0.51629781723022
vn 0 -0.96471691131592 -0.26328927278519
vn 0 -0.43141901493073 0.90215164422989
vn -0.25728940963745 -0.3066034913063 -0.91640406847
vn -0.64167547225952 -0.76477283239365 0.058095484972
vn 0.53889209032059 -0.64230161905289 0.54501736164093
vn -0.62010794878006 -0.73901689052582 -0.26328727602959
vn -0.27859979867935 -0.33197596669197 0.90120702981949
vn -0.39419680833817 -0.06947039067745 -0.9163966178894
vn -0.98314046859741 -0.17337772250175 0.05809466540813
vn 0 -0.87089031934738 0.49147740006447
vn -0.95007127523422 -0.1674702912569 -0.26328366994858
vn -0.4319720864296 -0.07618808746338 0.89866316318512
vn -0.34659975767136 0.20009723305702 -0.91642224788666
vn -0.86455452442169 0.49916967749596 0.05809531360865
vn -0.56419640779495 -0.67241680622101 0.47910130023956
vn -0.83545482158661 0.48238500952721 -0.26328673958778
vn -0.38528776168823 0.22247250378132 0.89557766914368
vn -0.13687625527382 0.3760971724987 -0.91641461849213
vn -0.34141430258751 0.93811577558517 0.05809511616826
vn 0.25809967517853 0.70898503065109 0.65629625320435
vn -0.33000674843788 0.90651845932007 -0.26328662037849
vn -0.15368896722794 0.42219153046608 0.89338344335556
vn -0.30328816175461 0.83330023288727 0.46219801902771
vn -0.76948869228363 0.44429275393486 0.45879313349724
vn -0.87751519680023 -0.15469017624855 0.45391410589218
vn -0.57416772842407 -0.68426370620728 0.4495715200901
vn 0 -0.89402681589127 0.44801345467567
vn 0.57410657405853 -0.68410903215408 0.4498850107193
vn 0.8772708773613 -0.15469117462635 0.45438578724861
vn 0.76929968595505 0.44410437345505 0.45929220318794
vn 0.30328643321991 0.83323299884796 0.46232038736343
vn 0.8333528637886 0.48113027215004 0.2720967233181
vn -0.94602531194687 -0.1667857170105 0.27788245677948
vn 0.31879243254662 0.87581193447113 0.36238768696785
vn 0 -0.9959699511528 0.08968760073185
vn -0.80604374408722 0.46528849005699 0.36578693985939
vn 0.9718309044838 -0.17137825489044 0.16178432106972
vn 0.64030414819717 -0.76312106847763 0.08750312775373
vn -0.63367110490799 -0.75529897212982 0.16728517413139
vn -0.3139129281044 0.86254960298538 0.39682093262672
vn 0 0 1
vn 0.3290049135685 0.90391975641251 0.27328532934189
vn 0.83404678106308 0.48150897026062 0.26928624510765
vn 0.95011621713638 -0.1675039678812 0.26309996843338
vn 0.62113177776337 -0.74022686481476 0.25740909576416
vn 0 -0.96694082021713 0.2550008893013
vn -0.62120640277863 -0.74030375480652 0.25700780749321
vn -0.95027256011963 -0.16759771108627 0.26247498393059
vn -0.83417195081711 0.48157152533531 0.26878628134727
vn -0.32900229096413 0.90400630235672 0.27300190925598
vn -0.30909764766693 0.84929192066193 -0.42797413468361
vn -0.78270787000656 0.45188677310944 -0.42797988653183
vn -0.8900493979454 -0.15690945088863 -0.4280087351799
vn -0.580925822258 -0.69233578443527 -0.42801442742348
vn 0 -0.90379130840302 -0.42797350883484
vn 0.580925822258 -0.69233578443527 -0.42801442742348
vn 0.8900493979454 -0.15690945088863 -0.4280087351799
vn 0.78270787000656 0.45188677310944 -0.42797988653183
vn 0.30909764766693 0.84929192066193 -0.42797413468361
vn -0.34141430258751 0.93811577558517 -0.05809511616826
vn -0.86455452442169 0.49916967749596 -0.05809531360865
vn -0.98314046859741 -0.17337772250175 -0.05809466540813
vn -0.64167547225952 -0.76477283239365 -0.058095484972
vn 0 -0.99831104278564 -0.05809548124671
vn 0.64167547225952 -0.76477283239365 -0.058095484972
vn 0.98314046859741 -0.17337772250175 -0.05809466540813
vn 0.86455452442169 0.49916967749596 -0.05809531360865
vn 0.34141430258751 0.93811577558517 -0.05809511616826
vn -0.2785025537014 -0.33200305700302 0.90122711658478
# 92 normals

vt 0.67028200626373 0.72059804201126 0
vt 0.67034500837326 0.72064799070358 0
vt 0.67545199394226 0.72006303071976 0
vt 0.66431498527527 0.72116702795029 0
vt 0.66203898191452 0.72135502099991 0
vt 0.66447597742081 0.72150903940201 0
vt 0.65091401338577 0.96921497583389 0
vt 0.65100198984146 0.96936500072479 0
vt 0.65127301216125 0.96890699863434 0
vt 0.66816401481628 0.72091698646545 0
vt 0.66812598705292 0.7208040356636 0
vt 0.66643297672272 0.72117000818253 0
vt 0.65530198812485 0.72100299596786 0
vt 0.64388900995255 0.72335302829742 0
vt 0.65699797868729 0.7243959903717 0
vt 0.67023897171021 0.72054803371429 0
vt 0.66449797153473 0.72082901000977 0
vt 0.66240602731705 0.72074103355408 0
vt 0.65097099542618 0.96954101324081 0
vt 0.65149301290512 0.96934598684311 0
vt 0.66822201013565 0.72069400548935 0
vt 0.66635400056839 0.72097903490067 0
vt 0.65727400779724 0.71951198577881 0
vt 0.65153700113297 0.71866101026535 0
vt 0.67036497592926 0.72050601243973 0
vt 0.66490399837494 0.72066903114319 0
vt 0.65102601051331 0.97009497880936 0
vt 0.65082997083664 0.96964597702026 0
vt 0.65056198835373 0.97009497880936 0
vt 0.66828197240829 0.72064703702927 0
vt 0.66646498441696 0.72078800201416 0
vt 0.65969198942184 0.71926003694534 0
vt 0.65688800811768 0.71747201681137 0
vt 0.670490026474 0.72050303220749 0
vt 0.66528397798538 0.72073799371719 0
vt 0.66311299800873 0.72048801183701 0
vt 0.65066397190094 0.96963602304459 0
vt 0.65019500255585 0.96980398893356 0
vt 0.66847199201584 0.7206580042839 0
vt 0.66688001155853 0.72073400020599 0
vt 0.66149097681046 0.71987903118134 0
vt 0.66050201654434 0.71837902069092 0
vt 0.67060601711273 0.72054702043533 0
vt 0.66554600000381 0.72098100185394 0
vt 0.66379898786545 0.72062402963638 0
vt 0.65054100751877 0.96952700614929 0
vt 0.65008997917175 0.96933400630951 0
vt 0.6684849858284 0.72075003385544 0
vt 0.66216999292374 0.72099101543427 0
vt 0.66248202323914 0.72056502103806 0
vt 0.67052400112152 0.72061902284622 0
vt 0.66554898023605 0.72129601240158 0
vt 0.6642450094223 0.72104203701019 0
vt 0.65075099468231 0.96915900707245 0
vt 0.65080600976944 0.96871501207352 0
vt 0.66853702068329 0.72085201740265 0
vt 0.66702997684479 0.72087502479553 0
vt 0.66247898340225 0.72214502096176 0
vt 0.67041397094727 0.72065901756287 0
vt 0.66530299186707 0.72155803442001 0
vt 0.66421902179718 0.72157698869705 0
vt 0.65060198307037 0.96922701597214 0
vt 0.6503250002861 0.96889299154282 0
vt 0.66848999261856 0.7209410071373 0
vt 0.66704899072647 0.72105604410172 0
vt 0.66159498691559 0.72342699766159 0
vt 0.66248202323914 0.72318601608276 0
vt 0.67046397924423 0.7206619977951 0
vt 0.66488701105118 0.72165501117706 0
vt 0.66380602121353 0.72202503681183 0
vt 0.65051597356796 0.96936398744583 0
vt 0.6682500243187 0.72098100185394 0
vt 0.66691398620605 0.72120499610901 0
vt 0.65965700149536 0.72433298826218 0
vt 0.66066497564316 0.72548699378967 0
vt 0.66234797239304 0.7219859957695 0
vt 0.65138798952103 0.96980601549149 0
vt 0.66664898395538 0.72126001119614 0
vt 0.65693098306656 0.72688102722168 0
vt 0.66023999452591 0.72265404462814 0
vt 0.66151398420334 0.72294700145721 0
vt 0.66263198852539 0.72257000207901 0
vt 0.66323000192642 0.72184902429581 0
vt 0.66320902109146 0.72104704380035 0
vt 0.66259300708771 0.72038799524307 0
vt 0.6615189909935 0.72011798620224 0
vt 0.66029900312424 0.72044503688812 0
vt 0.65956199169159 0.72145700454712 0
vt 0.65080398321152 0.96937400102615 0
vt 0.65080100297928 0.9694100022316 0
vt 0.65070599317551 0.96941202878952 0
vt 0.65077298879623 0.96943700313568 0
vt 0.65072399377823 0.96935099363327 0
vt 0.65073299407959 0.9694390296936 0
vt 0.65078401565552 0.96934801340103 0
vt 0.65075498819351 0.96934300661087 0
vt 0.65070402622223 0.96937698125839 0
vt 0.66309100389481 0.72221302986145 0
vt 0.66668802499771 0.72069603204727 0
vt 0.6509770154953 0.72648900747299 0
# 100 texture coordinates

o Melon_Sphere.008
usemtl VegetationMaterials
f 17/3/1 38/2/1 4/1/1
f 91/6/2 2/5/2 83/4/2
f 9/9/3 48/8/3 49/7/3
f 37/12/4 74/11/4 82/10/4
f 47/15/5 1/14/5 39/13/5
f 17/3/6 4/1/6 8/16/6
f 83/4/7 6/18/7 84/17/7
f 5/20/8 22/19/8 48/8/8
f 3/22/9 75/21/9 74/11/9
f 39/13/10 5/24/10 40/23/10
f 17/3/11 8/16/11 12/25/11
f 6/18/12 85/26/12 84/17/12
f 31/29/13 55/28/13 35/27/13
f 7/31/14 76/30/14 75/21/14
f 40/23/15 9/33/15 41/32/15
f 17/3/16 12/25/16 16/34/16
f 10/36/17 86/35/17 85/26/17
f 27/38/18 54/37/18 31/29/18
f 76/30/19 15/40/19 77/39/19
f 41/32/20 13/42/20 42/41/20
f 17/3/21 16/34/21 21/43/21
f 14/45/22 87/44/22 86/35/22
f 23/47/23 53/46/23 27/38/23
f 15/40/24 78/48/24 77/39/24
f 42/41/25 18/50/25 43/49/25
f 17/3/26 21/43/26 26/51/26
f 19/53/27 88/52/27 87/44/27
f 13/55/28 49/7/28 50/54/28
f 20/57/29 79/56/29 78/48/29
f 18/50/30 44/58/30 43/49/30
f 17/3/31 26/51/31 30/59/31
f 24/61/32 89/60/32 88/52/32
f 18/63/33 50/54/33 51/62/33
f 25/65/34 80/64/34 79/56/34
f 23/67/35 45/66/35 44/58/35
f 17/3/36 30/59/36 34/68/36
f 28/70/37 90/69/37 89/60/37
f 18/63/38 52/71/38 23/47/38
f 29/73/39 81/72/39 80/64/39
f 27/75/40 46/74/40 45/66/40
f 17/3/41 34/68/41 38/2/41
f 90/69/42 36/76/42 91/6/42
f 35/27/43 22/19/43 1/77/43
f 33/78/44 82/10/44 81/72/44
f 31/79/45 47/15/45 46/74/45
f 72/81/46 47/15/46 73/80/46
f 71/82/47 46/74/47 72/81/47
f 70/83/48 45/66/48 71/82/48
f 69/84/49 44/58/49 70/83/49
f 42/41/50 69/84/50 68/85/50
f 41/32/51 68/85/51 67/86/51
f 40/23/52 67/86/52 66/87/52
f 39/13/53 66/87/53 65/88/53
f 47/15/54 65/88/54 73/80/54
f 48/8/55 56/90/55 57/89/55
f 52/71/56 62/91/56 53/46/56
f 22/19/57 64/92/57 56/90/57
f 50/54/58 60/93/58 51/62/58
f 53/46/59 63/94/59 54/37/59
f 49/7/60 57/89/60 58/95/60
f 50/54/61 58/95/61 59/96/61
f 51/62/62 61/97/62 52/71/62
f 55/28/63 63/94/63 64/92/63
f 63/94/64 62/91/64 61/97/64
f 57/89/64 59/96/64 58/95/64
f 64/92/64 59/96/64 56/90/64
f 64/92/64 61/97/64 60/93/64
f 73/80/65 2/5/65 36/76/65
f 65/88/66 6/18/66 2/5/66
f 66/87/67 10/36/67 6/18/67
f 67/86/68 14/45/68 10/36/68
f 68/85/69 19/53/69 14/45/69
f 19/53/70 70/83/70 24/61/70
f 24/61/71 71/82/71 28/70/71
f 28/70/72 72/81/72 32/98/72
f 32/98/73 73/80/73 36/76/73
f 81/72/74 38/2/74 34/68/74
f 30/59/75 81/72/75 34/68/75
f 79/56/76 30/59/76 26/51/76
f 78/48/77 26/51/77 21/43/77
f 16/34/78 78/48/78 21/43/78
f 12/25/79 77/39/79 16/34/79
f 8/16/80 76/30/80 12/25/80
f 74/11/81 8/16/81 4/1/81
f 82/10/82 4/1/82 38/2/82
f 90/69/83 37/12/83 33/78/83
f 89/60/84 33/78/84 29/73/84
f 88/52/85 29/73/85 25/65/85
f 87/44/86 25/65/86 20/57/86
f 86/35/87 20/57/87 15/40/87
f 11/99/88 86/35/88 15/40/88
f 84/17/89 11/99/89 7/31/89
f 83/4/90 7/31/90 3/22/90
f 91/6/91 3/22/91 37/12/91
f 91/6/2 36/76/2 2/5/2
f 9/9/3 5/20/3 48/8/3
f 37/12/4 3/22/4 74/11/4
f 47/15/5 35/100/5 1/14/5
f 83/4/7 2/5/7 6/18/7
f 5/20/8 1/77/8 22/19/8
f 3/22/9 7/31/9 75/21/9
f 39/13/10 1/14/10 5/24/10
f 6/18/12 10/36/12 85/26/12
f 31/29/13 54/37/13 55/28/13
f 7/31/14 11/99/14 76/30/14
f 40/23/15 5/24/15 9/33/15
f 10/36/17 14/45/17 86/35/17
f 27/38/18 53/46/18 54/37/18
f 76/30/19 11/99/19 15/40/19
f 41/32/20 9/33/20 13/42/20
f 14/45/22 19/53/22 87/44/22
f 23/47/23 52/71/23 53/46/23
f 15/40/24 20/57/24 78/48/24
f 42/41/25 13/42/25 18/50/25
f 19/53/27 24/61/27 88/52/27
f 13/55/28 9/9/28 49/7/28
f 20/57/29 25/65/29 79/56/29
f 18/50/92 23/67/92 44/58/92
f 24/61/32 28/70/32 89/60/32
f 18/63/33 13/55/33 50/54/33
f 25/65/34 29/73/34 80/64/34
f 23/67/35 27/75/35 45/66/35
f 28/70/37 32/98/37 90/69/37
f 18/63/38 51/62/38 52/71/38
f 29/73/39 33/78/39 81/72/39
f 27/75/40 31/79/40 46/74/40
f 90/69/42 32/98/42 36/76/42
f 35/27/43 55/28/43 22/19/43
f 33/78/44 37/12/44 82/10/44
f 31/79/45 35/100/45 47/15/45
f 72/81/46 46/74/46 47/15/46
f 71/82/47 45/66/47 46/74/47
f 70/83/48 44/58/48 45/66/48
f 69/84/49 43/49/49 44/58/49
f 42/41/50 43/49/50 69/84/50
f 41/32/51 42/41/51 68/85/51
f 40/23/52 41/32/52 67/86/52
f 39/13/53 40/23/53 66/87/53
f 47/15/54 39/13/54 65/88/54
f 48/8/55 22/19/55 56/90/55
f 52/71/56 61/97/56 62/91/56
f 22/19/57 55/28/57 64/92/57
f 50/54/58 59/96/58 60/93/58
f 53/46/59 62/91/59 63/94/59
f 49/7/60 48/8/60 57/89/60
f 50/54/61 49/7/61 58/95/61
f 51/62/62 60/93/62 61/97/62
f 55/28/63 54/37/63 63/94/63
f 57/89/64 56/90/64 59/96/64
f 64/92/64 60/93/64 59/96/64
f 64/92/64 63/94/64 61/97/64
f 73/80/65 65/88/65 2/5/65
f 65/88/66 66/87/66 6/18/66
f 66/87/67 67/86/67 10/36/67
f 67/86/68 68/85/68 14/45/68
f 68/85/69 69/84/69 19/53/69
f 19/53/70 69/84/70 70/83/70
f 24/61/71 70/83/71 71/82/71
f 28/70/72 71/82/72 72/81/72
f 32/98/73 72/81/73 73/80/73
f 81/72/74 82/10/74 38/2/74
f 30/59/75 80/64/75 81/72/75
f 79/56/76 80/64/76 30/59/76
f 78/48/77 79/56/77 26/51/77
f 16/34/78 77/39/78 78/48/78
f 12/25/79 76/30/79 77/39/79
f 8/16/80 75/21/80 76/30/80
f 74/11/81 75/21/81 8/16/81
f 82/10/82 74/11/82 4/1/82
f 90/69/83 91/6/83 37/12/83
f 89/60/84 90/69/84 33/78/84
f 88/52/85 89/60/85 29/73/85
f 87/44/86 88/52/86 25/65/86
f 86/35/87 87/44/87 20/57/87
f 11/99/88 85/26/88 86/35/88
f 84/17/89 85/26/89 11/99/89
f 83/4/90 84/17/90 7/31/90
f 91/6/91 83/4/91 3/22/91

