# WaveFront *.obj file (generated by CINEMA 4D)

mtllib ./cube_test.mtl

v -100 -100 100
v -100 28.0658016204834 100
v 100 -100 100
v 100 100 100
v 100 -100 -100
v 15.85242557525635 46.29333877563477 -100
v -100 -100 -100
v -100 100 -100
v -72.42684936523438 100 72.42684936523438
v 72.42684936523438 116.87413024902344 72.42684936523438
v -11.72072792053223 27.14448165893555 -72.42684936523438
v -72.42684936523438 100 -72.42684936523438
# 12 vertices

vn 0 0 1
vn -0.07885700464249 0.28691673278809 0.95470434427261
vn 0.94292360544205 0.26285871863365 -0.20445130765438
vn 0 0 -1
vn -1 0 0
vn 0.38761079311371 0.87846422195435 -0.27938956022263
vn 0.49264904856682 0.87004011869431 -0.01808747835457
vn 0.39202946424484 0.90237057209015 -0.17899787425995
vn 0.27554753422737 0.88363927602768 -0.37849071621895
vn 0 -1 0
vn -0.15057024359703 0.5478413105011 0.82292068004608
vn 0.1573104262352 0.86901545524597 -0.4691114127636
vn 0.55857944488525 0.79254978895187 0.24465043842793
vn -0.53995168209076 0.83725547790527 0.08634485304356
# 14 normals

vt 0 0 0
vt 0 1 0
vt 1 1 0
vt 1 0 0
# 4 texture coordinates

o 立方体
usemtl 材质
f 3/4/1 4/3/2 2/2/2 1/1/1
f 5/4/3 6/3/3 4/2/3 3/1/3
f 7/4/4 8/3/4 6/2/4 5/1/4
f 1/4/5 2/3/5 8/2/5 7/1/5
f 10/4/9 11/3/8 12/2/7 9/1/6
f 5/4/10 3/3/10 1/2/10 7/1/10
f 4/4/2 10/4/11 9/1/11 2/1/2
f 6/3/12 11/3/8 10/4/9 4/4/12
f 8/2/13 12/2/7 11/3/8 6/3/13
f 2/1/14 9/1/14 12/2/14 8/2/14

