# WaveFront *.obj file (generated by CINEMA 4D)

mtllib ./player_simple.mtl

v -0.14498372375965 0.65680468082428 4.12276792526245
v -0.22939118742943 1.14971339702606 4.53454065322876
v 0.30569812655449 0.65680468082428 4.12276792526245
v 0.39010560512543 1.14971339702606 4.53454065322876
v 0.78915619850159 0.08875570446253 -1.28639423847198
v 1.11244821548462 1.00108277797699 -1.31487357616425
v -0.62844175100327 0.08875570446253 -1.28639423847198
v -0.95173382759094 1.00108277797699 -1.31487357616425
v 1.11244821548462 1.00734722614288 1.8892297744751
v -0.95173382759094 1.00734722614288 1.8892297744751
v -0.62844175100327 0.11415637284517 1.90300738811493
v 0.78915619850159 0.11415637284517 1.90300738811493
v 1.05635094642639 0.98315393924713 3.28374695777893
v 0.65194952487946 0.2244166135788 2.86543345451355
v -0.49123513698578 0.2244166135788 2.86543345451355
v -0.89563655853271 0.98315393924713 3.28374695777893
v 0.56705790758133 1.00206577777863 -0.41301134228706
v -0.400664716959 1.00206577777863 -0.41301134228706
v 0.56705790758133 1.00636458396912 0.59469592571259
v -0.400664716959 1.00636458396912 0.59469592571259
v 0.56705790758133 1.89582240581512 -0.41301134228706
v -0.400664716959 1.89582240581512 -0.41301134228706
v 0.56705790758133 1.90012109279633 0.59469592571259
v -0.400664716959 1.90012109279633 0.59469592571259
v 0.56705802679062 1.00271785259247 -0.10933031141758
v 0.56705802679062 1.00403535366058 0.19404119253159
v 0.56705802679062 1.27662706375122 -0.10933031141758
v 0.56705802679062 1.27794456481934 0.19404119253159
v 1.06231379508972 1.00271785259247 0.05090487375855
v 1.06231379508972 1.00403535366058 0.35427635908127
v 1.06231379508972 1.27662706375122 0.05090487375855
v 1.06231379508972 1.27794456481934 0.35427635908127
v -0.40066483616829 1.02697885036469 -0.12642557919025
v -0.25566545128822 1.02834808826447 0.21906316280365
v -0.40066483616829 1.31166648864746 -0.12642557919025
v -0.40066483616829 1.31303572654724 0.21906316280365
v -0.87094193696976 1.02697885036469 0.00102597265504
v -0.87094193696976 1.02834808826447 0.34651470184326
v -0.87094193696976 1.31166648864746 0.00102597253863
v -0.87094193696976 1.31303572654724 0.34651470184326
# 40 vertices

vn 0 -0.82361894845963 0.56714355945587
vn 0 -0.64111697673798 0.76744318008423
vn 0.918685734272 -0.39124584197998 0.05425177514553
vn 0.94144940376282 -0.33715015649796 0.00168161746114
vn 0 -0.03120095096529 -0.99951314926147
vn -0.94144934415817 -0.3371502161026 0.00168161978945
vn -0.92598259449005 -0.3741689324379 0.0505352653563
vn 0 0.99999088048935 -0.00426577078179
vn 0 -0.99996829032898 0.00796383433044
vn 0 -0.99813914299011 0.06097789853811
vn 0 0.99834626913071 -0.05748682096601
vn 0 0.99124997854233 -0.13199783861637
vn -0.82909440994263 -0.49020683765411 0.26888599991798
vn -0.71711450815201 -0.55046552419662 0.42747446894646
vn 0 -0.97531670331955 0.22081071138382
vn 0.82919234037399 -0.4936386346817 0.26222315430641
vn 0.74283272027969 -0.52928310632706 0.40994986891747
vn 0.00039799785009 0.99998980760574 0.00449241418391
vn 0.00114887056407 0.99998927116394 0.00449242955074
vn 0.00059697229881 0.99999797344208 -0.00193478842266
vn 0.00172323547304 0.99999666213989 -0.00193477573339
vn 0.00172323512379 0.99999630451202 -0.00210022367537
vn 0.00059697218239 0.99999761581421 -0.00210023624822
vn 0 0 1
vn 1 0 0
vn 0 0 -1
vn -1 0 0
vn -1 -0.00019379402511 0.00000083449379
vn 1 0 -0.00000039254769
vn 1 0.00000009606048 -0.00000019668732
vn 1 0.00000009606048 0.00000014835463
vn 1 0 0.00000029753622
vn -0.00140507658944 -0.99998956918716 0.00434281909838
vn 0.30782961845398 0 -0.95144152641296
vn 0.00140507658944 0.99998956918716 -0.00434281909838
vn -0.30782961845398 0 0.95144152641296
vn -0.99362540245056 0.01324062887579 0.11195209622383
vn -0.99468368291855 -0.10077727586031 0.02117451094091
vn -0.98944664001465 -0.11224179714918 -0.09163550287485
vn -1 0.00000010180344 -0.00000020840076
vn 0.0009146790253 -0.99999237060547 0.00380466668867
vn 0.23167559504509 0.06620608270168 0.97053754329681
vn -0.00107410573401 0.99999159574509 -0.00396328931674
vn -0.26157766580582 -0.00000000050025 -0.96518242359161
# 44 normals

vt 0 0 0
vt 0 1 0
vt 1 1 0
vt 1 0 0
vt 0.29317212104797 1 0
vt 0.29317212104797 0 0
vt 0.70682787895203 1 0
vt 0.70682787895203 0 0
vt 0 0.29317212104797 0
vt 1 0.29317212104797 0
vt 0 0.70682787895203 0
vt 1 0.70682787895203 0
vt 1 0.13859748840332 0
vt 0 0.13859748840332 0
vt 0.86140257120132 1 0
vt 0.86140257120132 0 0
vt 0 0.86140257120132 0
vt 1 0.86140257120132 0
vt 0.13859744369984 0 0
vt 0.13859744369984 1 0
# 20 texture coordinates

o 立方体
usemtl m
f 3/4/1 4/3/2 2/2/2 1/1/1
f 12/6/3 5/4/4 6/3/4 9/5/3
f 7/4/5 8/3/5 6/2/5 5/1/5
f 11/8/7 10/7/7 8/2/6 7/1/6
f 23/10/8 21/3/8 22/2/8 24/9/8
f 5/4/9 12/12/10 11/11/10 7/1/9
f 16/14/11 2/1/12 4/4/12 13/13/11
f 15/16/13 1/4/14 2/3/14 16/15/13
f 14/18/15 3/3/1 1/2/1 15/17/15
f 13/20/16 4/2/17 3/1/17 14/19/16
f 14/19/16 12/6/3 9/5/3 13/20/16
f 15/17/15 11/11/10 12/12/10 14/18/15
f 16/15/13 10/7/7 11/8/7 15/16/13
f 13/13/11 9/10/19 10/9/18 16/14/11
f 9/10/19 19/10/21 20/9/20 10/9/18
f 6/3/22 17/3/22 19/10/21 9/10/19
f 8/2/23 18/2/23 17/3/22 6/3/22
f 10/9/18 20/9/20 18/2/23 8/2/23
f 19/10/24 23/10/24 24/9/24 20/9/24
f 29/3/25 31/3/25 32/10/25 30/10/25
f 18/2/26 22/2/26 21/3/26 17/3/26
f 38/9/27 40/9/27 39/2/27 37/2/27
f 17/3/28 25/3/28 26/10/28 19/10/28
f 21/3/30 27/3/30 25/3/29 17/3/29
f 23/10/31 28/10/31 27/3/30 21/3/30
f 19/10/32 26/10/32 28/10/31 23/10/31
f 25/3/33 29/3/33 30/10/33 26/10/33
f 27/3/34 31/3/34 29/3/34 25/3/34
f 28/10/35 32/10/35 31/3/35 27/3/35
f 26/10/36 30/10/36 32/10/36 28/10/36
f 20/9/38 34/9/38 33/2/37 18/2/37
f 24/9/39 36/9/39 34/9/38 20/9/38
f 22/2/40 35/2/40 36/9/39 24/9/39
f 18/2/37 33/2/37 35/2/40 22/2/40
f 34/9/41 38/9/41 37/2/41 33/2/41
f 36/9/42 40/9/42 38/9/42 34/9/42
f 35/2/43 39/2/43 40/9/43 36/9/43
f 33/2/44 37/2/44 39/2/44 35/2/44

