# WaveFront *.obj file (generated by CINEMA 4D)

mtllib ./1.mtl

v 10 0.82998496294022 -11.72031688690186
v 10.75180816650391 3.2119505405426 -10.75180816650391
v 11.21644973754883 2.14670825004578 -11.21644973754883
v 11.21644973754883 0.82998496294022 -11.21644973754883
v 10.75180816650391 -0.23525735735893 -10.75180816650391
v 11.06321430206299 3.2119505405426 -10
v 11.72031688690186 2.14670825004578 -10
v 11.72031688690186 0.82998496294022 -10
v 11.06321430206299 -0.23525735735893 -10
v 10.75180816650391 3.2119505405426 -9.24819183349609
v 11.21644973754883 2.14670825004578 -8.78355026245117
v 11.21644973754883 0.82998496294022 -8.78355026245117
v 10.75180816650391 -0.23525735735893 -9.24819183349609
v 10 3.2119505405426 -8.93678569793701
v 10 2.14670825004578 -8.27968311309814
v 10 0.82998496294022 -8.27968311309814
v 10 -0.23525735735893 -8.93678569793701
v 10.08873748779297 3.58131694793701 -10.08873748779297
v 9.24819183349609 3.2119505405426 -9.24819183349609
v 8.78355026245117 2.14670825004578 -8.78355026245117
v 8.78355026245117 0.82998496294022 -8.78355026245117
v 9.24819183349609 -0.23525735735893 -9.24819183349609
v 8.93678569793701 3.2119505405426 -10
v 8.27968311309814 2.14670825004578 -10
v 8.27968311309814 0.82998496294022 -10
v 8.93678569793701 -0.23525735735893 -10
v 9.24819183349609 3.2119505405426 -10.75180816650391
v 8.78355026245117 2.14670825004578 -11.21644973754883
v 8.78355026245117 0.82998496294022 -11.21644973754883
v 9.24819183349609 -0.23525735735893 -10.75180816650391
v 10 -0.64214706420898 -10
v 10 3.2119505405426 -11.06321430206299
v 10 2.14670825004578 -11.72031688690186
v 10 -0.23525735735893 -11.06321430206299
v 10.12550067901611 3.58131694793701 -10
v 10.08873748779297 3.58131694793701 -9.91126251220703
v 10 3.58131694793701 -9.87449932098389
v 9.91126251220703 3.58131694793701 -9.91126251220703
v 9.87449932098389 3.58131694793701 -10
v 9.91126251220703 3.58131694793701 -10.08873748779297
v 10 3.58131694793701 -10.12550067901611
v 10.04776477813721 3.86126637458801 -10.08402061462402
v 10.06205272674561 3.86126637458801 -10.04952144622803
v 10.04776477813721 3.86126637458801 -10.01502227783203
v 10.01326560974121 3.86126637458801 -10.00073337554932
v 9.97876644134521 3.86126637458801 -10.01502227783203
v 9.9644775390625 3.86126637458801 -10.04952144622803
v 9.97876644134521 3.86126637458801 -10.08402061462402
v 10.01326560974121 3.86126637458801 -10.09830856323242
v 10.14854526519775 4.01232862472534 -10.10856819152832
v 10.15694808959961 4.00864362716675 -10.08063316345215
v 10.14495944976807 4.0143027305603 -10.05440139770508
v 10.11959648132324 4.02600145339966 -10.04522895812988
v 10.09570980072021 4.03686761856079 -10.05848503112793
v 10.08730697631836 4.04055261611938 -10.0864200592041
v 10.09930515289307 4.03489351272583 -10.11265182495117
v 10.12466716766357 4.02319478988647 -10.12182426452637
v 11.07147216796875 2.67932486534119 -11.07147216796875
v 11.51528739929199 2.67932486534119 -10
v 11.07147216796875 2.67932486534119 -8.92852783203125
v 10 2.67932486534119 -8.48471260070801
v 8.92852783203125 2.67932486534119 -8.92852783203125
v 8.48471260070801 2.67932486534119 -10
v 8.92852783203125 2.67932486534119 -11.07147216796875
v 10 2.67932486534119 -11.51528739929199
v 11.31481266021729 1.48834657669067 -11.31481266021729
v 11.8594274520874 1.48834657669067 -10
v 11.31481266021729 1.48834657669067 -8.68518733978271
v 10 1.48834657669067 -8.1405725479126
v 8.68518733978271 1.48834657669067 -8.68518733978271
v 8.1405725479126 1.48834657669067 -10
v 8.68518733978271 1.48834657669067 -11.31481266021729
v 10 1.48834657669067 -11.8594274520874
v 11.08791542053223 0.29736831784248 -11.08791542053223
v 11.53854942321777 0.29736831784248 -10
v 11.08791542053223 0.29736831784248 -8.91208457946777
v 10 0.29736831784248 -8.46145057678223
v 8.91208457946777 0.29736831784248 -8.91208457946777
v 8.46145057678223 0.29736831784248 -10
v 8.91208457946777 0.29736831784248 -11.08791542053223
v 10 0.29736831784248 -11.53854942321777
# 81 vertices

vn 0.14647263288498 -0.92386829853058 -0.35357192158699
vn 0.37557393312454 0.19156834483147 -0.9067776799202
vn -0.15009780228138 0.91989988088608 0.36229106783867
vn 0.36500656604767 -0.30069288611412 -0.88110953569412
vn 0.30110192298889 0.61711049079895 -0.72698849439621
vn 0.88110953569412 -0.30069288611412 -0.36500656604767
vn 0.72698849439621 0.61711049079895 -0.30110192298889
vn 0.35357192158699 -0.92386829853058 -0.14647263288498
vn 0.9067776799202 0.19156834483147 -0.37557393312454
vn 0.36229106783867 0.91989988088608 -0.15009780228138
vn 0.88110953569412 -0.30069288611412 0.36500656604767
vn 0.72698849439621 0.61711049079895 0.30110192298889
vn 0.35357192158699 -0.92386829853058 0.14647263288498
vn 0.9067776799202 0.19156834483147 0.37557393312454
vn -0.36229106783867 0.91989988088608 -0.15009780228138
vn 0.36500656604767 -0.30069288611412 0.88110953569412
vn 0.30110192298889 0.61711049079895 0.72698849439621
vn 0.14647263288498 -0.92386829853058 0.35357192158699
vn 0.37557393312454 0.19156834483147 0.9067776799202
vn 0.15009780228138 0.91989988088608 -0.36229106783867
vn -0.36500656604767 -0.30069288611412 0.88110953569412
vn -0.30110192298889 0.61711049079895 0.72698849439621
vn -0.14647263288498 -0.92386829853058 0.35357192158699
vn -0.37557393312454 0.19156834483147 0.9067776799202
vn 0.36229106783867 0.91989988088608 0.15009780228138
vn -0.88110953569412 -0.30069288611412 0.36500656604767
vn -0.72698849439621 0.61711049079895 0.30110192298889
vn -0.35357192158699 -0.92386829853058 0.14647263288498
vn -0.9067776799202 0.19156834483147 0.37557393312454
vn 0.15009780228138 0.91989988088608 0.36229106783867
vn -0.88110953569412 -0.30069288611412 -0.36500656604767
vn -0.72698849439621 0.61711049079895 -0.30110192298889
vn -0.35357192158699 -0.92386829853058 -0.14647263288498
vn -0.9067776799202 0.19156834483147 -0.37557393312454
vn -0.15009780228138 0.91989988088608 -0.36229106783867
vn -0.36500656604767 -0.30069288611412 -0.88110953569412
vn -0.30110192298889 0.61711049079895 -0.72698849439621
vn -0.14647263288498 -0.92386829853058 -0.35357192158699
vn -0.37557393312454 0.19156834483147 -0.9067776799202
vn -0.36229106783867 0.91989988088608 0.15009780228138
vn 0.38169854879379 0.07137706875801 -0.92152673006058
vn -0.90050834417343 0.22350206971169 -0.37300345301628
vn 0.35547465085983 0.37016239762306 0.85826426744461
vn -0.3509795665741 0.39866852760315 0.84727609157562
vn -0.38047915697098 0.10719043761492 -0.91855639219284
vn -0.86799627542496 0.34257334470749 0.35948014259338
vn 0.91473740339279 0.14028410613537 -0.37891399860382
vn 0.89033699035645 0.26700735092163 0.36879140138626
vn 0.81402486562729 -0.42841932177544 0.39219948649406
vn -0.31929478049278 0.42798689007759 0.8455046415329
vn -0.7912266254425 0.47381719946861 -0.38659760355949
vn 0.34110313653946 -0.3643225133419 -0.86655509471893
vn 0.76685667037964 -0.56094700098038 -0.31188026070595
vn 0.3666986823082 0.01068782620132 0.93027836084366
vn -0.75438976287842 0.57948011159897 0.30838105082512
vn -0.34709993004799 0.09487669169903 -0.93301665782928
vn 0.41691610217094 0.90892773866653 -0.00559388287365
vn -0.36057445406914 0.33507362008095 -0.87046641111374
vn -0.87046641111374 0.33507362008095 -0.36057445406914
vn -0.87046641111374 0.33507362008095 0.36057445406914
vn -0.36057445406914 0.33507362008095 0.87046641111374
vn 0.36057445406914 0.33507362008095 0.87046641111374
vn 0.87046641111374 0.33507362008095 0.36057445406914
vn 0.87046641111374 0.33507362008095 -0.36057445406914
vn 0.36057445406914 0.33507362008095 -0.87046641111374
vn -0.37557393312454 -0.19156834483147 -0.9067776799202
vn -0.9067776799202 -0.19156834483147 -0.37557393312454
vn -0.9067776799202 -0.19156834483147 0.37557393312454
vn -0.37557393312454 -0.19156834483147 0.9067776799202
vn 0.37557393312454 -0.19156834483147 0.9067776799202
vn 0.9067776799202 -0.19156834483147 0.37557393312454
vn 0.9067776799202 -0.19156834483147 -0.37557393312454
vn 0.37557393312454 -0.19156834483147 -0.9067776799202
vn -0.2952838242054 -0.63619303703308 -0.71278744935989
vn -0.71278744935989 -0.63619303703308 -0.2952838242054
vn -0.71278744935989 -0.63619303703308 0.2952838242054
vn -0.2952838242054 -0.63619303703308 0.71278744935989
vn 0.2952838242054 -0.63619303703308 0.71278744935989
vn 0.71278744935989 -0.63619303703308 0.2952838242054
vn 0.71278744935989 -0.63619303703308 -0.2952838242054
vn 0.2952838242054 -0.63619303703308 -0.71278744935989
# 81 normals

vt 0.65481299161911 0.65064704418182 0
vt 0.65742099285126 0.65064704418182 0
vt 0.65611702203751 0.64724004268646 0
vt 0.65400701761246 0.65668499469757 0
vt 0.65400701761246 0.65879499912262 0
vt 0.65822601318359 0.65879499912262 0
vt 0.65822601318359 0.65668499469757 0
vt 0.65930497646332 0.66668701171875 0
vt 0.65961301326752 0.66668701171875 0
vt 0.66076201200485 0.66366899013519 0
vt 0.65815502405167 0.66366899013519 0
vt 0.65441000461578 0.65261101722717 0
vt 0.65400701761246 0.65457600355148 0
vt 0.65822601318359 0.65457600355148 0
vt 0.65782302618027 0.65261101722717 0
vt 0.65441000461578 0.66075903177261 0
vt 0.65481299161911 0.66272300481796 0
vt 0.65742099285126 0.66272300481796 0
vt 0.65782302618027 0.66075903177261 0
vt 0.65320301055908 0.59234803915024 0
vt 0.65292900800705 0.59368604421616 0
vt 0.65580302476883 0.59368604421616 0
vt 0.65552800893784 0.59234803915024 0
vt 0.65320301055908 0.59789800643921 0
vt 0.65347802639008 0.59923601150513 0
vt 0.6552540063858 0.59923601150513 0
vt 0.65552800893784 0.59789800643921 0
vt 0.65347802639008 0.59101003408432 0
vt 0.6552540063858 0.59101003408432 0
vt 0.65436601638794 0.58869004249573 0
vt 0.65292900800705 0.5951229929924 0
vt 0.65292900800705 0.59656000137329 0
vt 0.65580302476883 0.59656000137329 0
vt 0.65580302476883 0.5951229929924 0
vt 0.65426099300385 0.60129100084305 0
vt 0.65447098016739 0.60129100084305 0
vt 0.64947700500488 0.65303200483322 0
vt 0.64907401800156 0.65499603748322 0
vt 0.65329301357269 0.65499603748322 0
vt 0.65289002656937 0.65303200483322 0
vt 0.64947700500488 0.6611790060997 0
vt 0.64987999200821 0.66314399242401 0
vt 0.6524869799614 0.66314399242401 0
vt 0.65289002656937 0.6611790060997 0
vt 0.64987999200821 0.65106803178787 0
vt 0.6524869799614 0.65106803178787 0
vt 0.65118300914764 0.64766103029251 0
vt 0.64907401800156 0.65710604190826 0
vt 0.64907401800156 0.65921503305435 0
vt 0.65329301357269 0.65921503305435 0
vt 0.65329301357269 0.65710604190826 0
vt 0.6582869887352 0.64720100164413 0
vt 0.65797400474548 0.64720100164413 0
vt 0.65680700540543 0.65026503801346 0
vt 0.65945500135422 0.65026503801346 0
vt 0.65353101491928 0.59242004156113 0
vt 0.65325599908829 0.5937579870224 0
vt 0.65613001585007 0.5937579870224 0
vt 0.65585500001907 0.59242004156113 0
vt 0.65353101491928 0.5979700088501 0
vt 0.65380501747131 0.59930801391602 0
vt 0.65558099746704 0.59930801391602 0
vt 0.65585500001907 0.5979700088501 0
vt 0.65380501747131 0.59108203649521 0
vt 0.65558099746704 0.59108203649521 0
vt 0.65469300746918 0.58876198530197 0
vt 0.65325599908829 0.59519499540329 0
vt 0.65325599908829 0.59663200378418 0
vt 0.65613001585007 0.59663200378418 0
vt 0.65613001585007 0.59519499540329 0
vt 0.65596300363541 0.66574102640152 0
vt 0.65627098083496 0.66574102640152 0
vt 0.6577519774437 0.65355801582336 0
vt 0.65734899044037 0.65552198886871 0
vt 0.66156798601151 0.65552198886871 0
vt 0.66116499900818 0.65355801582336 0
vt 0.6577519774437 0.66170501708984 0
vt 0.66116499900818 0.66170501708984 0
vt 0.65815502405167 0.65159302949905 0
vt 0.66076201200485 0.65159302949905 0
vt 0.65945899486542 0.64818704128265 0
vt 0.65734899044037 0.65763103961945 0
vt 0.65734899044037 0.65974104404449 0
vt 0.66156798601151 0.65974104404449 0
vt 0.66156798601151 0.65763103961945 0
vt 0.65103000402451 0.66616100072861 0
vt 0.65133702754974 0.66616100072861 0
vt 0.65318697690964 0.59234803915024 0
vt 0.65291202068329 0.59368604421616 0
vt 0.65578597784042 0.59368604421616 0
vt 0.65551197528839 0.59234803915024 0
vt 0.65318697690964 0.59789800643921 0
vt 0.65346097946167 0.59923601150513 0
vt 0.65523701906204 0.59923601150513 0
vt 0.65551197528839 0.59789800643921 0
vt 0.65346097946167 0.59101003408432 0
vt 0.65523701906204 0.59101003408432 0
vt 0.65434902906418 0.58869004249573 0
vt 0.65291202068329 0.5951229929924 0
vt 0.65291202068329 0.59656000137329 0
vt 0.65578597784042 0.59656000137329 0
vt 0.65578597784042 0.5951229929924 0
vt 0.65458798408508 0.60136300325394 0
vt 0.65479797124863 0.60136300325394 0
vt 0.65986400842667 0.66053503751755 0
vt 0.66027301549912 0.65854001045227 0
vt 0.65598797798157 0.65854001045227 0
vt 0.65639799833298 0.66053503751755 0
vt 0.65986400842667 0.65226000547409 0
vt 0.65639799833298 0.65226000547409 0
vt 0.65945500135422 0.66253000497818 0
vt 0.65680700540543 0.66253000497818 0
vt 0.65813100337982 0.66598999500275 0
vt 0.66027301549912 0.65639799833298 0
vt 0.66027301549912 0.65425503253937 0
vt 0.65598797798157 0.65425503253937 0
vt 0.65598797798157 0.65639799833298 0
vt 0.65430802106857 0.59965300559998 0
vt 0.65448200702667 0.59965300559998 0
vt 0.65513300895691 0.59794503450394 0
vt 0.65365701913834 0.59794503450394 0
vt 0.65342897176743 0.59222102165222 0
vt 0.65320098400116 0.59333300590515 0
vt 0.65558898448944 0.59333300590515 0
vt 0.65536099672318 0.59222102165222 0
vt 0.65342897176743 0.59683299064636 0
vt 0.65536099672318 0.59683299064636 0
vt 0.65365701913834 0.59110999107361 0
vt 0.65513300895691 0.59110999107361 0
vt 0.6543949842453 0.58918100595474 0
vt 0.65320098400116 0.59452700614929 0
vt 0.65320098400116 0.59572100639343 0
vt 0.65558898448944 0.59572100639343 0
vt 0.65558898448944 0.59452700614929 0
vt 0.65424400568008 0.60129100084305 0
vt 0.65445399284363 0.60129100084305 0
vt 0.65527302026749 0.97017699480057 0
vt 0.65557199716568 0.9702240228653 0
vt 0.65867698192596 0.9625049829483 0
vt 0.65154898166656 0.96283400058746 0
vt 0.65585201978683 0.97040700912476 0
vt 0.65592700242996 0.97083902359009 0
vt 0.66415899991989 0.97532600164413 0
vt 0.66415899991989 0.96770000457764 0
vt 0.65508598089218 0.97120702266693 0
vt 0.654865026474 0.97079300880432 0
vt 0.64647501707077 0.97490400075912 0
vt 0.65139198303223 0.98013198375702 0
vt 0.65559297800064 0.97122299671173 0
vt 0.65863698720932 0.9804909825325 0
vt 0.65496802330017 0.97037297487259 0
vt 0.64662802219391 0.96785098314285 0
vt 0.65531301498413 0.97053098678589 0
vt 0.65531402826309 0.97053200006485 0
vt 0.65531098842621 0.97053402662277 0
vt 0.65531200170517 0.97053200006485 0
vt 0.65531301498413 0.97053498029709 0
vt 0.65531200170517 0.97053599357605 0
vt 0.65531498193741 0.97053200006485 0
vt 0.65531498193741 0.97053301334381 0
# 160 texture coordinates

o Watermelon_Sphere
usemtl VegetationMaterials
f 31/3/1 34/2/1 5/1/1
f 73/7/2 33/6/2 3/5/2 66/4/2
f 19/11/3 14/10/3 37/9/3 38/8/3
f 81/15/4 1/14/4 4/13/4 74/12/4
f 65/19/5 32/18/5 2/17/5 58/16/5
f 74/23/6 4/22/6 8/21/6 75/20/6
f 58/27/7 2/26/7 6/25/7 59/24/7
f 31/30/8 5/29/8 9/28/8
f 66/34/9 3/33/9 7/32/9 67/31/9
f 6/25/10 2/26/10 18/36/10 35/35/10
f 75/40/11 8/39/11 12/38/11 76/37/11
f 59/44/12 6/43/12 10/42/12 60/41/12
f 31/47/13 9/46/13 13/45/13
f 67/51/14 7/50/14 11/49/14 68/48/14
f 27/55/15 23/54/15 39/53/15 40/52/15
f 76/59/16 12/58/16 16/57/16 77/56/16
f 60/63/17 10/62/17 14/61/17 61/60/17
f 31/66/18 13/65/18 17/64/18
f 68/70/19 11/69/19 15/68/19 69/67/19
f 2/17/20 32/18/20 41/72/20 18/71/20
f 77/76/21 16/75/21 21/74/21 78/73/21
f 61/78/22 14/10/22 19/11/22 62/77/22
f 31/81/23 17/80/23 22/79/23
f 69/85/24 15/84/24 20/83/24 70/82/24
f 10/42/25 6/43/25 35/87/25 36/86/25
f 78/91/26 21/90/26 25/89/26 79/88/26
f 62/95/27 19/94/27 23/93/27 63/92/27
f 31/98/28 22/97/28 26/96/28
f 70/102/29 20/101/29 24/100/29 71/99/29
f 14/61/30 10/62/30 36/104/30 37/103/30
f 79/108/31 25/107/31 29/106/31 80/105/31
f 63/110/32 23/54/32 27/55/32 64/109/32
f 31/113/33 26/112/33 30/111/33
f 71/117/34 24/116/34 28/115/34 72/114/34
f 32/121/35 27/120/35 40/119/35 41/118/35
f 80/125/36 29/124/36 1/123/36 81/122/36
f 64/127/37 27/120/37 32/121/37 65/126/37
f 31/130/38 30/129/38 34/128/38
f 72/134/39 28/133/39 33/132/39 73/131/39
f 23/93/40 19/94/40 38/136/40 39/135/40
f 18/140/41 41/139/41 49/138/41 42/137/41
f 40/144/42 39/143/42 47/142/42 48/141/42
f 37/148/43 36/147/43 44/146/43 45/145/43
f 38/150/44 37/148/44 45/145/44 46/149/44
f 41/139/45 40/144/45 48/141/45 49/138/45
f 39/143/46 38/150/46 46/149/46 47/142/46
f 35/152/47 18/140/47 42/137/47 43/151/47
f 36/147/48 35/152/48 43/151/48 44/146/48
f 44/146/49 43/151/49 51/154/49 52/153/49
f 46/149/50 45/145/50 53/156/50 54/155/50
f 48/141/51 47/142/51 55/158/51 56/157/51
f 42/137/52 49/138/52 57/160/52 50/159/52
f 43/151/53 42/137/53 50/159/53 51/154/53
f 45/145/54 44/146/54 52/153/54 53/156/54
f 47/142/55 46/149/55 54/155/55 55/158/55
f 49/138/56 48/141/56 56/157/56 57/160/56
f 55/158/57 54/155/57 53/156/57 56/157/57
f 56/157/57 53/156/57 52/153/57 57/160/57
f 57/160/57 52/153/57 51/154/57 50/159/57
f 28/133/58 64/127/58 65/126/58 33/132/58
f 24/116/59 63/110/59 64/109/59 28/115/59
f 20/101/60 62/95/60 63/92/60 24/100/60
f 15/84/61 61/78/61 62/77/61 20/83/61
f 11/69/62 60/63/62 61/60/62 15/68/62
f 7/50/63 59/44/63 60/41/63 11/49/63
f 3/33/64 58/27/64 59/24/64 7/32/64
f 33/6/65 65/19/65 58/16/65 3/5/65
f 29/124/66 72/134/66 73/131/66 1/123/66
f 25/107/67 71/117/67 72/114/67 29/106/67
f 21/90/68 70/102/68 71/99/68 25/89/68
f 16/75/69 69/85/69 70/82/69 21/74/69
f 12/58/70 68/70/70 69/67/70 16/57/70
f 8/39/71 67/51/71 68/48/71 12/38/71
f 4/22/72 66/34/72 67/31/72 8/21/72
f 1/14/73 73/7/73 66/4/73 4/13/73
f 30/129/74 80/125/74 81/122/74 34/128/74
f 26/112/75 79/108/75 80/105/75 30/111/75
f 22/97/76 78/91/76 79/88/76 26/96/76
f 17/80/77 77/76/77 78/73/77 22/79/77
f 13/65/78 76/59/78 77/56/78 17/64/78
f 9/46/79 75/40/79 76/37/79 13/45/79
f 5/29/80 74/23/80 75/20/80 9/28/80
f 34/2/81 81/15/81 74/12/81 5/1/81

