# WaveFront *.obj file (generated by CINEMA 4D)

mtllib ./10.mtl

v 30.05097007751465 1.22030317783356 -16.48547744750977
v 30.02485466003418 1.14211583137512 -22.18623542785645
v 29.54907417297363 0.9722808599472 -16.43722534179688
v 29.4198112487793 0.81537657976151 -22.26467704772949
v 29.51688575744629 0.42407765984535 -16.31815338134766
v 29.40818023681641 0.14667493104935 -22.44269752502441
v 29.98657608032227 0.12389720976353 -16.24733543395996
v 30.0015926361084 -0.19528746604919 -22.54227256774902
v 30.48847389221191 0.37192851305008 -16.29558753967285
v 30.60663604736328 0.13146080076694 -22.46383094787598
v 30.52066230773926 0.92012268304825 -16.41465950012207
v 30.61826705932617 0.80016243457794 -22.28581237792969
v 30.02523994445801 0.90363347530365 -18.49354934692383
v 29.38646697998047 0.56560760736465 -18.42024993896484
v 29.36660194396973 -0.14557439088821 -18.27365303039551
v 29.98550987243652 -0.51872152090073 -18.20035362243652
v 30.6242847442627 -0.18070468306541 -18.27365303039551
v 30.64414978027344 0.53047734498978 -18.42024993896484
v 30.0362720489502 1.0242006778717 -15.59433364868164
v 29.86064529418945 0.93880319595337 -15.58160305023193
v 29.84759521484375 0.74597007036209 -15.55088901519775
v 30.01017189025879 0.63852542638779 -15.53290557861328
v 30.18579864501953 0.72392290830612 -15.5456371307373
v 30.19884872436523 0.91676509380341 -15.57635116577148
v 29.96503067016602 1.22799372673035 -23.32136344909668
v 29.71858787536621 1.10704529285431 -23.35313606262207
v 29.70331764221191 0.84572929143906 -23.44177436828613
v 29.93448066711426 0.70537096261978 -23.4986400604248
v 30.18092346191406 0.82632845640182 -23.46685600280762
v 30.19620323181152 1.08763515949249 -23.37821960449219
v 30.02079391479492 0.87577629089355 -20.4997386932373
v 29.36480903625488 0.52284091711044 -20.5565299987793
v 29.34802436828613 -0.20938827097416 -20.68079948425293
v 29.98722457885742 -0.58869117498398 -20.7482852935791
v 30.64320945739746 -0.23575584590435 -20.69150161743164
v 30.65999412536621 0.49647337198257 -20.56722450256348
v 29.93485260009766 1.29820597171783 -23.95012474060059
v 29.8105354309082 1.23719167709351 -23.96615219116211
v 29.80282974243164 1.10537159442902 -24.01087379455566
v 29.9194450378418 1.03456580638885 -24.03956031799316
v 30.04377365112305 1.09557974338531 -24.02352333068848
v 30.05147743225098 1.2273998260498 -23.97881126403809
v 29.95627784729004 1.1384060382843 -23.4721622467041
v 29.83723258972168 1.07998013496399 -23.48751068115234
v 30.06794929504395 1.07060074806213 -23.49963569641113
v 29.94152641296387 0.88595277070999 -23.55780410766602
v 30.06057357788086 0.94437861442566 -23.54245567321777
v 29.82985496520996 0.95374900102615 -23.53033065795898
# 48 vertices

vn -0.48126757144928 0.86624133586884 0.13419196009636
vn -0.99925369024277 0.02641108632088 -0.02818772010505
vn -0.5148833990097 -0.83659398555756 -0.18709796667099
vn 0.48157641291618 -0.85650527477264 -0.18569573760033
vn -0.96843588352203 0.09417296200991 -0.23078875243664
vn 0.99957048892975 -0.01482166349888 -0.02528127282858
vn 0.5140432715416 0.8468986749649 0.13609613478184
vn -0.51520133018494 -0.68768930435181 0.51151835918427
vn 0.53400200605392 0.83481627702713 -0.13387909531593
vn 0.99712383747101 -0.026257770136 0.07109594345093
vn 0.46251115202904 -0.8437362909317 0.27238303422928
vn -0.53210878372192 -0.80264610052109 0.26948004961014
vn -0.99633604288101 0.05502870678902 0.06546975672245
vn -0.46416538953781 0.87513768672943 -0.13669127225876
vn -0.00507101416588 0.15758186578751 0.9874929189682
vn 0.51175880432129 0.83647137880325 0.19600647687912
vn 0.41423192620277 -0.74649482965469 0.52072775363922
vn -0.92983758449554 0.12660679221153 0.3455037176609
vn 0.93176174163818 0.01636667177081 0.36270123720169
vn -0.41994911432266 0.88784748315811 0.18806801736355
vn 0.5463849902153 0.80139172077179 0.2433817833662
vn 0.93586248159409 0.07177477329969 -0.34497791528702
vn -0.47305428981781 0.87559026479721 0.09778228402138
vn -0.4891254901886 -0.64630180597305 -0.58570486307144
vn 0.50937300920486 0.85987877845764 0.03387562185526
vn 0.42265805602074 -0.64783173799515 -0.63377773761749
vn -0.45110979676247 0.84014046192169 0.30110457539558
vn 0.51326858997345 0.85815262794495 -0.01137531735003
vn 0.99964880943298 -0.02523410134017 0.00809396151453
vn 0.47091180086136 -0.88184863328934 0.02418784610927
vn -0.51322448253632 -0.85789382457733 0.02487541176379
vn -0.99963933229446 0.0255464669317 0.00828146003187
vn -0.47086828947067 0.88212060928345 -0.01209380943328
vn -0.03659228608012 0.32293742895126 -0.94571262598038
vn 0.45174622535706 -0.84647434949875 -0.2817916572094
vn -0.99710404872894 0.03544848412275 0.0672824382782
vn 0.99796038866043 -0.04197515174747 -0.0480949357152
vn -0.54546934366226 -0.80761468410492 -0.22410199046135
vn -0.38339588046074 -0.27399721741676 -0.88200515508652
vn 0.65796083211899 0.20708984136581 -0.72401750087738
vn -0.69511359930038 0.2669872045517 -0.66748398542404
vn 0.26934656500816 -0.30933266878128 -0.91201192140579
vn -0.34083318710327 0.81685316562653 -0.46538543701172
vn 0.36028197407722 0.79267627000809 -0.49179390072823
# 44 normals

vt 0.97833001613617 0.34214007854462 0
vt 0.98124897480011 0.34779500961304 0
vt 0.98425698280334 0.34303605556488 0
vt 0.97783100605011 0.34313702583313 0
vt 0.97940701246262 0.34213304519653 0
vt 0.97634297609329 0.34684908390045 0
vt 0.97993701696396 0.34300804138184 0
vt 0.97512102127075 0.34298098087311 0
vt 0.97948002815247 0.34390604496002 0
vt 0.97701799869537 0.33993101119995 0
vt 0.98180502653122 0.34052205085754 0
vt 0.97847199440002 0.34054601192474 0
vt 0.97844398021698 0.34404802322388 0
vt 0.98104900121689 0.33887505531311 0
vt 0.97873800992966 0.34308207035065 0
vt 0.97873997688293 0.34308505058289 0
vt 0.9787660241127 0.34308004379272 0
vt 0.9787449836731 0.34305799007416 0
vt 0.97871297597885 0.34308803081512 0
vt 0.97900897264481 0.34304308891296 0
vt 0.97883397340775 0.34281802177429 0
vt 0.9787250161171 0.34310805797577 0
vt 0.978570997715 0.34288501739502 0
vt 0.97875201702118 0.34310698509216 0
vt 0.97852897644043 0.34311306476593 0
vt 0.97864598035812 0.34329807758331 0
vt 0.9788990020752 0.34329903125763 0
vt 0.97871798276901 0.34306502342224 0
vt 0.97873401641846 0.34308302402496 0
vt 0.9787330031395 0.34308707714081 0
vt 0.97873502969742 0.34308898448944 0
vt 0.97873800992966 0.34308898448944 0
vt 0.96089601516724 0.97256499528885 0
vt 0.96012502908707 0.97284799814224 0
vt 0.97302597761154 0.97540599107742 0
vt 0.97818201780319 0.97407901287079 0
vt 0.97858899831772 0.34594106674194 0
vt 0.9817990064621 0.34603607654572 0
vt 0.97771602869034 0.34324097633362 0
vt 0.98362702131271 0.34352207183838 0
vt 0.96018397808075 0.97200000286102 0
vt 0.97331297397614 0.97186601161957 0
vt 0.95810800790787 0.972815990448 0
vt 0.95539802312851 0.97207999229431 0
vt 0.95831900835037 0.97197300195694 0
vt 0.96374201774597 0.9587299823761 0
vt 0.96103197336197 0.95799398422241 0
vt 0.97389900684357 0.95914798974991 0
vt 0.97515797615051 0.96073400974274 0
vt 0.96976202726364 0.97186601161957 0
vt 0.96952301263809 0.97482001781464 0
vt 0.96395301818848 0.95788699388504 0
vt 0.9753959774971 0.95778000354767 0
vt 0.95043098926544 0.34276902675629 0
vt 0.97096598148346 0.35668408870697 0
vt 0.9840099811554 0.33580601215363 0
vt 0.97095799446106 0.32913303375244 0
vt 0.9840099811554 0.35028803348541 0
vt 0.9834840297699 0.34309101104736 0
# 59 texture coordinates

o Cucumber_Cylinder.007
usemtl VegetationMaterials
f 31/4/1 2/3/1 4/2/1 32/1/1
f 32/1/2 4/2/2 6/6/2 33/5/2
f 33/5/3 6/6/3 8/8/3 34/7/3
f 34/7/4 8/8/4 10/10/4 35/9/4
f 6/6/5 4/2/5 26/12/5 27/11/5
f 35/9/6 10/10/6 12/14/6 36/13/6
f 36/13/7 12/14/7 2/3/7 31/4/7
f 5/18/8 7/17/8 22/16/8 21/15/8
f 11/22/9 18/21/9 13/20/9 1/19/9
f 9/24/10 17/23/10 18/21/10 11/22/10
f 7/17/11 16/25/11 17/23/11 9/24/11
f 5/18/12 15/26/12 16/25/12 7/17/12
f 3/28/13 14/27/13 15/26/13 5/18/13
f 1/19/14 13/20/14 14/27/14 3/28/14
f 19/30/15 20/29/15 21/15/15 22/16/15
f 11/22/16 1/19/16 19/30/16 24/31/16
f 7/17/17 9/24/17 23/32/17 22/16/17
f 3/28/18 5/18/18 21/15/18 20/29/18
f 9/24/19 11/22/19 24/31/19 23/32/19
f 1/19/20 3/28/20 20/29/20 19/30/20
f 43/36/21 45/35/21 42/34/21 37/33/21
f 12/14/22 10/10/22 29/38/22 30/37/22
f 4/2/23 2/3/23 25/39/23 26/12/23
f 8/8/24 6/6/24 27/11/24 28/40/24
f 2/3/25 12/14/25 30/37/25 25/39/25
f 10/10/26 8/8/26 28/40/26 29/38/26
f 44/42/27 43/36/27 37/33/27 38/41/27
f 24/31/15 19/30/15 22/16/15 23/32/15
f 18/21/28 36/13/28 31/4/28 13/20/28
f 17/23/29 35/9/29 36/13/29 18/21/29
f 16/25/30 34/7/30 35/9/30 17/23/30
f 15/26/31 33/5/31 34/7/31 16/25/31
f 14/27/32 32/1/32 33/5/32 15/26/32
f 13/20/33 31/4/33 32/1/33 14/27/33
f 38/41/34 37/33/34 42/34/34 41/43/34
f 39/45/34 38/41/34 41/43/34 40/44/34
f 47/49/35 46/48/35 40/47/35 41/46/35
f 48/50/36 44/42/36 38/41/36 39/45/36
f 45/35/37 47/51/37 41/43/37 42/34/37
f 46/48/38 48/53/38 39/52/38 40/47/38
f 28/40/39 27/11/39 48/55/39 46/54/39
f 30/37/40 29/38/40 47/57/40 45/56/40
f 27/11/41 26/12/41 44/58/41 48/55/41
f 29/38/42 28/40/42 46/54/42 47/57/42
f 26/12/43 25/39/43 43/59/43 44/58/43
f 25/39/44 30/37/44 45/56/44 43/59/44

