# WaveFront *.obj file (generated by CINEMA 4D)

mtllib ./11.mtl

v 30 -0.01695932261646 -12.80497264862061
v 30 -0.3121572136879 -11.94110202789307
v 30 0.35113933682442 -13.11328220367432
v 30.21636581420898 0.05334270372987 -12.80497264862061
v 30.3898754119873 -0.18547955155373 -11.94110202789307
v 30.48616600036621 -0.31801569461823 -10.69277000427246
v 30.48616600036621 -0.31801569461823 -9.48892498016357
v 30.35008811950684 0.23739203810692 -12.80497264862061
v 30.63083457946777 0.14617325365543 -11.94110202789307
v 30.7866325378418 0.09554746001959 -10.69277000427246
v 30.7866325378418 0.09554746001959 -9.55662822723389
v 30.35008811950684 0.46488663554192 -12.80497264862061
v 30.63083457946777 0.55610543489456 -11.94110202789307
v 30.7866325378418 0.60673117637634 -10.69277000427246
v 30.7866325378418 0.60673117637634 -10.09495830535889
v 30.21636581420898 0.64893597364426 -12.80497264862061
v 30.3898754119873 0.88775819540024 -11.94110202789307
v 30.48616600036621 1.0202944278717 -10.69277000427246
v 30.48616600036621 1.0202944278717 -9.37625503540039
v 30 0.71923798322678 -12.80497264862061
v 30 1.01443588733673 -11.94110202789307
v 30 1.17825663089752 -10.69277000427246
v 30 1.17825663089752 -9.69534015655518
v 29.78363418579102 0.64893597364426 -12.80497264862061
v 29.6101245880127 0.88775819540024 -11.94110202789307
v 29.51383399963379 1.0202944278717 -10.69277000427246
v 29.51383399963379 1.0202944278717 -8.92957878112793
v 30 0.1161744594574 -6.67391014099121
v 29.64991188049316 0.46488663554192 -12.80497264862061
v 29.36916542053223 0.55610543489456 -11.94110202789307
v 29.2133674621582 0.60673117637634 -10.69277000427246
v 29.2133674621582 0.60673117637634 -9.42585754394531
v 29.86189460754395 0.1610504090786 -6.67391014099121
v 29.77653503417969 0.27852830290794 -6.67391014099121
v 29.64991188049316 0.23739203810692 -12.80497264862061
v 29.36916542053223 0.14617325365543 -11.94110202789307
v 29.2133674621582 0.09554746001959 -10.69277000427246
v 29.2133674621582 0.09554746001959 -9.2341480255127
v 29.77653503417969 0.42375034093857 -6.67391014099121
v 29.86189460754395 0.54122823476791 -6.67391014099121
v 30 0.58610421419144 -6.67391014099121
v 29.78363418579102 0.05334270372987 -12.80497264862061
v 29.6101245880127 -0.18547955155373 -11.94110202789307
v 29.51383399963379 -0.31801569461823 -10.69277000427246
v 29.51383399963379 -0.31801569461823 -9.23604011535645
v 30.13810539245605 0.54122823476791 -6.67391014099121
v 30.22346496582031 0.42375034093857 -6.67391014099121
v 30 -0.47597795724869 -10.69277000427246
v 30 -0.47597795724869 -8.57119560241699
v 30.22346496582031 0.27852830290794 -6.67391014099121
v 30 -0.41201433539391 -8.01260089874268
v 30.55935478210449 -0.41875115036964 -9.52687358856201
v 30.44857025146484 -0.26626712083817 -8.01260089874268
v 30.19102096557617 0.08822207152843 -7.10474109649658
v 30.90506172180176 0.05706425383687 -9.58659076690674
v 30.72580146789551 0.115314245224 -8.01260089874268
v 30.30907821655273 0.25071173906326 -7.10474109649658
v 30.90506172180176 0.64521443843842 -10.15233039855957
v 30.72580146789551 0.58696442842484 -8.01260089874268
v 30.30907821655273 0.45156690478325 -7.10474109649658
v 30.55935478210449 1.1210298538208 -9.39703559875488
v 30.44857025146484 0.968545794487 -8.01260089874268
v 30.19102096557617 0.61405658721924 -7.10474109649658
v 30 1.30277919769287 -9.73236560821533
v 30 1.11429297924042 -8.01260089874268
v 30 0.67611867189407 -7.10474109649658
v 29.44064521789551 1.1210298538208 -8.94254493713379
v 29.55142974853516 0.968545794487 -8.01260089874268
v 29.80897903442383 0.61405658721924 -7.10474109649658
v 29.09493827819824 0.64521443843842 -9.46346282958984
v 29.27419853210449 0.58696442842484 -8.01260089874268
v 29.69092178344727 0.45156690478325 -7.10474109649658
v 29.09493827819824 0.05706425383687 -9.24768543243408
v 29.27419853210449 0.115314245224 -8.01260089874268
v 29.69092178344727 0.25071173906326 -7.10474109649658
v 30.13810539245605 0.1610504090786 -6.67391014099121
v 29.44064521789551 -0.41875115036964 -9.265061378479
v 29.55142974853516 -0.26626712083817 -8.01260089874268
v 29.80897903442383 0.08822207152843 -7.10474109649658
v 30 -0.60050052404404 -8.57584095001221
v 30 0.02615997754037 -7.10474109649658
# 81 vertices

vn 0.30660501122475 -0.94375336170197 -0.12378579378128
vn 0.20419363677502 -0.62858140468597 -0.75046008825302
vn 0.30897161364555 -0.95107126235962 0
vn 0.29388010501862 -0.90448451042175 -0.30909910798073
vn 0.80901300907135 -0.58779072761536 0
vn 0.76940470933914 -0.55899029970169 -0.30910566449165
vn 0.8027715086937 -0.58329689502716 -0.12378456443548
vn 0.5346771478653 -0.38848394155502 -0.75046688318253
vn 0.99230909347534 0 -0.12378472089767
vn 0.66088855266571 0 -0.75048404932022
vn 1 0 0
vn 0.95102858543396 0 -0.30910304188728
vn 0.8027715086937 0.58329689502716 -0.12378456443548
vn 0.5346771478653 0.38848394155502 -0.75046688318253
vn 0.80901300907135 0.58779072761536 0
vn 0.76940470933914 0.55899029970169 -0.30910566449165
vn 0.30660501122475 0.94375336170197 -0.12378579378128
vn 0.20419363677502 0.62858140468597 -0.75046008825302
vn 0.30897161364555 0.95107126235962 0
vn 0.29388010501862 0.90448451042175 -0.30909910798073
vn -0.30897161364555 0.95107126235962 0
vn -0.29388010501862 0.90448451042175 -0.30909910798073
vn 0 0 1
vn -0.30660501122475 0.94375336170197 -0.12378579378128
vn -0.20419363677502 0.62858140468597 -0.75046008825302
vn -0.80901300907135 0.58779072761536 0
vn -0.76940470933914 0.55899029970169 -0.30910566449165
vn 0.13287968933582 0.11787917464972 -0.98409730195999
vn -0.8027715086937 0.58329689502716 -0.12378456443548
vn -0.5346771478653 0.38848394155502 -0.75046688318253
vn -0.95102858543396 0 -0.30910304188728
vn -0.73360419273376 -0.36550518870354 -0.57291436195374
vn 0.41269743442535 -0.34988340735435 -0.84098893404007
vn -0.99230909347534 0 -0.12378472089767
vn -0.66088855266571 0 -0.75048404932022
vn -0.61879485845566 0.52248024940491 -0.58660662174225
vn -1 0 0
vn 0.76297807693481 -0.15409563481808 -0.62778896093369
vn -0.28669241070747 0.07137621939182 -0.95536011457443
vn -0.8027715086937 -0.58329689502716 -0.12378456443548
vn -0.5346771478653 -0.38848394155502 -0.75046688318253
vn -0.84442800283432 -0.17887960374355 -0.50491923093796
vn -0.80901300907135 -0.58779072761536 0
vn -0.76940470933914 -0.55899029970169 -0.30910566449165
vn 0.19840748608112 -0.3405958712101 -0.91903698444366
vn -0.30660501122475 -0.94375336170197 -0.12378579378128
vn -0.20419363677502 -0.62858140468597 -0.75046008825302
vn -0.25179103016853 -0.68577659130096 -0.68287020921707
vn -0.30897161364555 -0.95107126235962 0
vn -0.29388010501862 -0.90448451042175 -0.30909910798073
vn 0.51963776350021 0.45182359218597 -0.7251427769661
vn -0.9808275103569 0 0.19487798213959
vn 0.44448360800743 -0.87987321615219 0.16809938848019
vn 0.28079250454903 -0.86434721946716 0.41720426082611
vn 0.79351162910461 0.5765084028244 0.19487784802914
vn 0.80742025375366 -0.57860374450684 0.11528324335814
vn 0.7352739572525 -0.53417366743088 0.41716983914375
vn -0.3030965924263 0.93282127380371 0.19487681984901
vn 0.99406725168228 0.05118774622679 0.09596921503544
vn 0.90881359577179 0 0.4172023832798
vn -0.3030965924263 -0.93282127380371 0.19487681984901
vn 0.84510040283203 0.52500414848328 0.10087579488754
vn 0.7352739572525 0.53417366743088 0.41716983914375
vn 0.28079250454903 0.86434721946716 0.41720426082611
vn -0.79351162910461 -0.5765084028244 0.19487784802914
vn 0.27228507399559 0.95535713434219 0.11468911170959
vn -0.28079250454903 0.86434721946716 0.41720426082611
vn 0.9808275103569 0 0.19487798213959
vn -0.21009574830532 0.96854043006897 0.13337627053261
vn -0.7352739572525 0.53417366743088 0.41716983914375
vn 0.3030965924263 0.93282127380371 0.19487681984901
vn -0.84079223871231 0.52060055732727 0.14847068488598
vn 0.79351162910461 -0.5765084028244 0.19487784802914
vn -0.99084776639938 0.02687510848045 0.13228178024292
vn -0.90881359577179 0 0.4172023832798
vn -0.79351162910461 0.5765084028244 0.19487784802914
vn -0.79935783147812 -0.58366650342941 0.1426900178194
vn -0.7352739572525 -0.53417366743088 0.41716983914375
vn -0.41969725489616 -0.88708311319351 0.19219197332859
vn -0.28079250454903 -0.86434721946716 0.41720426082611
vn 0.3030965924263 -0.93282127380371 0.19487681984901
# 81 normals

vt 0.96592199802399 0.58851003646851 0
vt 0.96628701686859 0.59009903669357 0
vt 0.96645897626877 0.59008604288101 0
vt 0.96703898906708 0.58868801593781 0
vt 0.96636998653412 0.59030801057816 0
vt 0.96639800071716 0.59035503864288 0
vt 0.96640300750732 0.59030103683472 0
vt 0.96676999330521 0.58094102144241 0
vt 0.97582197189331 0.57672303915024 0
vt 0.96148699522018 0.58176499605179 0
vt 0.96475100517273 0.58903801441193 0
vt 0.96615499258041 0.59021198749542 0
vt 0.9663479924202 0.59033399820328 0
vt 0.96421498060226 0.59031099081039 0
vt 0.96611601114273 0.59038501977921 0
vt 0.96634501218796 0.59036803245544 0
vt 0.95924699306488 0.58994299173355 0
vt 0.96463197469711 0.59167402982712 0
vt 0.9661899805069 0.59054601192474 0
vt 0.96636301279068 0.59039700031281 0
vt 0.95924699306488 0.59953302145004 0
vt 0.96587598323822 0.59221398830414 0
vt 0.96634298563004 0.59062802791595 0
vt 0.96639400720596 0.59040904045105 0
vt 0.96574902534485 0.59902203083038 0
vt 0.9743509888649 0.60210299491882 0
vt 0.96704000234604 0.59209102392197 0
vt 0.96651297807693 0.59060502052307 0
vt 0.96642601490021 0.59040200710297 0
vt 0.97078597545624 0.89969503879547 0
vt 0.97077798843384 0.89974999427795 0
vt 0.97090399265289 0.89980900287628 0
vt 0.97094202041626 0.89976799488068 0
vt 0.9708240032196 0.8996530175209 0
vt 0.97095102071762 0.89971303939819 0
vt 0.97087800502777 0.8996410369873 0
vt 0.97092700004578 0.89966398477554 0
vt 0.97506999969482 0.5947670340538 0
vt 0.96778798103333 0.59130901098251 0
vt 0.96663498878479 0.5904900431633 0
vt 0.96644800901413 0.59037601947784 0
vt 0.97080200910568 0.89979803562164 0
vt 0.97084999084473 0.89982098340988 0
vt 0.96543800830841 0.89253199100494 0
vt 0.96935498714447 0.89097601175308 0
vt 0.96938300132751 0.8898029923439 0
vt 0.96490997076035 0.89168399572372 0
vt 0.966668009758 0.59032702445984 0
vt 0.96645098924637 0.59034299850464 0
vt 0.96519500017166 0.90873700380325 0
vt 0.96232801675797 0.90207701921463 0
vt 0.96125000715256 0.90222501754761 0
vt 0.96455699205399 0.9094370007515 0
vt 0.96998202800751 0.91050601005554 0
vt 0.96968799829483 0.91145998239517 0
vt 0.96808302402496 0.59035801887512 0
vt 0.97605800628662 0.91063499450684 0
vt 0.97643399238586 0.91145998239517 0
vt 0.97692900896072 0.58967798948288 0
vt 0.97640097141266 0.89433300495148 0
vt 0.9771940112114 0.89345002174377 0
vt 0.98055100440979 0.90254497528076 0
vt 0.9794989824295 0.9067810177803 0
vt 0.98069798946381 0.90707898139954 0
vt 0.98153400421143 0.9023659825325 0
vt 0.96776098012924 0.58942604064941 0
vt 0.96660202741623 0.5901740193367 0
vt 0.96643400192261 0.59031403064728 0
vt 0.97581297159195 0.58490002155304 0
vt 0.96247899532318 0.89573299884796 0
vt 0.96147102117538 0.89530897140503 0
vt 0.97060400247574 0.89936900138855 0
vt 0.97044599056244 0.89959400892258 0
vt 0.97337502241135 0.89931297302246 0
vt 0.9726830124855 0.89783400297165 0
vt 0.97130101919174 0.89959901571274 0
vt 0.97113901376724 0.89936304092407 0
vt 0.97085398435593 0.90016502141953 0
vt 0.97111201286316 0.9000940322876 0
vt 0.97286999225616 0.90082001686096 0
vt 0.97128701210022 0.89988201856613 0
vt 0.97044897079468 0.89986300468445 0
vt 0.9706050157547 0.90007901191711 0
vt 0.97184199094772 0.9016979932785 0
vt 0.97086697816849 0.89927697181702 0
vt 0.97058302164078 0.90182900428772 0
vt 0.96936601400375 0.90137702226639 0
vt 0.96869498491287 0.90022200345993 0
vt 0.96871602535248 0.89884001016617 0
vt 0.96967202425003 0.89774799346924 0
vt 0.97114598751068 0.89714896678925 0
# 91 texture coordinates

o Corn_Sphere.018
usemtl VegetationMaterials
f 48/4/1 2/3/1 5/2/1 6/1/1
f 1/7/2 3/6/2 4/5/2
f 49/9/3 48/4/3 6/1/3 7/8/3
f 2/3/4 1/7/4 4/5/4 5/2/4
f 7/8/5 6/1/5 10/11/5 11/10/5
f 5/2/6 4/5/6 8/13/6 9/12/6
f 6/1/7 5/2/7 9/12/7 10/11/7
f 4/5/8 3/6/8 8/13/8
f 10/11/9 9/12/9 13/15/9 14/14/9
f 8/13/10 3/6/10 12/16/10
f 11/10/11 10/11/11 14/14/11 15/17/11
f 9/12/12 8/13/12 12/16/12 13/15/12
f 14/14/13 13/15/13 17/19/13 18/18/13
f 12/16/14 3/6/14 16/20/14
f 15/17/15 14/14/15 18/18/15 19/21/15
f 13/15/16 12/16/16 16/20/16 17/19/16
f 18/18/17 17/19/17 21/23/17 22/22/17
f 16/20/18 3/6/18 20/24/18
f 19/21/19 18/18/19 22/22/19 23/25/19
f 17/19/20 16/20/20 20/24/20 21/23/20
f 23/25/21 22/22/21 26/27/21 27/26/21
f 21/23/22 20/24/22 24/29/22 25/28/22
f 50/33/23 47/32/23 40/31/23 39/30/23
f 76/35/23 50/33/23 39/30/23 34/34/23
f 22/22/24 21/23/24 25/28/24 26/27/24
f 20/24/25 3/6/25 24/29/25
f 28/37/23 76/35/23 34/34/23 33/36/23
f 27/26/26 26/27/26 31/39/26 32/38/26
f 25/28/27 24/29/27 29/41/27 30/40/27
f 47/32/23 46/43/23 41/42/23 40/31/23
f 38/47/28 45/46/28 77/45/28 73/44/28
f 26/27/29 25/28/29 30/40/29 31/39/29
f 24/29/30 3/6/30 29/41/30
f 30/40/31 29/41/31 35/49/31 36/48/31
f 23/53/32 27/52/32 67/51/32 64/50/32
f 19/55/33 23/53/33 64/50/33 61/54/33
f 31/39/34 30/40/34 36/48/34 37/56/34
f 29/41/35 3/6/35 35/49/35
f 15/58/36 19/55/36 61/54/36 58/57/36
f 32/38/37 31/39/37 37/56/37 38/59/37
f 45/46/38 49/61/38 80/60/38 77/45/38
f 7/65/39 11/64/39 55/63/39 52/62/39
f 37/56/40 36/48/40 43/67/40 44/66/40
f 35/49/41 3/6/41 42/68/41
f 49/61/42 7/65/42 52/62/42 80/60/42
f 38/59/43 37/56/43 44/66/43 45/69/43
f 36/48/44 35/49/44 42/68/44 43/67/44
f 32/71/45 38/47/45 73/44/45 70/70/45
f 44/66/46 43/67/46 2/3/46 48/4/46
f 42/68/47 3/6/47 1/7/47
f 11/64/48 15/58/48 58/57/48 55/63/48
f 45/69/49 44/66/49 48/4/49 49/9/49
f 43/67/50 42/68/50 1/7/50 2/3/50
f 27/52/51 32/71/51 70/70/51 67/51/51
f 72/73/52 75/72/52 34/34/52 39/30/52
f 51/75/53 80/60/53 52/62/53 53/74/53
f 81/77/54 51/75/54 53/74/54 54/76/54
f 60/79/55 63/78/55 46/43/55 47/32/55
f 53/74/56 52/62/56 55/63/56 56/80/56
f 54/76/57 53/74/57 56/80/57 57/81/57
f 66/83/58 69/82/58 40/31/58 41/42/58
f 56/80/59 55/63/59 58/57/59 59/84/59
f 57/81/60 56/80/60 59/84/60 60/79/60
f 79/85/61 81/77/61 28/37/61 33/36/61
f 59/84/62 58/57/62 61/54/62 62/86/62
f 60/79/63 59/84/63 62/86/63 63/78/63
f 63/78/64 62/86/64 65/87/64 66/83/64
f 75/72/65 79/85/65 33/36/65 34/34/65
f 62/86/66 61/54/66 64/50/66 65/87/66
f 66/83/67 65/87/67 68/88/67 69/82/67
f 57/81/68 60/79/68 47/32/68 50/33/68
f 65/87/69 64/50/69 67/51/69 68/88/69
f 69/82/70 68/88/70 71/89/70 72/73/70
f 63/78/71 66/83/71 41/42/71 46/43/71
f 68/88/72 67/51/72 70/70/72 71/89/72
f 54/76/73 57/81/73 50/33/73 76/35/73
f 71/89/74 70/70/74 73/44/74 74/90/74
f 72/73/75 71/89/75 74/90/75 75/72/75
f 69/82/76 72/73/76 39/30/76 40/31/76
f 74/90/77 73/44/77 77/45/77 78/91/77
f 75/72/78 74/90/78 78/91/78 79/85/78
f 78/91/79 77/45/79 80/60/79 51/75/79
f 79/85/80 78/91/80 51/75/80 81/77/80
f 81/77/81 54/76/81 76/35/81 28/37/81

