# WaveFront *.obj file (generated by CINEMA 4D)

mtllib ./13.mtl

v 20 -0.41393542289734 -6.68127107620239
v 20.00008964538574 -0.21277146041393 -12.32574272155762
v 20.06249618530273 -0.37805017828941 -6.67757940292358
v 20.38271331787109 0.00741427810863 -12.30292797088623
v 20.06249618530273 -0.30626168847084 -6.67019462585449
v 20.38271331787109 0.44698143005371 -12.25771045684814
v 20 -0.27037644386292 -6.66650295257568
v 20 0.66671544313431 -12.23510646820068
v 19.93750381469727 -0.30626168847084 -6.67019462585449
v 19.61728668212891 0.44690936803818 -12.25771808624268
v 19.93750381469727 -0.37805017828941 -6.67757940292358
v 19.61728668212891 0.00734221935272 -12.30293560028076
v 20 -0.60737663507462 -12.12367725372314
v 20.70593643188477 -0.20188426971436 -12.08196449279785
v 20.70593643188477 0.60894739627838 -11.99855422973633
v 20 1.01426863670349 -11.95685863494873
v 19.29406356811523 0.6088302731514 -11.99856662750244
v 19.29406356811523 -0.20199236273766 -12.08197498321533
v 20.67477798461914 -0.30683988332748 -10.85807609558105
v 20.67477798461914 0.46820560097694 -10.77834796905518
v 20 0.85568332672119 -10.73848819732666
v 19.32522201538086 0.46814253926277 -10.77835464477539
v 19.32522201538086 -0.30691194534302 -10.85808372497559
v 20 -0.69441664218903 -10.89794635772705
v 20.54071998596191 -0.40065884590149 -9.15595531463623
v 20.54071998596191 0.22043320536613 -9.09206390380859
v 20 0.53098821640015 -9.0601167678833
v 19.45928001403809 0.22043320536613 -9.09206390380859
v 19.45928001403809 -0.40065884590149 -9.15595531463623
v 20 -0.71121388673782 -9.18790149688721
v 20.32568550109863 -0.42889618873596 -7.66820907592773
v 20.32568550109863 -0.05480339750648 -7.62972593307495
v 20 0.13225200772285 -7.61048364639282
v 19.67431449890137 -0.05480339750648 -7.62972593307495
v 19.67431449890137 -0.42889618873596 -7.66820907592773
v 20 -0.61595159769058 -7.68745136260986
v 20.66154861450195 1.58319890499115 -14.47304725646973
v 20.19715118408203 0.32413363456726 -12.2163143157959
v 20.64552116394043 1.55387949943542 -14.48508358001709
v 20.18112373352051 0.29481422901154 -12.22835063934326
v 20.55876731872559 1.64868915081024 -14.46239566802979
v 20.09436988830566 0.38962480425835 -12.20567226409912
v 20.54273986816406 1.61936986446381 -14.47443294525146
v 20.07834243774414 0.36030539870262 -12.21770858764648
v 20.94877815246582 1.16711807250977 -13.94824409484863
v 20.9327507019043 1.13779783248901 -13.96027183532715
v 20.14332008361816 1.64080929756165 -13.87849712371826
v 20.15934753417969 1.67012870311737 -13.8664608001709
v 20.58660125732422 1.5728645324707 -14.48540592193604
v 20.1274471282959 0.32336291670799 -12.22474956512451
v 20.60263824462891 1.60218381881714 -14.47336959838867
v 20.14347457885742 0.3526822924614 -12.21271324157715
v 20.466796875 1.2589852809906 -13.97287368774414
v 20.4500732421875 1.22839057445526 -13.98543262481689
v 20.55356979370117 0.66527891159058 -13.11238574981689
v 20.53623008728027 0.63356566429138 -13.12539768218994
v 20.05374145507812 0.94099164009094 -13.07542133331299
v 20.07108116149902 0.97270399332047 -13.06240081787109
v 20.27154731750488 0.74439525604248 -13.11801052093506
v 20.25420570373535 0.71268290281296 -13.13103103637695
v 19.74772262573242 0.28805950284004 -13.20949268341064
v 19.69831848144531 0.27464339137077 -13.20242595672607
v 19.68627548217773 -0.14879229664803 -13.21084785461426
v 19.73567962646484 -0.13537620007992 -13.21791553497314
v 19.52734565734863 0.64835971593857 -13.16780471801758
v 19.47794151306152 0.63494366407394 -13.16073799133301
v 19.49493789672852 0.28277271986008 -14.64274024963379
v 19.44728088378906 0.26982855796814 -14.63592529296875
v 19.9958610534668 0.15643793344498 -11.80858898162842
v 19.06139945983887 0.21341469883919 -15.3446626663208
v 20.04154396057129 0.16884432733059 -11.81513214111328
v 19.1070728302002 0.22582107782364 -15.35120582580566
v 19.36903762817383 -0.43888580799103 -14.64132499694824
v 19.41471099853516 -0.42648035287857 -14.64785861968994
v 19.07383155822754 0.85585069656372 -14.56586456298828
v 19.02815818786621 0.84344524145126 -14.55933094024658
v 20.05719947814941 0.083595469594 -11.81953239440918
v 19.10782432556152 0.13652069866657 -15.35347366333008
v 20.01152610778809 0.07118999958038 -11.81299877166748
v 19.0621509552002 0.12411430478096 -15.34693050384521
v 20.01282119750977 0.25055053830147 -11.80885696411133
v 19.06344604492188 0.30347576737404 -15.34279823303223
v 19.96714019775391 0.23814414441586 -11.80231380462646
v 19.01777267456055 0.29106938838959 -15.33625507354736
v 20.70117378234863 -0.36676481366158 -15.32737350463867
v 20.01172637939453 -0.01612349972129 -12.05863094329834
v 20.67436218261719 -0.33390972018242 -15.33094787597656
v 19.98491477966309 0.01672351919115 -12.06221580505371
v 20.81879615783691 -0.26842650771141 -15.31146812438965
v 20.12934875488281 0.08221572637558 -12.04273509979248
v 20.79199409484863 -0.23557049036026 -15.3150520324707
v 20.10254669189453 0.11506181955338 -12.04631042480469
v 20.23459434509277 -0.71929574012756 -14.61316013336182
v 20.20779037475586 -0.68644064664841 -14.61673545837402
v 21.11127662658691 0.06886603683233 -14.49457931518555
v 21.13808059692383 0.0360109359026 -14.49100494384766
v 20.72059631347656 -0.26932513713837 -15.32467746734619
v 20.03989601135254 0.07059191167355 -12.05477237701416
v 20.74739837646484 -0.30217123031616 -15.32110214233398
v 20.06670761108398 0.03773681074381 -12.05119705200195
v 20.54038619995117 -0.16277787089348 -14.57156848907471
v 20.51241493225098 -0.12850414216518 -14.57530689239502
v 20.03947830200195 -0.30807185173035 -13.34710597991943
v 20.01048469543457 -0.272546261549 -13.35097980499268
v 20.56267929077148 0.18908827006817 -13.27631950378418
v 20.59167289733887 0.1535536646843 -13.27244758605957
v 20.24736976623535 0.00632477272302 -13.31887817382812
v 20.21837615966797 0.04185037687421 -13.32275199890137
v 20.00007247924805 -0.08097070455551 -12.43461513519287
v 20.27889823913574 0.07948391884565 -12.41800022125244
v 20.27889823913574 0.39982092380524 -12.38504695892334
v 20 0.55994439125061 -12.36857509613037
v 19.72110939025879 0.39976686239243 -12.38505268096924
v 19.72110939025879 0.07943888008595 -12.41800498962402
# 114 vertices

vn 0.29998224973679 -0.43436193466187 -0.84931761026382
vn 0.59810328483582 0.08200888335705 -0.79721200466156
vn 0.29847255349159 0.59647446870804 -0.74507200717926
vn -0.2985702753067 0.5964480638504 -0.74505400657654
vn 0.76115924119949 0.06636740267277 -0.64516043663025
vn -0.59810328483582 0.08200888335705 -0.79721200466156
vn -0.29991301894188 -0.4343800842762 -0.8493327498436
vn 0 -0.1023295968771 0.99475055932999
vn -0.49979484081268 -0.86396789550781 -0.0613558255136
vn -0.99967801570892 -0.00259666983038 0.02524234540761
vn -0.49988996982574 0.85884863138199 0.11175423115492
vn 0.4997926056385 0.85890460014343 0.11175981163979
vn 0.99967801570892 -0.00259666983038 0.02524234540761
vn 0.4998787343502 -0.86391973495483 -0.06135141476989
vn 0.498409897089 -0.86689919233322 -0.00856633111835
vn 0.99691408872604 -0.00803293660283 0.07808852940798
vn 0.49848613142967 0.85111826658249 0.1646490842104
vn -0.49848613142967 0.85111826658249 0.1646490842104
vn -0.99691408872604 -0.00803293660283 0.07808852940798
vn -0.498409897089 -0.86689919233322 -0.00856633111835
vn -0.49479416012764 -0.86726707220078 0.05501418933272
vn -0.98964977264404 -0.01468466501683 0.14275027811527
vn -0.49479416012764 0.83790409564972 0.23042447865009
vn 0.49479416012764 0.83790409564972 0.23042447865009
vn 0.98964977264404 -0.01468466501683 0.14275027811527
vn 0.49479416012764 -0.86726707220078 0.05501418933272
vn 0.48289474844933 -0.85855174064636 0.17234130203724
vn 0.96580046415329 -0.02653267420828 0.25792530179024
vn 0.48289474844933 0.80548530817032 0.34352016448975
vn -0.48289474844933 0.80548530817032 0.34352016448975
vn -0.96580046415329 -0.02653267420828 0.25792530179024
vn -0.48289474844933 -0.85855174064636 0.17234130203724
vn -0.38060668110847 0.72211241722107 -0.57766097784042
vn 0.84399920701981 -0.51818150281906 0.13839557766914
vn -0.8899273276329 0.38835364580154 0.23918786644936
vn -0.74529176950455 -0.46995207667351 -0.47295370697975
vn -0.11000148206949 -0.32531720399857 0.93918496370316
vn -0.1356907337904 -0.8050245642662 -0.57751494646072
vn 0.27419343590736 0.86280661821365 0.42471489310265
vn -0.71930283308029 -0.59033054113388 -0.36621481180191
vn 0.85542899370193 -0.5083321928978 0.09919479489326
vn 0.11000148206949 0.32531720399857 -0.93918496370316
vn -0.88645476102829 0.37105602025986 0.27661421895027
vn 0.71890217065811 0.58926147222519 0.3687147796154
vn 0.74592792987823 0.4457103908062 0.49490785598755
vn -0.27450352907181 -0.86397552490234 -0.42213046550751
vn -0.67633897066116 0.56416249275208 -0.47358873486519
vn -0.74680411815643 -0.44319587945938 -0.49584370851517
vn 0.1616895198822 0.81978487968445 0.54937171936035
vn 0.74467158317566 0.47183901071548 0.47205102443695
vn -0.15968954563141 -0.81934303045273 -0.55061441659927
vn 0.13850358128548 0.80558377504349 0.57606554031372
vn 0.788942694664 -0.19167330861092 -0.58380717039108
vn -0.97952121496201 0.07581327855587 0.18652218580246
vn -0.71291100978851 -0.56144577264786 0.42016252875328
vn -0.29128769040108 0.78148531913757 -0.55175375938416
vn -0.80530118942261 -0.57138377428055 0.15814730525017
vn 0.14797212183475 -0.02392231114209 0.9887021780014
vn 0.80399072170258 0.57282292842865 -0.15960203111172
vn 0.27728563547134 -0.9517474770546 0.1314894258976
vn -0.14800268411636 0.02392219938338 -0.98869758844376
vn 0.11150245368481 -0.75255423784256 -0.64902180433273
vn 0.97906446456909 -0.0775259360671 -0.18820853531361
vn 0.85456925630569 0.4976786673069 -0.14841592311859
vn -0.8832785487175 0.08136976510286 0.46173369884491
vn 0.71090596914291 0.56298464536667 -0.42149844765663
vn -0.2272827476263 0.94986605644226 0.21470226347446
vn 0.88221919536591 -0.08352659642696 -0.46337094902992
vn -0.97583484649658 -0.01251375675201 0.21815088391304
vn -0.85407561063766 -0.49773341417313 0.15105067193508
vn -0.20069108903408 0.9185511469841 0.34056842327118
vn 0.97641402482986 0.01243466790766 -0.21554829180241
vn 0.27269181609154 -0.9581333398819 0.08729076385498
vn -0.14797212183475 0.02392231114209 -0.9887021780014
vn -0.77538722753525 -0.61927944421768 0.12356220930815
vn -0.41450801491737 0.90562576055527 -0.08958271145821
vn 0.72070825099945 0.62155348062515 0.3070031106472
vn 0.79959219694138 -0.58420133590698 0.13914419710636
vn 0.13328419625759 0.00082491897047 -0.99107754230499
vn -0.13328419625759 -0.00082491897047 0.99107754230499
vn 0.81808853149414 -0.4872128367424 0.30554014444351
vn 0.70799088478088 0.52642130851746 -0.47077542543411
vn -0.28688126802444 0.92676275968552 -0.24250760674477
vn -0.5657120347023 -0.53038704395294 -0.63139486312866
vn -0.81873989105225 0.48500400781631 -0.30730459094048
vn 0.28937929868698 -0.92633587121964 0.24116690456867
vn 0.41407144069672 -0.90557277202606 0.09210181981325
vn -0.80001658201218 0.58423721790314 -0.13652975857258
vn -0.81880348920822 0.50312983989716 -0.27644371986389
vn 0.31138363480568 -0.92607223987579 0.21314404904842
vn 0.81836026906967 -0.50469541549683 0.2748980820179
vn 0.73199528455734 0.62647074460983 0.26780089735985
vn -0.30947443842888 0.92639404535294 -0.21452176570892
vn -0.776511490345 -0.62458425760269 0.08321304619312
vn 0 0.10251612216234 -0.99473136663437
vn 0 0.1023295968771 -0.99475055932999
vn -0.76111751794815 0.06637240946293 -0.64520913362503
vn 0.38128954172134 -0.58873188495636 -0.71275037527084
vn 0.3804766535759 0.72211247682571 -0.57774657011032
vn -0.381079018116 -0.58883786201477 -0.712775349617
# 100 normals

vt 0.9605969786644 0.41461598873138 0
vt 0.98168802261353 0.41461598873138 0
vt 0.98168802261353 0.3935250043869 0
vt 0.9605969786644 0.3935250043869 0
vt 0.95685201883316 0.97900497913361 0
vt 0.97302901744843 0.97900497913361 0
vt 0.97302901744843 0.96282798051834 0
vt 0.95685201883316 0.96282798051834 0
# 8 texture coordinates

o Carrot_Cylinder.008
usemtl VegetationMaterials
f 13/4/1 2/3/1 4/2/1 14/1/1
f 14/4/2 4/3/2 6/2/2 15/1/2
f 15/4/3 6/3/3 8/2/3 16/1/3
f 16/4/4 8/3/4 10/2/4 17/1/4
f 6/4/5 4/3/5 110/2/5 111/1/5
f 17/4/6 10/3/6 12/2/6 18/1/6
f 18/4/7 12/3/7 2/2/7 13/1/7
f 11/4/8 5/3/8 7/2/8 9/1/8
f 23/4/9 18/3/9 13/2/9 24/1/9
f 22/4/10 17/3/10 18/2/10 23/1/10
f 21/4/11 16/3/11 17/2/11 22/1/11
f 20/4/12 15/3/12 16/2/12 21/1/12
f 19/4/13 14/3/13 15/2/13 20/1/13
f 24/4/14 13/3/14 14/2/14 19/1/14
f 30/4/15 24/3/15 19/2/15 25/1/15
f 25/4/16 19/3/16 20/2/16 26/1/16
f 26/4/17 20/3/17 21/2/17 27/1/17
f 27/4/18 21/3/18 22/2/18 28/1/18
f 28/4/19 22/3/19 23/2/19 29/1/19
f 29/4/20 23/3/20 24/2/20 30/1/20
f 35/4/21 29/3/21 30/2/21 36/1/21
f 34/4/22 28/3/22 29/2/22 35/1/22
f 33/4/23 27/3/23 28/2/23 34/1/23
f 32/4/24 26/3/24 27/2/24 33/1/24
f 31/4/25 25/3/25 26/2/25 32/1/25
f 36/4/26 30/3/26 25/2/26 31/1/26
f 1/4/27 36/3/27 31/2/27 3/1/27
f 3/4/28 31/3/28 32/2/28 5/1/28
f 5/4/29 32/3/29 33/2/29 7/1/29
f 7/4/30 33/3/30 34/2/30 9/1/30
f 9/4/31 34/3/31 35/2/31 11/1/31
f 11/4/32 35/3/32 36/2/32 1/1/32
f 10/4/33 8/3/33 112/2/33 113/1/33
f 1/4/8 3/3/8 5/2/8 11/1/8
f 55/8/34 38/7/34 40/6/34 56/5/34
f 47/8/35 57/7/35 58/6/35 48/5/35
f 54/8/36 60/7/36 57/6/36 47/5/36
f 50/8/37 40/7/37 38/6/37 52/5/37
f 39/8/38 46/7/38 54/6/38 49/5/38
f 59/8/39 52/7/39 38/6/39 55/5/39
f 60/8/40 50/7/40 44/6/40 57/5/40
f 45/8/41 55/7/41 56/6/41 46/5/41
f 39/8/42 49/7/42 51/6/42 37/5/42
f 57/8/43 44/7/43 42/6/43 58/5/43
f 58/8/44 42/7/44 52/6/44 59/5/44
f 41/8/45 48/7/45 53/6/45 51/5/45
f 56/8/46 40/7/46 50/6/46 60/5/46
f 49/8/42 43/7/42 41/6/42 51/5/42
f 43/8/47 47/7/47 48/6/47 41/5/47
f 49/8/48 54/7/48 47/6/48 43/5/48
f 53/8/49 59/7/49 55/6/49 45/5/49
f 48/8/50 58/7/50 59/6/50 53/5/50
f 46/8/51 56/7/51 60/6/51 54/5/51
f 51/8/52 53/7/52 45/6/52 37/5/52
f 37/8/53 45/7/53 46/6/53 39/5/53
f 44/8/37 50/7/37 52/6/37 42/5/37
f 73/8/54 63/7/54 62/6/54 68/5/54
f 70/8/55 68/7/55 76/6/55 84/5/55
f 84/8/56 76/7/56 75/6/56 82/5/56
f 68/8/57 62/7/57 66/6/57 76/5/57
f 77/8/58 71/7/58 69/6/58 79/5/58
f 75/8/59 65/7/59 61/6/59 67/5/59
f 74/8/60 64/7/60 63/6/60 73/5/60
f 82/8/61 72/7/61 70/6/61 84/5/61
f 78/8/62 74/7/62 73/6/62 80/5/62
f 67/8/63 61/7/63 64/6/63 74/5/63
f 65/8/64 81/7/64 71/6/64 61/5/64
f 80/8/65 73/7/65 68/6/65 70/5/65
f 82/8/66 75/7/66 67/6/66 72/5/66
f 76/8/67 66/7/67 65/6/67 75/5/67
f 72/8/68 67/7/68 74/6/68 78/5/68
f 63/8/69 79/7/69 69/6/69 62/5/69
f 62/8/70 69/7/70 83/6/70 66/5/70
f 66/8/71 83/7/71 81/6/71 65/5/71
f 71/8/58 81/7/58 83/6/58 69/5/58
f 61/8/72 71/7/72 77/6/72 64/5/72
f 64/8/73 77/7/73 79/6/73 63/5/73
f 72/8/74 78/7/74 80/6/74 70/5/74
f 103/8/75 86/7/75 88/6/75 104/5/75
f 108/8/76 98/7/76 92/6/76 105/5/76
f 105/8/77 92/7/77 90/6/77 106/5/77
f 107/8/78 100/7/78 86/6/78 103/5/78
f 97/8/79 91/7/79 89/6/79 99/5/79
f 98/8/80 88/7/80 86/6/80 100/5/80
f 99/8/81 101/7/81 93/6/81 85/5/81
f 91/8/82 95/7/82 96/6/82 89/5/82
f 97/8/83 102/7/83 95/6/83 91/5/83
f 85/8/84 93/7/84 94/6/84 87/5/84
f 87/8/85 94/7/85 102/6/85 97/5/85
f 89/8/86 96/7/86 101/6/86 99/5/86
f 92/8/80 98/7/80 100/6/80 90/5/80
f 87/8/79 97/7/79 99/6/79 85/5/79
f 106/8/87 90/7/87 100/6/87 107/5/87
f 104/8/88 88/7/88 98/6/88 108/5/88
f 94/8/89 104/7/89 108/6/89 102/5/89
f 96/8/90 106/7/90 107/6/90 101/5/90
f 101/8/91 107/7/91 103/6/91 93/5/91
f 95/8/92 105/7/92 106/6/92 96/5/92
f 102/8/93 108/7/93 105/6/93 95/5/93
f 93/8/94 103/7/94 104/6/94 94/5/94
f 110/4/95 109/3/95 114/2/95 113/1/95
f 111/4/96 110/3/96 113/2/96 112/1/96
f 12/4/97 10/3/97 113/2/97 114/1/97
f 4/4/98 2/3/98 109/2/98 110/1/98
f 8/4/99 6/3/99 111/2/99 112/1/99
f 2/4/100 12/3/100 114/2/100 109/1/100

