# WaveFront *.obj file (generated by CINEMA 4D)

mtllib ./14.mtl

v 20 3.66781139373779 -20.95096969604492
v 20 3.14274644851685 -21.8774471282959
v 20 3.90470504760742 -20
v 20.5589656829834 3.66781139373779 -20.76934814453125
v 21.10353469848633 3.14274644851685 -21.51888275146484
v 21.33513259887695 2.32453918457031 -21.83765983581543
v 20.90442848205566 3.66781139373779 -20.29386711120605
v 21.78555679321289 3.14274644851685 -20.58016395568848
v 22.22654724121094 2.17987871170044 -20.72344779968262
v 20.90442848205566 3.66781139373779 -19.70613288879395
v 21.78555679321289 3.14274644851685 -19.41983604431152
v 22.07989501953125 2.61721992492676 -19.33145141601562
v 20.5589656829834 3.66781139373779 -19.23065185546875
v 21.10353469848633 3.14274644851685 -18.48111724853516
v 21.3760871887207 2.17987871170044 -18.10598373413086
v 20 3.66781139373779 -19.04903030395508
v 20 3.14274644851685 -18.1225528717041
v 20.01016044616699 2.78548645973206 -17.84357261657715
v 19.4410343170166 3.66781139373779 -19.23065185546875
v 18.89646530151367 3.14274644851685 -18.48111724853516
v 18.6239128112793 2.17987871170044 -18.10598373413086
v 19.09557151794434 3.66781139373779 -19.70613288879395
v 18.21444320678711 3.14274644851685 -19.41983604431152
v 18.09393119812012 2.87338209152222 -19.4587459564209
v 19.09557151794434 3.66781139373779 -20.29386711120605
v 18.21444320678711 3.14274644851685 -20.58016395568848
v 17.77345275878906 2.17987871170044 -20.72344779968262
v 19.4410343170166 3.66781139373779 -20.76934814453125
v 18.89646530151367 3.14274644851685 -21.51888275146484
v 18.66486740112305 2.32453918457031 -21.83765983581543
v 20.16246223449707 2.7963342666626 -22.08169746398926
v 19.96497535705566 0.13482671976089 -22.03947448730469
v 21.47496604919434 2.3969419002533 -22.03012084960938
v 21.48666572570801 1.15651512145996 -22.13082885742188
v 21.21457481384277 0.0695773139596 -21.6285457611084
v 20.63559722900391 -0.57923144102097 -20.9585132598877
v 22.45974731445312 2.24549031257629 -20.79921913146973
v 22.46331405639648 1.15911388397217 -20.81576156616211
v 21.97255897521973 0.11841929703951 -20.64092254638672
v 21.10953903198242 -0.51928818225861 -20.37796020507812
v 22.30614852905273 2.68962264060974 -19.2579345703125
v 22.45974731445312 1.12655258178711 -19.20078086853027
v 21.96005439758301 0.03701599687338 -19.42433738708496
v 21.10211372375488 -0.46275860071182 -19.65545272827148
v 21.52020454406738 2.24549031257629 -17.90761756896973
v 21.53449249267578 1.25678873062134 -17.97377395629883
v 21.12063980102539 0.02171326242387 -18.41081619262695
v 20.67655372619629 -0.57923144102097 -19.06880569458008
v 20.01016044616699 2.8394718170166 -17.66619682312012
v 20.06630897521973 1.35426449775696 -17.38468170166016
v 19.87595748901367 0.16717071831226 -18.00850677490234
v 20 -0.5965262055397 -18.84897994995117
v 18.47979545593262 2.24549031257629 -17.90761756896973
v 18.47994041442871 1.17534923553467 -17.90109062194824
v 18.78951835632324 0.03783093392849 -18.33481788635254
v 19.32344627380371 -0.57923144102097 -19.06880569458008
v 17.86767768859863 2.94579410552979 -19.3852367401123
v 17.54867362976074 1.59657287597656 -19.24959564208984
v 18.02744102478027 0.11841929703951 -19.35907745361328
v 18.90531158447266 -0.57923144102097 -19.64431571960449
v 17.54025268554688 2.24549031257629 -20.79921913146973
v 17.54025268554688 1.12655258178711 -20.79921913146973
v 18.09890174865723 0.08618395030499 -20.60013961791992
v 18.90531158447266 -0.51168209314346 -20.35568428039551
v 18.52503395080566 2.3969419002533 -22.03012084960938
v 18.45714950561523 1.23482167720795 -21.98761749267578
v 18.78170394897461 0.03637309744954 -21.67715263366699
v 19.32344627380371 -0.51002502441406 -20.93119430541992
v 20.16246223449707 2.86194586753845 -22.32689476013184
v 20.04022216796875 1.38887214660645 -22.51834106445312
v 20 -0.57923144102097 -21.15102767944336
# 71 vertices

vn 0.15819188952446 0.85905516147614 -0.48682603240013
vn 0.31588661670685 0.47558000683784 -0.82099896669388
vn 0.07828329503536 0.96736896038055 -0.24097503721714
vn 0.41410350799561 0.85905146598816 -0.30091333389282
vn 0.73552042245865 0.41641780734062 -0.53442108631134
vn 0.20497593283653 0.96737766265869 -0.14888021349907
vn 0.51191067695618 0.85903865098953 0
vn 0.89593291282654 0.44351318478584 -0.0245007276535
vn 0.25338098406792 0.96736657619476 0
vn 0.71256530284882 0.44127106666565 0.54546356201172
vn 0.20497593283653 0.96737766265869 0.14888021349907
vn 0.41410350799561 0.85905146598816 0.30091333389282
vn 0.32238301634789 0.47479304671288 0.81892657279968
vn 0.07828329503536 0.96736896038055 0.24097503721714
vn 0.15819188952446 0.85905516147614 0.48682603240013
vn -0.31960389018059 0.47092118859291 0.82224482297897
vn -0.07828329503536 0.96736896038055 0.24097503721714
vn -0.15819188952446 0.85905516147614 0.48682603240013
vn -0.41410350799561 0.85905146598816 0.30091333389282
vn -0.76249706745148 0.38510802388191 0.51989430189133
vn -0.20497593283653 0.96737766265869 0.14888021349907
vn 0.013094143942 -0.99990510940552 -0.00428137881681
vn -0.51191067695618 0.85903865098953 0
vn 0.4802913069725 0.84808027744293 0.22378592193127
vn -0.29187831282616 0.87338483333588 -0.3898794054985
vn -0.91005671024323 0.41448032855988 0.00168754719198
vn -0.25338098406792 0.96736657619476 0
vn -0.41410350799561 0.85905146598816 -0.30091333389282
vn 0.25791066884995 0.89473402500153 0.36459997296333
vn -0.16869258880615 0.95205998420715 0.25519520044327
vn -0.73552042245865 0.41641780734062 -0.53442108631134
vn -0.20497593283653 0.96737766265869 -0.14888021349907
vn -0.21097664535046 0.91087782382965 0.35466951131821
vn 0.25238090753555 0.83201950788498 -0.49401155114174
vn 0.29519659280777 0.87190186977386 -0.39069953560829
vn -0.27556738257408 0.91248494386673 -0.30238035321236
vn -0.27557194232941 0.40738898515701 -0.87068611383438
vn -0.07828329503536 0.96736896038055 -0.24097503721714
vn 0.16869258880615 0.95205998420715 0.25519520044327
vn -0.39979556202888 0.91300141811371 0.08119040727615
vn -0.15819188952446 0.85905516147614 -0.48682603240013
vn 0.26169416308403 0.0927836149931 -0.96068066358566
vn 0.21828426420689 -0.40456807613373 -0.888074696064
vn 0.16997146606445 -0.7704810500145 -0.61438477039337
vn 0.4972040951252 -0.80030792951584 -0.33510491251945
vn 0.79268032312393 0.03587608784437 -0.60858100652695
vn 0.72539085149765 -0.43088442087173 -0.53679299354553
vn 0.9973326921463 0.05978246033192 0.04187585040927
vn 0.90680485963821 -0.42138597369194 -0.01178155653179
vn 0.55129206180573 -0.83429753780365 -0.00496884668246
vn 0.69611203670502 -0.43569898605347 0.57060879468918
vn 0.48007971048355 -0.81987315416336 0.31197991967201
vn 0.82898509502411 0.05259478464723 0.55679219961166
vn 0.00196879939176 -0.99858754873276 -0.05309507995844
vn 0.27269032597542 -0.4422233402729 0.85444629192352
vn 0.15928383171558 -0.74660581350327 0.64591670036316
vn 0.28707084059715 0.09119014441967 0.95355898141861
vn -0.14237749576569 -0.77291977405548 0.6183232665062
vn -0.25900173187256 0.102594435215 0.96041268110275
vn -0.06378319859505 -0.99774932861328 -0.02068813331425
vn -0.23028792440891 -0.41269946098328 0.88127553462982
vn -0.50369620323181 -0.79779505729675 0.33138072490692
vn -0.84408748149872 0.14159794151783 0.51717150211334
vn 0.1925044208765 -0.98111635446548 0.0187816824764
vn -0.79730039834976 -0.3433832526207 0.49638691544533
vn -0.60979914665222 -0.79171067476273 -0.03659482300282
vn -0.98952263593674 0.13119050860405 0.06028262898326
vn -0.9241988658905 -0.37897342443466 0.0472818352282
vn -0.73900437355042 -0.41268992424011 -0.53250312805176
vn -0.48169761896133 -0.82451736927032 -0.2968812584877
vn -0.78679287433624 0.01187517493963 -0.61710286140442
vn -0.26451069116592 -0.3197004199028 -0.90984928607941
vn -0.16428488492966 -0.80829912424088 -0.5653874874115
vn -0.26137852668762 0.07328224182129 -0.96245050430298
# 74 normals

vt 0.97111201286316 0.09854400157928 0
vt 0.96922898292542 0.09580600261688 0
vt 0.96752202510834 0.09638106822968 0
vt 0.96741199493408 0.09970998764038 0
vt 0.9732980132103 0.10123300552368 0
vt 0.96790897846222 0.10133302211761 0
vt 0.96749299764633 0.09347105026245 0
vt 0.97342997789383 0.09548401832581 0
vt 0.9702730178833 0.09434199333191 0
vt 0.97713601589203 0.09676897525787 0
vt 0.97343802452087 0.09163200855255 0
vt 0.97025799751282 0.09254598617554 0
vt 0.97573798894882 0.09095597267151 0
vt 0.97367602586746 0.08530807495117 0
vt 0.97127097845078 0.08842897415161 0
vt 0.96918702125549 0.09108603000641 0
vt 0.96757799386978 0.08535599708557 0
vt 0.9675350189209 0.08714699745178 0
vt 0.96745699644089 0.09054398536682 0
vt 0.96149498224258 0.08530807495117 0
vt 0.96380800008774 0.08837306499481 0
vt 0.9657409787178 0.0911340713501 0
vt 0.9615889787674 0.09151601791382 0
vt 0.9647079706192 0.09261298179626 0
vt 0.9604520201683 0.09139108657837 0
vt 0.96836197376251 0.02886402606964 0
vt 0.96893501281738 0.02924907207489 0
vt 0.97037202119827 0.02816200256348 0
vt 0.97016900777817 0.02754306793213 0
vt 0.96154499053955 0.09539806842804 0
vt 0.96474099159241 0.0944139957428 0
vt 0.96274697780609 0.02826106548309 0
vt 0.96332997083664 0.02371597290039 0
vt 0.96272200345993 0.02325201034546 0
vt 0.96187502145767 0.02827203273773 0
vt 0.96362000703812 0.03243601322174 0
vt 0.96320199966431 0.03275799751282 0
vt 0.95789897441864 0.09661102294922 0
vt 0.96380001306534 0.09844601154327 0
vt 0.96581298112869 0.09584307670593 0
vt 0.97510701417923 0.02438199520111 0
vt 0.97574001550674 0.02783298492432 0
vt 0.9764249920845 0.02788400650024 0
vt 0.97575497627258 0.02400100231171 0
vt 0.97445100545883 0.03181600570679 0
vt 0.97514498233795 0.03227305412292 0
vt 0.96162897348404 0.1010490655899 0
vt 0.97157198190689 0.02209806442261 0
vt 0.97182101011276 0.02135503292084 0
vt 0.96718698740006 0.02199506759644 0
vt 0.96698498725891 0.02113902568817 0
vt 0.96737402677536 0.03431904315948 0
vt 0.96714502573013 0.0351619720459 0
vt 0.97150498628616 0.03451502323151 0
vt 0.97174000740051 0.0351619720459 0
vt 0.97308301925659 0.02802908420563 0
vt 0.97261399030685 0.02580106258392 0
vt 0.97149002552032 0.0282210111618 0
vt 0.97109401226044 0.02678000926971 0
vt 0.97021597623825 0.02886807918549 0
vt 0.9711189866066 0.02954697608948 0
vt 0.97240197658539 0.03034603595734 0
vt 0.97048997879028 0.03177905082703 0
vt 0.97002202272415 0.03022408485413 0
vt 0.9696409702301 0.02928698062897 0
vt 0.96862298250198 0.03021800518036 0
vt 0.9681059718132 0.03201699256897 0
vt 0.96832299232483 0.02753102779388 0
vt 0.96812301874161 0.02820408344269 0
vt 0.96961498260498 0.02710103988647 0
vt 0.96889597177506 0.02710998058319 0
vt 0.96728599071503 0.02946197986603 0
vt 0.96596199274063 0.03075206279755 0
vt 0.96702599525452 0.02818608283997 0
vt 0.96533197164536 0.02821207046509 0
vt 0.96732801198959 0.02680599689484 0
vt 0.96558302640915 0.02546608448029 0
vt 0.96855300664902 0.02606308460236 0
vt 0.96802097558975 0.02454507350922 0
vt 0.96994000673294 0.02608907222748 0
vt 0.97039300203323 0.02437901496887 0
# 81 texture coordinates

o Cabbage_Sphere.019
usemtl VegetationMaterials
f 2/4/1 1/3/1 4/2/1 5/1/1
f 31/6/2 2/4/2 5/1/2 6/5/2
f 1/3/3 3/7/3 4/2/3
f 5/1/4 4/2/4 7/9/4 8/8/4
f 6/5/5 5/1/5 8/8/5 9/10/5
f 4/2/6 3/7/6 7/9/6
f 8/8/7 7/9/7 10/12/7 11/11/7
f 9/10/8 8/8/8 11/11/8 12/13/8
f 7/9/9 3/7/9 10/12/9
f 12/13/10 11/11/10 14/15/10 15/14/10
f 10/12/11 3/7/11 13/16/11
f 11/11/12 10/12/12 13/16/12 14/15/12
f 15/14/13 14/15/13 17/18/13 18/17/13
f 13/16/14 3/7/14 16/19/14
f 14/15/15 13/16/15 16/19/15 17/18/15
f 18/17/16 17/18/16 20/21/16 21/20/16
f 16/19/17 3/7/17 19/22/17
f 17/18/18 16/19/18 19/22/18 20/21/18
f 20/21/19 19/22/19 22/24/19 23/23/19
f 21/20/20 20/21/20 23/23/20 24/25/20
f 19/22/21 3/7/21 22/24/21
f 71/29/22 36/28/22 48/27/22 52/26/22
f 23/23/23 22/24/23 25/31/23 26/30/23
f 21/35/24 24/34/24 57/33/24 53/32/24
f 18/37/25 21/35/25 53/32/25 49/36/25
f 24/25/26 23/23/26 26/30/26 27/38/26
f 22/24/27 3/7/27 25/31/27
f 26/30/28 25/31/28 28/40/28 29/39/28
f 31/44/29 6/43/29 33/42/29 69/41/29
f 6/43/30 9/46/30 37/45/30 33/42/30
f 27/38/31 26/30/31 29/39/31 30/47/31
f 25/31/32 3/7/32 28/40/32
f 30/49/33 31/44/33 69/41/33 65/48/33
f 24/34/34 27/51/34 61/50/34 57/33/34
f 15/53/35 18/37/35 49/36/35 45/52/35
f 9/46/36 12/55/36 41/54/36 37/45/36
f 30/47/37 29/39/37 2/4/37 31/6/37
f 28/40/38 3/7/38 1/3/38
f 27/51/39 30/49/39 65/48/39 61/50/39
f 12/55/40 15/53/40 45/52/40 41/54/40
f 29/39/41 28/40/41 1/3/41 2/4/41
f 70/57/42 69/41/42 33/42/42 34/56/42
f 32/59/43 70/57/43 34/56/43 35/58/43
f 71/29/44 32/59/44 35/58/44 36/28/44
f 36/28/45 35/58/45 39/61/45 40/60/45
f 34/56/46 33/42/46 37/45/46 38/62/46
f 35/58/47 34/56/47 38/62/47 39/61/47
f 38/62/48 37/45/48 41/54/48 42/63/48
f 39/61/49 38/62/49 42/63/49 43/64/49
f 40/60/50 39/61/50 43/64/50 44/65/50
f 43/64/51 42/63/51 46/67/51 47/66/51
f 44/65/52 43/64/52 47/66/52 48/27/52
f 42/63/53 41/54/53 45/52/53 46/67/53
f 64/71/54 68/70/54 56/69/54 60/68/54
f 47/66/55 46/67/55 50/73/55 51/72/55
f 48/27/56 47/66/56 51/72/56 52/26/56
f 46/67/57 45/52/57 49/36/57 50/73/57
f 52/26/58 51/72/58 55/74/58 56/69/58
f 50/73/59 49/36/59 53/32/59 54/75/59
f 68/70/60 71/29/60 52/26/60 56/69/60
f 51/72/61 50/73/61 54/75/61 55/74/61
f 56/69/62 55/74/62 59/76/62 60/68/62
f 54/75/63 53/32/63 57/33/63 58/77/63
f 48/27/64 36/28/64 40/60/64 44/65/64
f 55/74/65 54/75/65 58/77/65 59/76/65
f 60/68/66 59/76/66 63/78/66 64/71/66
f 58/77/67 57/33/67 61/50/67 62/79/67
f 59/76/68 58/77/68 62/79/68 63/78/68
f 63/78/69 62/79/69 66/81/69 67/80/69
f 64/71/70 63/78/70 67/80/70 68/70/70
f 62/79/71 61/50/71 65/48/71 66/81/71
f 67/80/72 66/81/72 70/57/72 32/59/72
f 68/70/73 67/80/73 32/59/73 71/29/73
f 66/81/74 65/48/74 69/41/74 70/57/74

