# WaveFront *.obj file (generated by CINEMA 4D)

mtllib ./17.mtl

v 0 -0.20849347114563 9.31447410583496
v 0.14560234546661 1.22212195396423 9.85738563537598
v 0.55406761169434 0.10676094889641 9.44593238830566
v 0.48474350571632 -0.20849347114563 9.51525688171387
v -0.02302653901279 -0.53709477186203 9.88331890106201
v 0.20443184673786 1.22212195396423 9.99940204620361
v 0.78356337547302 0.10676094889641 10
v 0.68552625179291 -0.20849347114563 10
v -0.04837112501264 -0.53709477186203 9.94448471069336
v 0.14560234546661 1.22212195396423 10.14142799377441
v 0.55406761169434 0.10676094889641 10.55406761169434
v 0.48474350571632 -0.20849347114563 10.48474311828613
v -0.02302653901279 -0.53709477186203 10.00565910339355
v 0.00357667449862 1.22212195396423 10.20025730133057
v 0 0.10676094889641 10.7835636138916
v 0 -0.20849347114563 10.68552589416504
v 0.0381391197443 -0.53709477186203 10.0309944152832
v 0.00358572928235 1.32215118408203 9.99940204620361
v -0.13843993842602 1.22212195396423 10.14142799377441
v -0.55406761169434 0.10676094889641 10.55406761169434
v -0.48474350571632 -0.20849347114563 10.48474311828613
v 0.09930478036404 -0.53709477186203 10.00565910339355
v -0.19726943969727 1.22212195396423 9.99940204620361
v -0.78356337547302 0.10676094889641 10
v -0.68552625179291 -0.20849347114563 10
v 0.1246403157711 -0.53709477186203 9.94448471069336
v -0.13843993842602 1.22212195396423 9.85738563537598
v -0.55406761169434 0.10676094889641 9.44593238830566
v -0.48474350571632 -0.20849347114563 9.51525688171387
v 0.09930478036404 -0.53709477186203 9.88331890106201
v 0.04031229019165 -0.58418917655945 9.93675136566162
v 0.00357667449862 1.22212195396423 9.79855632781982
v 0 0.10676094889641 9.2164363861084
v 0.01579169742763 -0.44870111346245 9.55682754516602
v 0.00448216171935 1.30860507488251 9.95415496826172
v 0.04066542908549 1.55259764194489 9.92800426483154
v 0.04093707725406 1.30860507488251 10.01729488372803
v 0.0997665822506 1.55259764194489 10.03037929534912
v -0.03197275474668 1.30860507488251 10.01729488372803
v -0.01843571849167 1.55259764194489 10.03037929534912
v 0.2894027531147 -0.44870111346245 9.67016696929932
v 0.40274259448051 -0.44870111346245 9.9437780380249
v 0.2894027531147 -0.44870111346245 10.21739864349365
v 0.01579169742763 -0.44870111346245 10.33072948455811
v -0.25782841444016 -0.44870111346245 10.21739864349365
v -0.37115919589996 -0.44870111346245 9.9437780380249
v -0.25782841444016 -0.44870111346245 9.67016696929932
v 0.0381391197443 -0.53709477186203 9.85798358917236
v 0.48841980099678 0.39723217487335 9.5123405456543
v 0.69035249948502 0.39723217487335 9.99984645843506
v 0.48841980099678 0.39723217487335 10.48736000061035
v 0.00091454206267 0.39723217487335 10.68929290771484
v -0.48659977316856 0.39723217487335 10.48736000061035
v -0.6885324716568 0.39723217487335 9.99984645843506
v -0.48659977316856 0.39723217487335 9.5123405456543
v 0.00091454206267 0.39723217487335 9.3104076385498
v 0.31416782736778 0.70301520824432 9.68758869171143
v 0.44342613220215 0.70301520824432 9.99964714050293
v 0.31416782736778 0.70301520824432 10.31170463562012
v 0.00210978509858 0.70301520824432 10.44096279144287
v -0.30994826555252 0.70301520824432 10.31170463562012
v -0.43920657038689 0.70301520824432 9.99964714050293
v -0.30994826555252 0.70301520824432 9.68758869171143
v 0.00210978509858 0.70301520824432 9.55833053588867
v 0.28476667404175 0.89699774980545 9.71762371063232
v 0.40153831243515 0.89699774980545 9.99952030181885
v 0.28476667404175 0.89699774980545 10.28142547607422
v 0.00287039438263 0.89699774980545 10.3981876373291
v -0.27903494238853 0.89699774980545 10.28142547607422
v -0.39579752087593 0.89699774980545 9.99952030181885
v -0.27903494238853 0.89699774980545 9.71762371063232
v 0.00287039438263 0.89699774980545 9.60086154937744
v 0.24525120854378 1.05955982208252 9.75743770599365
v 0.34550675749779 1.05955982208252 9.99946594238281
v 0.24525120854378 1.05955982208252 10.24149322509766
v 0.00322353444062 1.05955982208252 10.34174919128418
v -0.23880414664745 1.05955982208252 10.24149322509766
v -0.3390506207943 1.05955982208252 9.99946594238281
v -0.23880414664745 1.05955982208252 9.75743770599365
v 0.00322353444062 1.05955982208252 9.65718269348145
v 0.39142400026321 0.55012369155884 9.60983467102051
v 0.5529357790947 0.55012369155884 9.99974632263184
v 0.39142400026321 0.55012369155884 10.38966751098633
v 0.00151216366794 0.55012369155884 10.55117034912109
v -0.38839969038963 0.55012369155884 10.38966751098633
v -0.54991143941879 0.55012369155884 9.99974632263184
v -0.38839969038963 0.55012369155884 9.60983467102051
v 0.00151216366794 0.55012369155884 9.44832324981689
# 88 vertices

vn -0.20619411766529 -0.84237080812454 -0.49789097905159
vn 0.36776188015938 -0.27616518735886 -0.8879662156105
vn 0.18159724771976 0.88023573160172 -0.43841472268105
vn 0.283501714468 -0.67181652784348 -0.68431669473648
vn 0.29841741919518 0.62592965364456 -0.72052699327469
vn 0.65391397476196 -0.70641458034515 -0.27087819576263
vn 0.72086995840073 0.62546020746231 -0.29857334494591
vn 0.20960463583469 -0.83669978380203 -0.50596380233765
vn 0.88798558712006 -0.27606773376465 -0.36778822541237
vn 0.43841472268105 0.88023573160172 -0.18159724771976
vn 0.59810984134674 -0.76214551925659 0.24778790771961
vn 0.72076851129532 0.62557858228683 0.29857018589973
vn -0.44817450642586 -0.87447315454483 0.18557007610798
vn 0.88798558712006 -0.27606773376465 0.36778822541237
vn 0.43841472268105 0.88023573160172 0.18159724771976
vn 0.2288808375597 -0.80133295059204 0.55270159244537
vn 0.29829305410385 0.62627482414246 0.72027850151062
vn 0.18337847292423 -0.87767285108566 0.44278964400291
vn 0.36776188015938 -0.27616518735886 0.8879662156105
vn 0.18159724771976 0.88023573160172 0.43841472268105
vn -0.2235055565834 -0.811707675457 0.53960716724396
vn -0.29806938767433 0.62707698345184 0.71967285871506
vn 0.49147740006447 -0.84676492214203 -0.20356607437134
vn -0.36776188015938 -0.27616518735886 0.8879662156105
vn -0.18159724771976 0.88023573160172 0.43841472268105
vn -0.56369853019714 -0.7922967672348 0.23347333073616
vn -0.71932303905487 0.62750917673111 0.29800435900688
vn -0.47319307923317 -0.85888510942459 -0.19597105681896
vn -0.88798558712006 -0.27606773376465 0.36778822541237
vn -0.43841472268105 0.88023573160172 0.18159724771976
vn -0.61548328399658 -0.7457988858223 -0.25488102436066
vn -0.71941059827805 0.6274099946022 -0.29800179600716
vn 0.46488544344902 -0.86417561769485 0.19256682693958
vn -0.88798558712006 -0.27606773376465 -0.36778822541237
vn -0.43841472268105 0.88023573160172 -0.18159724771976
vn -0.276382625103 -0.69151908159256 -0.66739344596863
vn -0.29819387197495 0.62673217058182 -0.71992164850235
vn -0.18068961799145 -0.88147914409637 0.43628638982773
vn -0.36776188015938 -0.27616518735886 -0.8879662156105
vn -0.18159724771976 0.88023573160172 -0.43841472268105
vn 0.85202115774155 -0.17909818887711 -0.49191847443581
vn 0 -0.05346912145615 0.99856948852539
vn 0 1 0
vn -0.86361354589462 0.07459546625614 -0.49860519170761
vn 0.30028685927391 -0.94570505619049 -0.12437731772661
vn 0.11968810856342 -0.94981729984283 0.28900146484375
vn -0.26278531551361 -0.95870232582092 0.10878293216228
vn -0.11269016563892 -0.95564764738083 -0.2721001803875
vn 0.30078676342964 -0.94551742076874 0.12459603697062
vn -0.11319107562304 -0.95524889230728 0.27328985929489
vn -0.26229098439217 -0.9588480591774 -0.10869152843952
vn 0.11919111013412 -0.95024752616882 -0.28778997063637
vn -0.36650627851486 0.28737992048264 -0.88492143154144
vn -0.88442140817642 0.28919243812561 -0.36628749966621
vn -0.88431417942047 0.28951078653336 0.36629486083984
vn -0.36638352274895 0.28828796744347 0.88467687368393
vn 0.36670219898224 0.28619894385338 0.88522297143936
vn 0.88571774959564 0.28438472747803 0.36691880226135
vn 0.88582563400269 0.28409793972969 -0.36688044667244
vn 0.36678698658943 0.28528571128845 -0.88548254966736
vn -0.31847766041756 0.55445301532745 -0.76886528730392
vn -0.76798540353775 0.5558870434761 -0.31810063123703
vn -0.76779794692993 0.55619955062866 0.31800690293312
vn -0.31831523776054 0.55512976646423 0.76844412088394
vn 0.31869539618492 0.55341994762421 0.76951909065247
vn 0.77039504051208 0.55198311805725 0.31907078623772
vn 0.77058106660843 0.55166947841644 -0.31916391849518
vn 0.31891345977783 0.55273127555847 -0.76992362737656
vn -0.37501135468483 0.19988104701042 -0.90521490573883
vn -0.9047948718071 0.20219054818153 -0.37478691339493
vn -0.90471810102463 0.20269434154034 0.37470015883446
vn -0.37488302588463 0.20100431144238 0.90501934289932
vn 0.37510117888451 0.19819141924381 0.90554916858673
vn 0.9059767127037 0.19587673246861 0.37528455257416
vn 0.90608215332031 0.19537922739983 -0.37528938055038
vn 0.37516397237778 0.19706656038761 -0.90576863288879
vn -0.36438724398613 0.30557277798653 -0.87968587875366
vn -0.87933987379074 0.30679079890251 -0.36419883370399
vn -0.87927508354187 0.30697751045227 0.364197909832
vn -0.36428636312485 0.30619183182716 0.87951236963272
vn 0.36451280117035 0.30469819903374 0.87993717193604
vn 0.8803094625473 0.30350971221924 0.36460542678833
vn 0.88036185503006 0.30328750610352 -0.36466374993324
vn 0.3645723760128 0.30419573187828 -0.88008630275726
vn 0.29419380426407 0.63954496383667 -0.71023392677307
vn 0.71090286970139 0.63871252536774 -0.29438653588295
vn 0.71066689491272 0.63897836208344 0.2943794131279
vn 0.2940080165863 0.64011120796204 0.70980060100555
vn -0.29360404610634 0.64139741659164 0.70880603790283
vn -0.70820587873459 0.64220410585403 0.29328885674477
vn -0.70832741260529 0.64201354980469 -0.29341241717339
vn -0.29379141330719 0.64089715480804 -0.70918083190918
# 92 normals

vt 0.65780597925186 0.83759301900864 0
vt 0.6572539806366 0.83632999658585 0
vt 0.65644997358322 0.83712601661682 0
vt 0.6557599902153 0.52133101224899 0
vt 0.65566402673721 0.52295804023743 0
vt 0.65712201595306 0.52367901802063 0
vt 0.65834999084473 0.52272599935532 0
vt 0.65557301044464 0.52490901947021 0
vt 0.65557301044464 0.52500599622726 0
vt 0.65564298629761 0.52493500709534 0
vt 0.65667599439621 0.51248401403427 0
vt 0.66327697038651 0.5183470249176 0
vt 0.6555780172348 0.52479100227356 0
vt 0.65573298931122 0.52485299110413 0
vt 0.64588099718094 0.514584004879 0
vt 0.65306401252747 0.52255201339722 0
vt 0.65543097257614 0.52485799789429 0
vt 0.65550899505615 0.52493900060654 0
vt 0.65838402509689 0.83632999658585 0
vt 0.6541560292244 0.5236040353775 0
vt 0.63886302709579 0.52517902851105 0
vt 0.65228998661041 0.525121986866 0
vt 0.65535998344421 0.5250009894371 0
vt 0.65547698736191 0.52500200271606 0
vt 0.65644097328186 0.83826303482056 0
vt 0.65724402666092 0.83907604217529 0
vt 0.65364700555801 0.52507001161575 0
vt 0.64328700304031 0.53834503889084 0
vt 0.65341901779175 0.52723199129105 0
vt 0.65541398525238 0.52515703439713 0
vt 0.65549999475479 0.52507203817368 0
vt 0.65838998556137 0.83907800912857 0
vt 0.65919601917267 0.8382660150528 0
vt 0.65427702665329 0.5263620018959 0
vt 0.65531402826309 0.53944802284241 0
vt 0.65547001361847 0.52806198596954 0
vt 0.65556699037552 0.52523100376129 0
vt 0.65556800365448 0.52510702610016 0
vt 0.65918898582458 0.83712697029114 0
vt 0.65555101633072 0.52687799930573 0
vt 0.66351801156998 0.5339429974556 0
vt 0.65761202573776 0.52746498584747 0
vt 0.65573400259018 0.52517598867416 0
vt 0.65564501285553 0.52508199214935 0
vt 0.65684998035431 0.52644902467728 0
vt 0.66625100374222 0.52583903074265 0
vt 0.65896397829056 0.52540802955627 0
vt 0.65579998493195 0.52501201629639 0
vt 0.65567499399185 0.52500599622726 0
vt 0.65755701065063 0.52518099546432 0
vt 0.65258598327637 0.96277302503586 0
vt 0.6538400053978 0.97442299127579 0
vt 0.65406799316406 0.97394198179245 0
vt 0.65258598327637 0.95779699087143 0
vt 0.65333199501038 0.96159499883652 0
vt 0.65451598167419 0.97685497999191 0
vt 0.65049797296524 0.52791202068329 0
vt 0.65281897783279 0.5248110294342 0
vt 0.6564319729805 0.52373999357224 0
vt 0.65647101402283 0.51877003908157 0
vt 0.65056401491165 0.51487499475479 0
vt 0.64293998479843 0.51529103517532 0
vt 0.64293998479843 0.5222139954567 0
vt 0.64585202932358 0.52684503793716 0
vt 0.65652298927307 0.52414798736572 0
vt 0.65684098005295 0.52508002519608 0
vt 0.65642100572586 0.52593803405762 0
vt 0.6555449962616 0.52622699737549 0
vt 0.65471297502518 0.52586299180984 0
vt 0.65434801578522 0.52501100301743 0
vt 0.6547110080719 0.52413499355316 0
vt 0.65560901165009 0.52373600006104 0
vt 0.65623599290848 0.52439999580383 0
vt 0.65601998567581 0.52459698915482 0
vt 0.65618097782135 0.52503401041031 0
vt 0.6564689874649 0.52505099773407 0
vt 0.65598499774933 0.52544802427292 0
vt 0.65617698431015 0.5256609916687 0
vt 0.65556198358536 0.52560299634933 0
vt 0.65555399656296 0.52587801218033 0
vt 0.65515297651291 0.52542001008987 0
vt 0.65495800971985 0.52561300992966 0
vt 0.65498602390289 0.52500301599503 0
vt 0.6547070145607 0.52500402927399 0
vt 0.65516299009323 0.52458304166794 0
vt 0.65496599674225 0.52438598871231 0
vt 0.65559202432632 0.52440899610519 0
vt 0.6555979847908 0.52411699295044 0
vt 0.65583997964859 0.524758040905 0
vt 0.65594297647476 0.52502000331879 0
vt 0.65583097934723 0.52528101205826 0
vt 0.65556597709656 0.52537202835083 0
vt 0.65531599521637 0.5252560377121 0
vt 0.6552209854126 0.52500200271606 0
vt 0.65533298254013 0.52475702762604 0
vt 0.65558302402496 0.52465003728867 0
# 96 texture coordinates

o Pear_Sphere.002
usemtl VegetationMaterials
f 5/3/1 48/2/1 31/1/1
f 1/7/2 33/6/2 3/5/2 4/4/2
f 32/10/3 18/9/3 2/8/3
f 34/12/4 1/7/4 4/4/4 41/11/4
f 80/14/5 32/10/5 2/8/5 73/13/5
f 41/11/6 4/4/6 8/16/6 42/15/6
f 73/13/7 2/8/7 6/18/7 74/17/7
f 48/2/8 30/19/8 31/1/8
f 4/4/9 3/5/9 7/20/9 8/16/9
f 2/8/10 18/9/10 6/18/10
f 42/15/11 8/16/11 12/22/11 43/21/11
f 74/17/12 6/18/12 10/24/12 75/23/12
f 13/26/13 9/25/13 31/1/13
f 8/16/14 7/20/14 11/27/14 12/22/14
f 6/18/15 18/9/15 10/24/15
f 43/21/16 12/22/16 16/29/16 44/28/16
f 75/23/17 10/24/17 14/31/17 76/30/17
f 22/33/18 17/32/18 31/1/18
f 12/22/19 11/27/19 15/34/19 16/29/19
f 10/24/20 18/9/20 14/31/20
f 44/28/21 16/29/21 21/36/21 45/35/21
f 76/30/22 14/31/22 19/38/22 77/37/22
f 30/19/23 26/39/23 31/1/23
f 16/29/24 15/34/24 20/40/24 21/36/24
f 14/31/25 18/9/25 19/38/25
f 45/35/26 21/36/26 25/42/26 46/41/26
f 77/37/27 19/38/27 23/44/27 78/43/27
f 9/25/28 5/3/28 31/1/28
f 21/36/29 20/40/29 24/45/29 25/42/29
f 19/38/30 18/9/30 23/44/30
f 46/41/31 25/42/31 29/47/31 47/46/31
f 78/43/32 23/44/32 27/49/32 79/48/32
f 26/39/33 22/33/33 31/1/33
f 25/42/34 24/45/34 28/50/34 29/47/34
f 23/44/35 18/9/35 27/49/35
f 47/46/36 29/47/36 1/7/36 34/12/36
f 79/48/37 27/49/37 32/10/37 80/14/37
f 17/32/38 13/26/38 31/1/38
f 29/47/39 28/50/39 33/6/39 1/7/39
f 27/49/40 18/9/40 32/10/40
f 35/54/41 36/53/41 38/52/41 37/51/41
f 37/51/42 38/52/42 40/56/42 39/55/42
f 38/52/43 36/53/43 40/56/43
f 39/55/44 40/56/44 36/53/44 35/54/44
f 41/11/45 42/15/45 26/58/45 30/57/45
f 43/21/46 44/28/46 17/60/46 22/59/46
f 45/35/47 46/41/47 9/62/47 13/61/47
f 47/46/48 34/12/48 48/64/48 5/63/48
f 42/15/49 43/21/49 22/59/49 26/58/49
f 44/28/50 45/35/50 13/61/50 17/60/50
f 46/41/51 47/46/51 5/63/51 9/62/51
f 34/12/52 41/11/52 30/57/52 48/64/52
f 28/50/53 55/66/53 56/65/53 33/6/53
f 24/45/54 54/67/54 55/66/54 28/50/54
f 20/40/55 53/68/55 54/67/55 24/45/55
f 15/34/56 52/69/56 53/68/56 20/40/56
f 11/27/57 51/70/57 52/69/57 15/34/57
f 7/20/58 50/71/58 51/70/58 11/27/58
f 3/5/59 49/72/59 50/71/59 7/20/59
f 33/6/60 56/65/60 49/72/60 3/5/60
f 87/76/61 63/75/61 64/74/61 88/73/61
f 86/78/62 62/77/62 63/75/62 87/76/62
f 85/80/63 61/79/63 62/77/63 86/78/63
f 84/82/64 60/81/64 61/79/64 85/80/64
f 83/84/65 59/83/65 60/81/65 84/82/65
f 82/86/66 58/85/66 59/83/66 83/84/66
f 81/88/67 57/87/67 58/85/67 82/86/67
f 88/73/68 64/74/68 57/87/68 81/88/68
f 63/75/69 71/90/69 72/89/69 64/74/69
f 62/77/70 70/91/70 71/90/70 63/75/70
f 61/79/71 69/92/71 70/91/71 62/77/71
f 60/81/72 68/93/72 69/92/72 61/79/72
f 59/83/73 67/94/73 68/93/73 60/81/73
f 58/85/74 66/95/74 67/94/74 59/83/74
f 57/87/75 65/96/75 66/95/75 58/85/75
f 64/74/76 72/89/76 65/96/76 57/87/76
f 71/90/77 79/48/77 80/14/77 72/89/77
f 70/91/78 78/43/78 79/48/78 71/90/78
f 69/92/79 77/37/79 78/43/79 70/91/79
f 68/93/80 76/30/80 77/37/80 69/92/80
f 67/94/81 75/23/81 76/30/81 68/93/81
f 66/95/82 74/17/82 75/23/82 67/94/82
f 65/96/83 73/13/83 74/17/83 66/95/83
f 72/89/84 80/14/84 73/13/84 65/96/84
f 56/65/85 88/73/85 81/88/85 49/72/85
f 49/72/86 81/88/86 82/86/86 50/71/86
f 50/71/87 82/86/87 83/84/87 51/70/87
f 51/70/88 83/84/88 84/82/88 52/69/88
f 52/69/89 84/82/89 85/80/89 53/68/89
f 53/68/90 85/80/90 86/78/90 54/67/90
f 54/67/91 86/78/91 87/76/91 55/66/91
f 55/66/92 87/76/92 88/73/92 56/65/92

