# WaveFront *.obj file (generated by CINEMA 4D)

mtllib ./19.mtl

v 0.17790107429028 1.38403224945068 -20.21201133728027
v 0.62113708257675 0.77188670635223 -20.74024391174316
v 0.62113708257675 0.14393132925034 -20.74024391174316
v 0.38388130068779 -0.36409226059914 -20.45749664306641
v 0.27255165576935 1.38403224945068 -20.04805374145508
v 0.95163989067078 0.77188670635223 -20.16779518127441
v 0.95163989067078 0.14393132925034 -20.16779518127441
v 0.58814108371735 -0.36409226059914 -20.10370635986328
v 0.2396824657917 1.38403224945068 -19.86162376403809
v 0.83685129880905 0.77188670635223 -19.51684188842773
v 0.83685129880905 0.14393132925034 -19.51684188842773
v 0.51720523834229 -0.36409226059914 -19.70138931274414
v 0.0946596339345 1.38403224945068 -19.73993492126465
v 0.33050283789635 0.77188670635223 -19.09195899963379
v 0.33050283789635 0.14393132925034 -19.09195899963379
v 0.20425979793072 -0.36409226059914 -19.43879699707031
v 0 -0.55813819169998 -20
v -0.0946596339345 1.38403224945068 -19.73993492126465
v -0.33050283789635 0.77188670635223 -19.09195899963379
v -0.33050283789635 0.14393132925034 -19.09195899963379
v -0.20425979793072 -0.36409226059914 -19.43879699707031
v 0 1.42878139019012 -20
v -0.2396824657917 1.38403224945068 -19.86162376403809
v -0.83685129880905 0.77188670635223 -19.51684188842773
v -0.83685129880905 0.14393132925034 -19.51684188842773
v -0.51720523834229 -0.36409226059914 -19.70138931274414
v -0.27255165576935 1.38403224945068 -20.04805374145508
v -0.95163989067078 0.77188670635223 -20.16779518127441
v -0.95163989067078 0.14393132925034 -20.16779518127441
v -0.58814108371735 -0.36409226059914 -20.10370635986328
v -0.17790107429028 1.38403224945068 -20.21201133728027
v -0.62113708257675 0.77188670635223 -20.74024391174316
v -0.62113708257675 0.14393132925034 -20.74024391174316
v -0.38388130068779 -0.36409226059914 -20.45749664306641
v 0 1.38403224945068 -20.27676200866699
v 0 0.77188670635223 -20.96631813049316
v 0 0.14393132925034 -20.96631813049316
v 0 -0.36409226059914 -20.59721374511719
v 0.42026376724243 1.22861444950104 -20.50085258483887
v 0.64388287067413 1.22861444950104 -20.11353874206543
v 0.56622833013535 1.22861444950104 -19.67309188842773
v 0.22361911833286 1.22861444950104 -19.3856086730957
v -0.22361911833286 1.22861444950104 -19.3856086730957
v -0.56622833013535 1.22861444950104 -19.67309188842773
v -0.64388287067413 1.22861444950104 -20.11352920532227
v -0.42026376724243 1.22861444950104 -20.50085258483887
v 0 1.22861444950104 -20.65381622314453
# 47 vertices

vn 0.11178433150053 -0.94508862495422 -0.30710223317146
vn 0.34197640419006 0 -0.93970853090286
vn 0.05800073593855 0.98551249504089 -0.15937702357769
vn 0.28247448801994 -0.56379270553589 -0.77610951662064
vn 0.13737824559212 0.91577172279358 -0.37747770547867
vn 0.28297373652458 -0.94511032104492 -0.16337786614895
vn 0.86601907014847 0 -0.50001102685928
vn 0.14687716960907 0.98551458120346 -0.08478251099586
vn 0.71524947881699 -0.56383675336838 -0.41292402148247
vn 0.34788748621941 0.91578286886215 -0.20078845322132
vn 0.3217878639698 -0.94511318206787 0.05668866634369
vn 0.98481720685959 0 0.17359457910061
vn 0.16700315475464 0.98551863431931 0.02937555685639
vn 0.81335270404816 -0.56381869316101 0.14340783655643
vn 0.39557492733002 0.91577875614166 0.06978344172239
vn 0.21009561419487 -0.94510209560394 0.25028344988823
vn 0.64282411336899 0 0.76601380109787
vn 0.10900224745274 0.98552030324936 0.12987768650055
vn 0.53088271617889 -0.56378942728043 0.63269662857056
vn 0.25818908214569 0.915786921978 0.30768939852715
vn 0 -0.94509935379028 0.32678318023682
vn 0 0 1
vn 0 0.98551362752914 0.16959610581398
vn 0 -0.56378960609436 0.82591843605042
vn 0 0.91577249765396 0.40169733762741
vn -0.21009561419487 -0.94510209560394 0.25028344988823
vn -0.64282411336899 0 0.76601380109787
vn -0.10900224745274 0.98552030324936 0.12987768650055
vn -0.53088271617889 -0.56378942728043 0.63269662857056
vn -0.25818908214569 0.915786921978 0.30768939852715
vn -0.3217878639698 -0.94511318206787 0.05668866634369
vn -0.98481720685959 0 0.17359457910061
vn -0.16700315475464 0.98551863431931 0.02937555685639
vn -0.81335270404816 -0.56381869316101 0.14340783655643
vn -0.39557492733002 0.91577875614166 0.06978344172239
vn -0.28297373652458 -0.94511032104492 -0.16337786614895
vn -0.86601907014847 0 -0.50001102685928
vn -0.14687716960907 0.98551458120346 -0.08478251099586
vn -0.71524947881699 -0.56383675336838 -0.41292402148247
vn -0.34788748621941 0.91578286886215 -0.20078845322132
vn -0.11178433150053 -0.94508862495422 -0.30710223317146
vn -0.34197640419006 0 -0.93970853090286
vn -0.05800073593855 0.98551249504089 -0.15937702357769
vn -0.28247448801994 -0.56379270553589 -0.77610951662064
vn -0.13737824559212 0.91577172279358 -0.37747770547867
vn -0.28769463300705 0.54079467058182 -0.7904257774353
vn -0.72848695516586 0.5407634973526 -0.42057299613953
vn -0.82837796211243 0.54078316688538 0.14609427750111
vn -0.54067277908325 0.54076653718948 0.64439469575882
vn 0 0.54082077741623 0.84113788604736
vn 0.54067277908325 0.54076653718948 0.64439469575882
vn 0.82837796211243 0.54078316688538 0.14609427750111
vn 0.72848695516586 0.5407634973526 -0.42057299613953
vn 0.28769463300705 0.54079467058182 -0.7904257774353
# 54 normals

vt 0.65533602237701 0.20658206939697 0
vt 0.65541702508926 0.20645606517792 0
vt 0.65522801876068 0.20540702342987 0
vt 0.65545201301575 0.20719599723816 0
vt 0.65567702054977 0.20799803733826 0
vt 0.65608102083206 0.20743501186371 0
vt 0.65564298629761 0.20692300796509 0
vt 0.65532201528549 0.8417409658432 0
vt 0.65415501594543 0.83511900901794 0
vt 0.65079301595688 0.84094202518463 0
vt 0.65669000148773 0.20985400676727 0
vt 0.66754698753357 0.20967102050781 0
vt 0.66493302583694 0.20184707641602 0
vt 0.65761601924896 0.20819902420044 0
vt 0.6552010178566 0.20663499832153 0
vt 0.65514397621155 0.20729398727417 0
vt 0.65501499176025 0.20817899703979 0
vt 0.65930497646332 0.83944100141525 0
vt 0.65478098392487 0.21055603027344 0
vt 0.66455000638962 0.21867108345032 0
vt 0.65508097410202 0.20659303665161 0
vt 0.65488600730896 0.2071750164032 0
vt 0.65447902679443 0.20787501335144 0
vt 0.66087800264359 0.83511900901794 0
vt 0.65297198295593 0.20965301990509 0
vt 0.65522801876068 0.22478806972504 0
vt 0.65503299236298 0.2064790725708 0
vt 0.65480697154999 0.20691299438477 0
vt 0.65439999103546 0.20731401443481 0
vt 0.65930497646332 0.8307980298996 0
vt 0.65295398235321 0.20767402648926 0
vt 0.6459059715271 0.21867108345032 0
vt 0.65495097637177 0.2024530172348 0
vt 0.65487498044968 0.20270502567291 0
vt 0.65522801876068 0.20076501369476 0
vt 0.6549100279808 0.20660698413849 0
vt 0.65461200475693 0.20670604705811 0
vt 0.65532201528549 0.828498005867 0
vt 0.65507501363754 0.20634007453918 0
vt 0.65364897251129 0.20624506473541 0
vt 0.64290899038315 0.20967102050781 0
vt 0.65514999628067 0.20227706432343 0
vt 0.65514999628067 0.20641207695007 0
vt 0.65508902072906 0.20634603500366 0
vt 0.65079301595688 0.82929700613022 0
vt 0.65508598089218 0.2025830745697 0
vt 0.65465301275253 0.20293605327606 0
vt 0.65483397245407 0.20547604560852 0
vt 0.64552199840546 0.20184707641602 0
vt 0.65538597106934 0.20226204395294 0
vt 0.65543001890182 0.20641398429871 0
vt 0.65564900636673 0.20637702941895 0
vt 0.64783698320389 0.83281999826431 0
vt 0.6555939912796 0.20258700847626 0
vt 0.65622001886368 0.20554804801941 0
vt 0.65161401033401 0.1974949836731 0
vt 0.65555399656296 0.20241498947144 0
vt 0.65562897920609 0.20661306381226 0
vt 0.65604901313782 0.20679497718811 0
vt 0.64783698320389 0.83741903305054 0
vt 0.65595299005508 0.20294797420502 0
vt 0.65733498334885 0.20653700828552 0
vt 0.65884202718735 0.1974949836731 0
vt 0.6554080247879 0.20631897449493 0
# 64 texture coordinates

o Orange_Sphere.006
usemtl VegetationMaterials
f 17/3/1 38/2/1 4/1/1
f 37/7/2 36/6/2 2/5/2 3/4/2
f 35/10/3 22/9/3 1/8/3
f 38/2/4 37/7/4 3/4/4 4/1/4
f 47/14/5 35/13/5 1/12/5 39/11/5
f 17/3/6 4/1/6 8/15/6
f 3/4/7 2/5/7 6/17/7 7/16/7
f 1/8/8 22/9/8 5/18/8
f 4/1/9 3/4/9 7/16/9 8/15/9
f 39/11/10 1/12/10 5/20/10 40/19/10
f 17/3/11 8/15/11 12/21/11
f 7/16/12 6/17/12 10/23/12 11/22/12
f 5/18/13 22/9/13 9/24/13
f 8/15/14 7/16/14 11/22/14 12/21/14
f 40/19/15 5/20/15 9/26/15 41/25/15
f 17/3/16 12/21/16 16/27/16
f 11/22/17 10/23/17 14/29/17 15/28/17
f 9/24/18 22/9/18 13/30/18
f 12/21/19 11/22/19 15/28/19 16/27/19
f 41/25/20 9/26/20 13/32/20 42/31/20
f 17/35/21 16/34/21 21/33/21
f 15/28/22 14/29/22 19/37/22 20/36/22
f 13/30/23 22/9/23 18/38/23
f 16/27/24 15/28/24 20/36/24 21/39/24
f 42/31/25 13/32/25 18/41/25 43/40/25
f 17/35/26 21/33/26 26/42/26
f 20/36/27 19/37/27 24/44/27 25/43/27
f 18/38/28 22/9/28 23/45/28
f 21/33/29 20/47/29 25/46/29 26/42/29
f 43/40/30 18/41/30 23/49/30 44/48/30
f 17/35/31 26/42/31 30/50/31
f 25/43/32 24/44/32 28/52/32 29/51/32
f 23/45/33 22/9/33 27/53/33
f 26/42/34 25/46/34 29/54/34 30/50/34
f 44/48/35 23/49/35 27/56/35 45/55/35
f 17/35/36 30/50/36 34/57/36
f 29/51/37 28/52/37 32/59/37 33/58/37
f 27/53/38 22/9/38 31/60/38
f 30/50/39 29/54/39 33/61/39 34/57/39
f 45/55/40 27/56/40 31/63/40 46/62/40
f 17/3/41 34/64/41 38/2/41
f 33/58/42 32/59/42 36/6/42 37/7/42
f 31/60/43 22/9/43 35/10/43
f 34/64/44 33/58/44 37/7/44 38/2/44
f 46/62/45 31/63/45 35/13/45 47/14/45
f 32/59/46 46/62/46 47/14/46 36/6/46
f 28/52/47 45/55/47 46/62/47 32/59/47
f 24/44/48 44/48/48 45/55/48 28/52/48
f 19/37/49 43/40/49 44/48/49 24/44/49
f 14/29/50 42/31/50 43/40/50 19/37/50
f 10/23/51 41/25/51 42/31/51 14/29/51
f 6/17/52 40/19/52 41/25/52 10/23/52
f 2/5/53 39/11/53 40/19/53 6/17/53
f 36/6/54 47/14/54 39/11/54 2/5/54

