# WaveFront *.obj file (generated by CINEMA 4D)

mtllib ./21.mtl

v 30.1035327911377 -0.52463239431381 10.12339115142822
v 30.52918434143066 0.33499187231064 10.63066291809082
v 30.33333778381348 1.66989731788635 10.39725494384766
v 30.11395645141602 2.02790880203247 10.13580513000488
v 30.15862274169922 -0.52463239431381 10.02797031402588
v 30.81076431274414 0.33499187231064 10.14295864105225
v 30.51070404052734 1.66989731788635 10.09005069732666
v 30.17458724975586 2.02790880203247 10.03078651428223
v 30.13949012756348 -0.52463239431381 9.91946601867676
v 30.71297073364258 0.33499187231064 9.58836555480957
v 30.44910430908203 1.66989731788635 9.74071407318115
v 30.15353393554688 2.02790880203247 9.91136169433594
v 30.05508995056152 -0.52463239431381 9.8486385345459
v 30.28157043457031 0.33499187231064 9.22637844085693
v 30.17736625671387 1.66989731788635 9.51269435882568
v 30.06063079833984 2.02790880203247 9.83340835571289
v 30 1.96340191364288 10
v 29.94491004943848 -0.52463239431381 9.8486385345459
v 29.71842956542969 0.33499187231064 9.22637844085693
v 29.82263374328613 1.66989731788635 9.51269435882568
v 29.93936920166016 2.02790880203247 9.83340835571289
v 30 -0.63178777694702 10
v 29.86050987243652 -0.52463239431381 9.91946601867676
v 29.28702926635742 0.33499187231064 9.58836555480957
v 29.55089569091797 1.66989731788635 9.74071407318115
v 29.84646606445312 2.02790880203247 9.91136169433594
v 29.84137725830078 -0.52463239431381 10.02797031402588
v 29.18923568725586 0.33499187231064 10.14295864105225
v 29.48929595947266 1.66989731788635 10.09005069732666
v 29.82541275024414 2.02790880203247 10.03078651428223
v 29.8964672088623 -0.52463239431381 10.12339115142822
v 29.47081565856934 0.33499187231064 10.63066291809082
v 29.66666221618652 1.66989731788635 10.39725494384766
v 29.88604354858398 2.02790880203247 10.13580513000488
v 30 -0.52463239431381 10.16107749938965
v 30 0.33499187231064 10.82326889038086
v 30 1.66989731788635 10.51858139038086
v 30 2.02790880203247 10.17728519439697
v 30.3365421295166 -0.25780344009399 10.4010763168335
v 30.51561164855957 -0.25780344009399 10.09091949462891
v 30.45342254638672 -0.25780344009399 9.73821449279785
v 30.17906951904297 -0.25780344009399 9.50800323486328
v 29.82093048095703 -0.25780344009399 9.50800323486328
v 29.54657745361328 -0.25780344009399 9.73821449279785
v 29.48438835144043 -0.25780344009399 10.09091949462891
v 29.6634578704834 -0.25780344009399 10.4010763168335
v 30 -0.25780344009399 10.5235710144043
v 30.1407299041748 -0.42013010382652 10.16771411895752
v 30.21561431884766 -0.42013010382652 10.03802108764648
v 30.18960952758789 -0.42013010382652 9.89052677154541
v 30.07488441467285 -0.42013010382652 9.79426383972168
v 29.92511558532715 -0.42013010382652 9.79426383972168
v 29.81039047241211 -0.42013010382652 9.89052677154541
v 29.78438568115234 -0.42013010382652 10.03802108764648
v 29.8592700958252 -0.42013010382652 10.16771411895752
v 30 -0.42013010382652 10.21893787384033
v 30.17610740661621 1.86330938339233 10.20987415313721
v 30.26980781555176 1.86330938339233 10.04757404327393
v 30.23726463317871 1.86330938339233 9.86301803588867
v 30.09370040893555 1.86330938339233 9.74255180358887
v 29.90629959106445 1.86330938339233 9.74255180358887
v 29.76273536682129 1.86330938339233 9.86301803588867
v 29.73019218444824 1.86330938339233 10.04757404327393
v 29.82389259338379 1.86330938339233 10.20987415313721
v 30 1.86330938339233 10.27397346496582
v 30.53819465637207 1.12674987316132 10.64139270782471
v 30.82455444335938 1.12674987316132 10.14539432525635
v 30.72510528564453 1.12674987316132 9.58136653900146
v 30.28636932373047 1.12674987316132 9.21322250366211
v 29.71363067626953 1.12674987316132 9.21322250366211
v 29.27489471435547 1.12674987316132 9.58136653900146
v 29.17544555664062 1.12674987316132 10.14539432525635
v 29.46180534362793 1.12674987316132 10.64139270782471
v 30 1.12674987316132 10.83727645874023
v 30.5484619140625 0.7308709025383 10.65363502502441
v 30.84030151367188 0.7308709025383 10.14816474914551
v 30.73895072937012 0.7308709025383 9.57337093353271
v 30.29183006286621 0.7308709025383 9.19819068908691
v 29.70816993713379 0.7308709025383 9.19819068908691
v 29.26104927062988 0.7308709025383 9.57337093353271
v 29.15969848632812 0.7308709025383 10.14816474914551
v 29.4515380859375 0.7308709025383 10.65363502502441
v 30 0.7308709025383 10.85325908660889
v 30.44934844970703 0.03858970105648 10.53551387786865
v 30.68844223022461 0.03858970105648 10.12138938903809
v 30.60540008544922 0.03858970105648 9.65047264099121
v 30.23909378051758 0.03858970105648 9.34309577941895
v 29.76090621948242 0.03858970105648 9.34309577941895
v 29.39459991455078 0.03858970105648 9.65047264099121
v 29.31155776977539 0.03858970105648 10.12138938903809
v 29.55065155029297 0.03858970105648 10.53551387786865
v 30 0.03858970105648 10.69905376434326
v 30.46250534057617 1.41517472267151 10.55119705200195
v 30.7086067199707 1.41517472267151 10.12494850158691
v 30.62313842773438 1.41517472267151 9.64023208618164
v 30.24609375 1.41517472267151 9.32385444641113
v 29.75390625 1.41517472267151 9.32385444641113
v 29.37686157226562 1.41517472267151 9.64023208618164
v 29.2913932800293 1.41517472267151 10.12494850158691
v 29.53749465942383 1.41517472267151 10.55119705200195
v 30 1.41517472267151 10.71953678131104
# 101 vertices

vn 0.22019478678703 0.76518160104752 0.60498875379562
vn 0.30341106653214 -0.46150732040405 0.83363825082779
vn -0.12350492179394 0.93253719806671 -0.33929479122162
vn 0.34119671583176 -0.07100191712379 0.93730652332306
vn 0.19756674766541 -0.81617379188538 0.54298043251038
vn -0.31269246339798 0.93254607915878 -0.1805028617382
vn 0.86384916305542 -0.07100044935942 0.49872189760208
vn 0.50039124488831 -0.81618279218674 0.28888440132141
vn 0.55757820606232 0.7651778459549 0.32188409566879
vn 0.76829767227173 -0.46147865056992 0.44357201457024
vn -0.35560566186905 0.93253129720688 0.06268960237503
vn 0.98232585191727 -0.07100097090006 -0.17318984866142
vn 0.56898474693298 -0.81621044874191 -0.10028406977654
vn 0.63406431674957 0.7651584148407 -0.11178155988455
vn 0.87366044521332 -0.4615187048912 -0.15400624275208
vn -0.2321021258831 0.93253362178802 0.27660372853279
vn 0.64120370149612 -0.0709705427289 -0.76408183574677
vn 0.37138044834137 -0.81619948148727 -0.44260025024414
vn 0.41388335824013 0.76517164707184 -0.49316617846489
vn 0.57020354270935 -0.46151298284531 -0.67961287498474
vn 0 0.93252569437027 0.3611036837101
vn 0 -0.07096944004297 -0.99747848510742
vn 0 -0.8161798119545 -0.57779794931412
vn 0 0.76520043611526 -0.64379215240479
vn 0 -0.46150621771812 -0.88713699579239
vn 0.2321021258831 0.93253362178802 0.27660372853279
vn -0.64120370149612 -0.0709705427289 -0.76408183574677
vn -0.37138044834137 -0.81619948148727 -0.44260025024414
vn -0.41388335824013 0.76517164707184 -0.49316617846489
vn -0.57020354270935 -0.46151298284531 -0.67961287498474
vn 0.35560566186905 0.93253129720688 0.06268960237503
vn -0.98232585191727 -0.07100097090006 -0.17318984866142
vn -0.56898474693298 -0.81621044874191 -0.10028406977654
vn -0.63406431674957 0.7651584148407 -0.11178155988455
vn -0.87366044521332 -0.4615187048912 -0.15400624275208
vn 0.31269246339798 0.93254607915878 -0.1805028617382
vn -0.86384916305542 -0.07100044935942 0.49872189760208
vn -0.50039124488831 -0.81618279218674 0.28888440132141
vn -0.55757820606232 0.7651778459549 0.32188409566879
vn -0.76829767227173 -0.46147865056992 0.44357201457024
vn 0.12350492179394 0.93253719806671 -0.33929479122162
vn -0.34119671583176 -0.07100191712379 0.93730652332306
vn -0.19756674766541 -0.81617379188538 0.54298043251038
vn -0.22019478678703 0.76518160104752 0.60498875379562
vn -0.30341106653214 -0.46150732040405 0.83363825082779
vn -0.29887923598289 -0.48616310954094 0.82116782665253
vn -0.75679790973663 -0.48619821667671 0.43688464164734
vn -0.86058175563812 -0.48619836568832 -0.15169090032578
vn -0.56170606613159 -0.4862035214901 -0.66939705610275
vn 0 -0.48616823554039 -0.87386524677277
vn 0.56170606613159 -0.4862035214901 -0.66939705610275
vn 0.86058175563812 -0.48619836568832 -0.15169090032578
vn 0.75679790973663 -0.48619821667671 0.43688464164734
vn 0.29887923598289 -0.48616310954094 0.82116782665253
vn -0.16869243979454 -0.86990052461624 0.46348235011101
vn -0.42719173431396 -0.86988365650177 0.24659618735313
vn -0.4857924580574 -0.86986380815506 -0.08568947762251
vn -0.31707102060318 -0.86986708641052 -0.37788516283035
vn 0 -0.86986351013184 -0.49329248070717
vn 0.31707102060318 -0.86986708641052 -0.37788516283035
vn 0.4857924580574 -0.86986380815506 -0.08568947762251
vn 0.42719173431396 -0.86988365650177 0.24659618735313
vn 0.16869243979454 -0.86990052461624 0.46348235011101
vn -0.29941689968109 0.48320466279984 0.82271671295166
vn -0.75824296474457 0.48320290446281 0.43770146369934
vn -0.86221271753311 0.48320165276527 -0.15200445055962
vn -0.56279742717743 0.48317015171051 -0.67067551612854
vn 0 0.48319464921951 -0.87551295757294
vn 0.56279742717743 0.48317015171051 -0.67067551612854
vn 0.86221271753311 0.48320165276527 -0.15200445055962
vn 0.75824296474457 0.48320290446281 0.43770146369934
vn 0.29941689968109 0.48320466279984 0.82271671295166
vn -0.3192894756794 0.3581654727459 0.87736636400223
vn -0.80858016014099 0.35819530487061 0.46679145097733
vn -0.91947084665298 0.35818830132484 -0.16209411621094
vn -0.60010915994644 0.35819670557976 -0.71523714065552
vn 0 0.3581685423851 -0.93365693092346
vn 0.60010915994644 0.35819670557976 -0.71523714065552
vn 0.91947084665298 0.35818830132484 -0.16209411621094
vn 0.80858016014099 0.35819530487061 0.46679145097733
vn 0.3192894756794 0.3581654727459 0.87736636400223
vn -0.34178638458252 0.03787557035685 0.93901413679123
vn -0.86542510986328 0.03787582367659 0.4996046423912
vn -0.98410493135452 0.0378754325211 -0.17350198328495
vn -0.64229732751846 0.03787594661117 -0.76551914215088
vn 0 0.0378750488162 -0.99928247928619
vn 0.64229732751846 0.03787594661117 -0.76551914215088
vn 0.98410493135452 0.0378754325211 -0.17350198328495
vn 0.86542510986328 0.03787582367659 0.4996046423912
vn 0.34178638458252 0.03787557035685 0.93901413679123
vn 0.31820034980774 -0.36642107367516 0.87434780597687
vn 0.80581611394882 -0.36639085412025 0.46520760655403
vn 0.91632544994354 -0.36638015508652 -0.16159602999687
vn 0.5980858206749 -0.36638927459717 -0.71277779340744
vn 0 -0.36638516187668 -0.93046325445175
vn -0.5980858206749 -0.36638927459717 -0.71277779340744
vn -0.91632544994354 -0.36638015508652 -0.16159602999687
vn -0.80581611394882 -0.36639085412025 0.46520760655403
vn -0.31820034980774 -0.36642107367516 0.87434780597687
vn 0.27479168772697 0.59549134969711 0.75490367412567
vn 0.69570344686508 0.59551364183426 0.40169671177864
vn 0.79114109277725 0.59551215171814 -0.13950285315514
vn 0.51639759540558 0.59549480676651 -0.61540186405182
vn 0 0.59552049636841 -0.80334013700485
vn -0.51639759540558 0.59549480676651 -0.61540186405182
vn -0.79114109277725 0.59551215171814 -0.13950285315514
vn -0.69570344686508 0.59551364183426 0.40169671177864
vn -0.27479168772697 0.59549134969711 0.75490367412567
# 108 normals

vt 0.64445900917053 0.14671802520752 0
vt 0.65512299537659 0.15257203578949 0
vt 0.65394097566605 0.15379703044891 0
vt 0.64953601360321 0.14245808124542 0
vt 0.65290397405624 0.15157604217529 0
vt 0.65287798643112 0.15156900882721 0
vt 0.65286701917648 0.15158605575562 0
vt 0.65288197994232 0.15160799026489 0
vt 0.65725302696228 0.956915974617 0
vt 0.65517997741699 0.9553689956665 0
vt 0.65409100055695 0.95898997783661 0
vt 0.65354198217392 0.1518520116806 0
vt 0.65320700407028 0.15169203281403 0
vt 0.65303999185562 0.15189206600189 0
vt 0.65319299697876 0.15222907066345 0
vt 0.65284901857376 0.15156197547913 0
vt 0.65784597396851 0.95943301916122 0
vt 0.65356600284576 0.15133905410767 0
vt 0.65320700407028 0.15143203735352 0
vt 0.65287601947784 0.15154802799225 0
vt 0.64330798387527 0.15324401855469 0
vt 0.65523999929428 0.15087497234344 0
vt 0.65289998054504 0.15153801441193 0
vt 0.65668302774429 0.96174299716949 0
vt 0.65325498580933 0.15093004703522 0
vt 0.65303999185562 0.15123200416565 0
vt 0.65286099910736 0.15153408050537 0
vt 0.64662200212479 0.15898299217224 0
vt 0.65423899888992 0.14949905872345 0
vt 0.65287297964096 0.15151107311249 0
vt 0.65430700778961 0.96276497840881 0
vt 0.65275400876999 0.15081703662872 0
vt 0.65278297662735 0.15118706226349 0
vt 0.6528400182724 0.15153300762177 0
vt 0.65284901857376 0.16124999523163 0
vt 0.65258800983429 0.14908802509308 0
vt 0.65283399820328 0.15150701999664 0
vt 0.65183001756668 0.96201997995377 0
vt 0.65229797363281 0.15105199813843 0
vt 0.65255701541901 0.1513170003891 0
vt 0.65282398462296 0.15154600143433 0
vt 0.65907698869705 0.15898299217224 0
vt 0.65105897188187 0.1498349905014 0
vt 0.65280300378799 0.15153002738953 0
vt 0.65041100978851 0.95985698699951 0
vt 0.65209901332855 0.15152597427368 0
vt 0.65246897935867 0.15156197547913 0
vt 0.65281999111176 0.15156602859497 0
vt 0.6623899936676 0.15324401855469 0
vt 0.65036797523499 0.15139007568359 0
vt 0.65279299020767 0.15156698226929 0
vt 0.65071499347687 0.95728898048401 0
vt 0.65225201845169 0.15201699733734 0
vt 0.65255802869797 0.15180706977844 0
vt 0.65282899141312 0.15158402919769 0
vt 0.66123902797699 0.14671802520752 0
vt 0.65083801746368 0.15302503108978 0
vt 0.65280997753143 0.15160202980042 0
vt 0.65259802341461 0.95551598072052 0
vt 0.65268397331238 0.15229403972626 0
vt 0.65278297662735 0.15193700790405 0
vt 0.6528480052948 0.15159201622009 0
vt 0.65616297721863 0.14245808124542 0
vt 0.65224897861481 0.15397608280182 0
vt 0.65284502506256 0.15161800384521 0
vt 0.65298599004745 0.1517870426178 0
vt 0.65293198823929 0.1516820192337 0
vt 0.65283501148224 0.15170705318451 0
vt 0.65280902385712 0.15182197093964 0
vt 0.65274500846863 0.15166401863098 0
vt 0.65265101194382 0.15173506736755 0
vt 0.65270400047302 0.15157306194305 0
vt 0.65258598327637 0.15156805515289 0
vt 0.65272998809814 0.15147697925568 0
vt 0.65264397859573 0.15139698982239 0
vt 0.65281301736832 0.15142107009888 0
vt 0.65279799699783 0.15130400657654 0
vt 0.65291202068329 0.15143001079559 0
vt 0.65297597646713 0.15133106708527 0
vt 0.65298199653625 0.15150105953217 0
vt 0.65309500694275 0.15146708488464 0
vt 0.65298998355865 0.1516010761261 0
vt 0.65309900045395 0.15164697170258 0
vt 0.65709501504898 0.95073699951172 0
vt 0.65108698606491 0.95073699951172 0
vt 0.64648497104645 0.95459800958633 0
vt 0.64544200897217 0.96051502227783 0
vt 0.6484460234642 0.96571803092957 0
vt 0.65409100055695 0.96777200698853 0
vt 0.65973699092865 0.96571803092957 0
vt 0.66274100542068 0.96051502227783 0
vt 0.6616969704628 0.95459800958633 0
vt 0.65364402532578 0.15318202972412 0
vt 0.65334701538086 0.15256702899933 0
vt 0.65258401632309 0.15265202522278 0
vt 0.65241700410843 0.15331399440765 0
vt 0.65194600820541 0.15222704410553 0
vt 0.65139198303223 0.15262603759766 0
vt 0.65173000097275 0.15148997306824 0
vt 0.65104901790619 0.15144002437592 0
vt 0.6520379781723 0.15078806877136 0
vt 0.65154802799225 0.15031099319458 0
vt 0.65272498130798 0.15044701099396 0
vt 0.65265697240829 0.14976799488068 0
vt 0.65347099304199 0.1506279706955 0
vt 0.65385502576828 0.15006399154663 0
vt 0.65392500162125 0.15124607086182 0
vt 0.65458297729492 0.15106105804443 0
vt 0.65387600660324 0.15201199054718 0
vt 0.65450000762939 0.15229201316833 0
# 110 texture coordinates

o Lemon_Sphere.007
usemtl VegetationMaterials
f 65/4/1 37/3/1 3/2/1 57/1/1
f 56/8/2 35/7/2 1/6/2 48/5/2
f 17/11/3 38/10/3 4/9/3
f 83/15/4 36/14/4 2/13/4 75/12/4
f 35/7/5 22/16/5 1/6/5
f 17/11/6 4/9/6 8/17/6
f 75/12/7 2/13/7 6/19/7 76/18/7
f 1/6/8 22/16/8 5/20/8
f 57/1/9 3/2/9 7/22/9 58/21/9
f 48/5/10 1/6/10 5/20/10 49/23/10
f 17/11/11 8/17/11 12/24/11
f 76/18/12 6/19/12 10/26/12 77/25/12
f 5/20/13 22/16/13 9/27/13
f 58/21/14 7/22/14 11/29/14 59/28/14
f 49/23/15 5/20/15 9/27/15 50/30/15
f 17/11/16 12/24/16 16/31/16
f 77/25/17 10/26/17 14/33/17 78/32/17
f 9/27/18 22/16/18 13/34/18
f 59/28/19 11/29/19 15/36/19 60/35/19
f 50/30/20 9/27/20 13/34/20 51/37/20
f 17/11/21 16/31/21 21/38/21
f 78/32/22 14/33/22 19/40/22 79/39/22
f 13/34/23 22/16/23 18/41/23
f 60/35/24 15/36/24 20/43/24 61/42/24
f 51/37/25 13/34/25 18/41/25 52/44/25
f 17/11/26 21/38/26 26/45/26
f 79/39/27 19/40/27 24/47/27 80/46/27
f 18/41/28 22/16/28 23/48/28
f 61/42/29 20/43/29 25/50/29 62/49/29
f 52/44/30 18/41/30 23/48/30 53/51/30
f 17/11/31 26/45/31 30/52/31
f 80/46/32 24/47/32 28/54/32 81/53/32
f 23/48/33 22/16/33 27/55/33
f 62/49/34 25/50/34 29/57/34 63/56/34
f 53/51/35 23/48/35 27/55/35 54/58/35
f 17/11/36 30/52/36 34/59/36
f 81/53/37 28/54/37 32/61/37 82/60/37
f 27/55/38 22/16/38 31/62/38
f 63/56/39 29/57/39 33/64/39 64/63/39
f 54/58/40 27/55/40 31/62/40 55/65/40
f 17/11/41 34/59/41 38/10/41
f 82/60/42 32/61/42 36/14/42 83/15/42
f 31/62/43 22/16/43 35/7/43
f 64/63/44 33/64/44 37/3/44 65/4/44
f 55/65/45 31/62/45 35/7/45 56/8/45
f 91/69/46 46/68/46 47/67/46 92/66/46
f 90/71/47 45/70/47 46/68/47 91/69/47
f 89/73/48 44/72/48 45/70/48 90/71/48
f 88/75/49 43/74/49 44/72/49 89/73/49
f 87/77/50 42/76/50 43/74/50 88/75/50
f 86/79/51 41/78/51 42/76/51 87/77/51
f 85/81/52 40/80/52 41/78/52 86/79/52
f 84/83/53 39/82/53 40/80/53 85/81/53
f 92/66/54 47/67/54 39/82/54 84/83/54
f 46/68/55 55/65/55 56/8/55 47/67/55
f 45/70/56 54/58/56 55/65/56 46/68/56
f 44/72/57 53/51/57 54/58/57 45/70/57
f 43/74/58 52/44/58 53/51/58 44/72/58
f 42/76/59 51/37/59 52/44/59 43/74/59
f 41/78/60 50/30/60 51/37/60 42/76/60
f 40/80/61 49/23/61 50/30/61 41/78/61
f 39/82/62 48/5/62 49/23/62 40/80/62
f 47/67/63 56/8/63 48/5/63 39/82/63
f 34/59/64 64/85/64 65/84/64 38/10/64
f 30/52/65 63/86/65 64/85/65 34/59/65
f 26/45/66 62/87/66 63/86/66 30/52/66
f 21/38/67 61/88/67 62/87/67 26/45/67
f 16/31/68 60/89/68 61/88/68 21/38/68
f 12/24/69 59/90/69 60/89/69 16/31/69
f 8/17/70 58/91/70 59/90/70 12/24/70
f 4/9/71 57/92/71 58/91/71 8/17/71
f 38/10/72 65/84/72 57/92/72 4/9/72
f 100/96/73 73/95/73 74/94/73 101/93/73
f 99/98/74 72/97/74 73/95/74 100/96/74
f 98/100/75 71/99/75 72/97/75 99/98/75
f 97/102/76 70/101/76 71/99/76 98/100/76
f 96/104/77 69/103/77 70/101/77 97/102/77
f 95/106/78 68/105/78 69/103/78 96/104/78
f 94/108/79 67/107/79 68/105/79 95/106/79
f 93/110/80 66/109/80 67/107/80 94/108/80
f 101/93/81 74/94/81 66/109/81 93/110/81
f 73/95/82 82/60/82 83/15/82 74/94/82
f 72/97/83 81/53/83 82/60/83 73/95/83
f 71/99/84 80/46/84 81/53/84 72/97/84
f 70/101/85 79/39/85 80/46/85 71/99/85
f 69/103/86 78/32/86 79/39/86 70/101/86
f 68/105/87 77/25/87 78/32/87 69/103/87
f 67/107/88 76/18/88 77/25/88 68/105/88
f 66/109/89 75/12/89 76/18/89 67/107/89
f 74/94/90 83/15/90 75/12/90 66/109/90
f 36/14/91 92/66/91 84/83/91 2/13/91
f 2/13/92 84/83/92 85/81/92 6/19/92
f 6/19/93 85/81/93 86/79/93 10/26/93
f 10/26/94 86/79/94 87/77/94 14/33/94
f 14/33/95 87/77/95 88/75/95 19/40/95
f 19/40/96 88/75/96 89/73/96 24/47/96
f 24/47/97 89/73/97 90/71/97 28/54/97
f 28/54/98 90/71/98 91/69/98 32/61/98
f 32/61/99 91/69/99 92/66/99 36/14/99
f 37/3/100 101/93/100 93/110/100 3/2/100
f 3/2/101 93/110/101 94/108/101 7/22/101
f 7/22/102 94/108/102 95/106/102 11/29/102
f 11/29/103 95/106/103 96/104/103 15/36/103
f 15/36/104 96/104/104 97/102/104 20/43/104
f 20/43/105 97/102/105 98/100/105 25/50/105
f 25/50/106 98/100/106 99/98/106 29/57/106
f 29/57/107 99/98/107 100/96/107 33/64/107
f 33/64/108 100/96/108 101/93/108 37/3/108

