# WaveFront *.obj file (generated by CINEMA 4D)

mtllib ./22.mtl

v 20 -0.00100147514604 9.01899528503418
v 20.42182159423828 1.17287218570709 9.57817840576172
v 20.68251037597656 0.6654189825058 9.31748867034912
v 20.69367599487305 -0.00100147514604 9.30632400512695
v 20.39524459838867 -0.50844556093216 9.60475444793701
v 20.59653472900391 1.17287218570709 10
v 20.9652214050293 0.6654189825058 10
v 20.98100471496582 -0.00100147514604 10
v 20.5589656829834 -0.50844556093216 10
v 20.42182159423828 1.17287218570709 10.42182159423828
v 20.68251037597656 0.6654189825058 10.68251132965088
v 20.69367599487305 -0.00100147514604 10.69367599487305
v 20.39524459838867 -0.50844556093216 10.39524555206299
v 20 1.17287218570709 10.59653472900391
v 20 0.6654189825058 10.96522235870361
v 20 -0.00100147514604 10.98100471496582
v 20 -0.50844556093216 10.55896663665771
v 20.12311935424805 1.33228313922882 9.87688064575195
v 19.57817840576172 1.17287218570709 10.42182159423828
v 19.31748962402344 0.6654189825058 10.68251132965088
v 19.30632400512695 -0.00100147514604 10.69367599487305
v 19.60475540161133 -0.50844556093216 10.39524555206299
v 19.40346527099609 1.17287218570709 10
v 19.0347785949707 0.6654189825058 10
v 19.01899528503418 -0.00100147514604 10
v 19.4410343170166 -0.50844556093216 10
v 19.57817840576172 1.17287218570709 9.57817840576172
v 19.31748962402344 0.6654189825058 9.31748867034912
v 19.30632400512695 -0.00100147514604 9.30632400512695
v 19.60475540161133 -0.50844556093216 9.60475444793701
v 20 -0.66309368610382 10
v 20 1.17287218570709 9.40346527099609
v 20 0.6654189825058 9.03477764129639
v 20 -0.50844556093216 9.44103336334229
v 20.17411613464355 1.33228313922882 10
v 20.12311935424805 1.33228313922882 10.12311935424805
v 20 1.33228313922882 10.17411613464355
v 19.87688064575195 1.33228313922882 10.12311935424805
v 19.82588386535645 1.33228313922882 10
v 19.87688064575195 1.33228313922882 9.87688064575195
v 20 1.33228313922882 9.82588386535645
v 20.14205360412598 1.48627936840057 9.85794734954834
v 20.20089149475098 1.48627936840057 10
v 20.14205360412598 1.48627936840057 10.14205265045166
v 20 1.48627936840057 10.20089149475098
v 19.85794639587402 1.48627936840057 10.14205265045166
v 19.79910850524902 1.48627936840057 10
v 19.85794639587402 1.48627936840057 9.85794734954834
v 20 1.48627936840057 9.79910850524902
v 20.10730934143066 1.48627936840057 9.89269065856934
v 20.15176010131836 1.48627936840057 10
v 20.10730934143066 1.48627936840057 10.10730934143066
v 20 1.48627936840057 10.15176010131836
v 19.89269065856934 1.48627936840057 10.10730934143066
v 19.84823989868164 1.48627936840057 10
v 19.89269065856934 1.48627936840057 9.89269065856934
v 20 1.48627936840057 9.84823989868164
v 20.09071159362793 1.31361198425293 9.90928840637207
v 20.1282901763916 1.31361198425293 10
v 20.09071159362793 1.31361198425293 10.09071159362793
v 20 1.31361198425293 10.12828922271729
v 19.90928840637207 1.31361198425293 10.09071159362793
v 19.8717098236084 1.31361198425293 10
v 19.90928840637207 1.31361198425293 9.90928840637207
v 20 1.31361198425293 9.87171077728271
v 20.71689224243164 0.35180351138115 9.28310775756836
v 21.01383781433105 0.35180351138115 10
v 20.71689224243164 0.35180351138115 10.71689224243164
v 20 0.35180351138115 11.01383781433105
v 19.28310775756836 0.35180351138115 10.71689224243164
v 18.98616218566895 0.35180351138115 10
v 19.28310775756836 0.35180351138115 9.28310775756836
v 20 0.35180351138115 8.98616218566895
v 20.58364105224609 0.91914558410645 9.41635894775391
v 20.82539749145508 0.91914558410645 10
v 20.58364105224609 0.91914558410645 10.58364105224609
v 20 0.91914558410645 10.82539653778076
v 19.41635894775391 0.91914558410645 10.58364105224609
v 19.17460250854492 0.91914558410645 10
v 19.41635894775391 0.91914558410645 9.41635894775391
v 20 0.91914558410645 9.17460346221924
v 20.60557174682617 -0.27431371808052 9.39442825317383
v 20.85640907287598 -0.27431371808052 10
v 20.60557174682617 -0.27431371808052 10.60557174682617
v 20 -0.27431371808052 10.85641002655029
v 19.39442825317383 -0.27431371808052 10.60557174682617
v 19.14359092712402 -0.27431371808052 10
v 19.39442825317383 -0.27431371808052 9.39442825317383
v 20 -0.27431371808052 9.14358997344971
# 89 vertices

vn 0.37881851196289 0.14178350567818 -0.91454577445984
vn -0.14468936622143 0.92573058605194 -0.34941071271896
vn 0.35269269347191 -0.38819319009781 -0.85141879320145
vn 0.29400995373726 0.6402091383934 -0.70971149206162
vn 0.10978319495916 -0.95798575878143 -0.26497346162796
vn 0.26497346162796 -0.95798575878143 -0.10978319495916
vn 0.91454577445984 0.14178350567818 -0.37881851196289
vn 0.14468936622143 0.92573058605194 0.34941071271896
vn 0.85141879320145 -0.38819319009781 -0.35269269347191
vn 0.70971149206162 0.6402091383934 -0.29400995373726
vn 0.26497346162796 -0.95798575878143 0.10978319495916
vn 0.91454577445984 0.14178350567818 0.37881851196289
vn 0.14468936622143 0.92573058605194 -0.34941071271896
vn 0.85141879320145 -0.38819319009781 0.35269269347191
vn 0.70971149206162 0.6402091383934 0.29400995373726
vn 0.10978319495916 -0.95798575878143 0.26497346162796
vn 0.37881851196289 0.14178350567818 0.91454577445984
vn 0.34941071271896 0.92573058605194 0.14468936622143
vn 0.35269269347191 -0.38819319009781 0.85141879320145
vn 0.29400995373726 0.6402091383934 0.70971149206162
vn -0.10978319495916 -0.95798575878143 0.26497346162796
vn -0.37881851196289 0.14178350567818 0.91454577445984
vn 0.34941071271896 0.92573058605194 -0.14468936622143
vn -0.35269269347191 -0.38819319009781 0.85141879320145
vn -0.29400995373726 0.6402091383934 0.70971149206162
vn -0.26497346162796 -0.95798575878143 0.10978319495916
vn -0.91454577445984 0.14178350567818 0.37881851196289
vn -0.14468936622143 0.92573058605194 0.34941071271896
vn -0.85141879320145 -0.38819319009781 0.35269269347191
vn -0.70971149206162 0.6402091383934 0.29400995373726
vn -0.26497346162796 -0.95798575878143 -0.10978319495916
vn -0.91454577445984 0.14178350567818 -0.37881851196289
vn -0.34941071271896 0.92573058605194 0.14468936622143
vn -0.85141879320145 -0.38819319009781 -0.35269269347191
vn -0.70971149206162 0.6402091383934 -0.29400995373726
vn -0.10978319495916 -0.95798575878143 -0.26497346162796
vn -0.37881851196289 0.14178350567818 -0.91454577445984
vn -0.34941071271896 0.92573058605194 -0.14468936622143
vn -0.35269269347191 -0.38819319009781 -0.85141879320145
vn -0.29400995373726 0.6402091383934 -0.70971149206162
vn -0.91220724582672 -0.15859717130661 0.37778940796852
vn 0.91220724582672 -0.15859717130661 -0.37778940796852
vn 0.91220724582672 -0.15859717130661 0.37778940796852
vn 0.37778940796852 -0.15859717130661 -0.91220724582672
vn -0.91220724582672 -0.15859717130661 -0.37778940796852
vn 0.37778940796852 -0.15859717130661 0.91220724582672
vn -0.37778940796852 -0.15859717130661 0.91220724582672
vn -0.37778940796852 -0.15859717130661 -0.91220724582672
vn 0 1 0
vn -0.91668152809143 0.12459718436003 0.37969794869423
vn -0.37969794869423 0.12459718436003 -0.91668152809143
vn 0.91668152809143 0.12459718436003 -0.37969794869423
vn 0.37969794869423 0.12459718436003 0.91668152809143
vn -0.91668152809143 0.12459718436003 -0.37969794869423
vn 0.37969794869423 0.12459718436003 -0.91668152809143
vn 0.91668152809143 0.12459718436003 0.37969794869423
vn -0.37969794869423 0.12459718436003 0.91668152809143
vn -0.38128498196602 -0.08568833768368 -0.92047774791718
vn -0.92047774791718 -0.08568833768368 -0.38128498196602
vn -0.92047774791718 -0.08568833768368 0.38128498196602
vn -0.38128498196602 -0.08568833768368 0.92047774791718
vn 0.38128498196602 -0.08568833768368 0.92047774791718
vn 0.92047774791718 -0.08568833768368 0.38128498196602
vn 0.92047774791718 -0.08568833768368 -0.38128498196602
vn 0.38128498196602 -0.08568833768368 -0.92047774791718
vn -0.34100735187531 0.45369729399681 -0.82333028316498
vn -0.82333028316498 0.45369729399681 -0.34100735187531
vn -0.82333028316498 0.45369729399681 0.34100735187531
vn -0.34100735187531 0.45369729399681 0.82333028316498
vn 0.34100735187531 0.45369729399681 0.82333028316498
vn 0.82333028316498 0.45369729399681 0.34100735187531
vn 0.82333028316498 0.45369729399681 -0.34100735187531
vn 0.34100735187531 0.45369729399681 -0.82333028316498
vn -0.24819442629814 -0.76117753982544 -0.5991730093956
vn -0.5991730093956 -0.76117753982544 -0.24819442629814
vn -0.5991730093956 -0.76117753982544 0.24819442629814
vn -0.24819442629814 -0.76117753982544 0.5991730093956
vn 0.24819442629814 -0.76117753982544 0.5991730093956
vn 0.5991730093956 -0.76117753982544 0.24819442629814
vn 0.5991730093956 -0.76117753982544 -0.24819442629814
vn 0.24819442629814 -0.76117753982544 -0.5991730093956
# 81 normals

vt 0.65865099430084 0.34814298152924 0
vt 0.65852099657059 0.34893608093262 0
vt 0.66078901290894 0.34829604625702 0
vt 0.66032099723816 0.34764397144318 0
vt 0.64743399620056 0.34113502502441 0
vt 0.64743399620056 0.35062003135681 0
vt 0.67222201824188 0.34734106063843 0
vt 0.66728001832962 0.35634398460388 0
vt 0.65883100032806 0.34694600105286 0
vt 0.6587809920311 0.34735107421875 0
vt 0.65985298156738 0.34699201583862 0
vt 0.65960198640823 0.34667003154755 0
vt 0.65797001123428 0.35407602787018 0
vt 0.6574199795723 0.35921597480774 0
vt 0.66403502225876 0.3523200750351 0
vt 0.65887999534607 0.34654104709625 0
vt 0.65934997797012 0.34634900093079 0
vt 0.65888398885727 0.34587705135345 0
vt 0.65841197967529 0.34634399414062 0
vt 0.6571170091629 0.34731507301331 0
vt 0.6564649939537 0.34778308868408 0
vt 0.67033302783966 0.35062003135681 0
vt 0.67033302783966 0.34113502502441 0
vt 0.64554500579834 0.3444139957428 0
vt 0.6504870057106 0.33541107177734 0
vt 0.65809100866318 0.34659600257874 0
vt 0.6577690243721 0.34684705734253 0
vt 0.65244102478027 0.35102903842926 0
vt 0.6484169960022 0.35427403450012 0
vt 0.65821999311447 0.34587407112122 0
vt 0.65661799907684 0.34564507007599 0
vt 0.65582501888275 0.34551501274109 0
vt 0.65414100885391 0.33442807197571 0
vt 0.65781497955322 0.34582507610321 0
vt 0.65741002559662 0.3457750082016 0
vt 0.65068501234055 0.34496402740479 0
vt 0.65841698646545 0.34540605545044 0
vt 0.65744602680206 0.34411108493805 0
vt 0.65697801113129 0.34345901012421 0
vt 0.66362601518631 0.33442807197571 0
vt 0.65816497802734 0.34508502483368 0
vt 0.65791398286819 0.3447630405426 0
vt 0.65373200178146 0.33943498134613 0
vt 0.65888702869415 0.34521400928497 0
vt 0.65911602973938 0.34361207485199 0
vt 0.65924602746964 0.34281897544861 0
vt 0.65893602371216 0.34480905532837 0
vt 0.65898597240448 0.34440398216248 0
vt 0.65979701280594 0.33767902851105 0
vt 0.66034698486328 0.33253908157349 0
vt 0.65935498476028 0.3454110622406 0
vt 0.66065001487732 0.34443998336792 0
vt 0.66130197048187 0.34397208690643 0
vt 0.66362601518631 0.3573260307312 0
vt 0.65967601537704 0.34515905380249 0
vt 0.65999799966812 0.3449079990387 0
vt 0.66532599925995 0.34072601795197 0
vt 0.66935002803802 0.3374810218811 0
vt 0.65954697132111 0.34588098526001 0
vt 0.66114902496338 0.34610998630524 0
vt 0.66194200515747 0.34624004364014 0
vt 0.65414100885391 0.3573260307312 0
vt 0.65995198488235 0.34592998027802 0
vt 0.6603569984436 0.34598004817963 0
vt 0.66708201169968 0.34679102897644 0
vt 0.65512800216675 0.96504700183868 0
vt 0.65532898902893 0.96207702159882 0
vt 0.6485909819603 0.95957398414612 0
vt 0.6485909819603 0.9680370092392 0
vt 0.66247898340225 0.96254700422287 0
vt 0.66227900981903 0.96551597118378 0
vt 0.66901701688766 0.96802002191544 0
vt 0.66901701688766 0.9595559835434 0
vt 0.6605229973793 0.9603059887886 0
vt 0.66302800178528 0.95356798171997 0
vt 0.66004800796509 0.96747899055481 0
vt 0.66304498910904 0.9740110039711 0
vt 0.6570839881897 0.96728801727295 0
vt 0.65457999706268 0.97402602434158 0
vt 0.65755999088287 0.96011501550674 0
vt 0.65456300973892 0.95358198881149 0
vt 0.65604501962662 0.96474897861481 0
vt 0.65618902444839 0.96251398324966 0
vt 0.65974700450897 0.96656399965286 0
vt 0.65751999616623 0.96643000841141 0
vt 0.66008800268173 0.96116298437119 0
vt 0.66156297922134 0.96284401416779 0
vt 0.65785998106003 0.96103000640869 0
vt 0.66141897439957 0.96508002281189 0
vt 0.65948802232742 0.96361702680588 0
vt 0.65938198566437 0.96417599916458 0
vt 0.65866899490356 0.96307897567749 0
vt 0.65919899940491 0.9631609916687 0
vt 0.65811997652054 0.96397697925568 0
vt 0.65822499990463 0.96341800689697 0
vt 0.65893799066544 0.96451497077942 0
vt 0.65840899944305 0.96443301439285 0
# 97 texture coordinates

o GarnetFruit_Sphere.003
usemtl VegetationMaterials
f 73/4/1 33/3/1 3/2/1 66/1/1
f 32/8/2 27/7/2 40/6/2 41/5/2
f 89/12/3 1/11/3 4/10/3 82/9/3
f 81/15/4 32/8/4 2/14/4 74/13/4
f 31/18/5 34/17/5 5/16/5
f 31/18/6 5/16/6 9/19/6
f 66/1/7 3/2/7 7/21/7 67/20/7
f 14/25/8 10/24/8 36/23/8 37/22/8
f 82/9/9 4/10/9 8/27/9 83/26/9
f 74/13/10 2/14/10 6/29/10 75/28/10
f 31/18/11 9/19/11 13/30/11
f 67/20/12 7/21/12 11/32/12 68/31/12
f 2/14/13 32/8/13 41/5/13 18/33/13
f 83/26/14 8/27/14 12/35/14 84/34/14
f 75/28/15 6/29/15 10/24/15 76/36/15
f 31/18/16 13/30/16 17/37/16
f 68/31/17 11/32/17 15/39/17 69/38/17
f 10/24/18 6/29/18 35/40/18 36/23/18
f 84/34/19 12/35/19 16/42/19 85/41/19
f 76/36/20 10/24/20 14/25/20 77/43/20
f 31/18/21 17/37/21 22/44/21
f 69/38/22 15/39/22 20/46/22 70/45/22
f 6/29/23 2/14/23 18/33/23 35/40/23
f 85/41/24 16/42/24 21/48/24 86/47/24
f 77/43/25 14/25/25 19/50/25 78/49/25
f 31/18/26 22/44/26 26/51/26
f 70/45/27 20/46/27 24/53/27 71/52/27
f 19/50/28 14/25/28 37/22/28 38/54/28
f 86/47/29 21/48/29 25/56/29 87/55/29
f 78/49/30 19/50/30 23/58/30 79/57/30
f 31/18/31 26/51/31 30/59/31
f 71/52/32 24/53/32 28/61/32 72/60/32
f 23/58/33 19/50/33 38/54/33 39/62/33
f 87/55/34 25/56/34 29/64/34 88/63/34
f 79/57/35 23/58/35 27/7/35 80/65/35
f 31/18/36 30/59/36 34/17/36
f 72/60/37 28/61/37 33/3/37 73/4/37
f 27/7/38 23/58/38 39/62/38 40/6/38
f 88/63/39 29/64/39 1/11/39 89/12/39
f 80/65/40 27/7/40 32/8/40 81/15/40
f 39/69/41 38/68/41 46/67/41 47/66/41
f 35/73/42 18/72/42 42/71/42 43/70/42
f 36/75/43 35/73/43 43/70/43 44/74/43
f 18/72/44 41/77/44 49/76/44 42/71/44
f 40/79/45 39/69/45 47/66/45 48/78/45
f 37/81/46 36/75/46 44/74/46 45/80/46
f 38/68/47 37/81/47 45/80/47 46/67/47
f 41/77/48 40/79/48 48/78/48 49/76/48
f 47/66/49 46/67/49 54/83/49 55/82/49
f 49/76/49 48/78/49 56/85/49 57/84/49
f 44/74/49 43/70/49 51/87/49 52/86/49
f 46/67/49 45/80/49 53/88/49 54/83/49
f 48/78/49 47/66/49 55/82/49 56/85/49
f 42/71/49 49/76/49 57/84/49 50/89/49
f 43/70/49 42/71/49 50/89/49 51/87/49
f 45/80/49 44/74/49 52/86/49 53/88/49
f 51/87/50 50/89/50 58/91/50 59/90/50
f 53/88/51 52/86/51 60/93/51 61/92/51
f 55/82/52 54/83/52 62/95/52 63/94/52
f 57/84/53 56/85/53 64/97/53 65/96/53
f 52/86/54 51/87/54 59/90/54 60/93/54
f 54/83/55 53/88/55 61/92/55 62/95/55
f 56/85/56 55/82/56 63/94/56 64/97/56
f 50/89/57 57/84/57 65/96/57 58/91/57
f 58/91/49 65/96/49 64/97/49 63/94/49
f 62/95/49 61/92/49 60/93/49 59/90/49
f 63/94/49 62/95/49 59/90/49 58/91/49
f 29/64/58 72/60/58 73/4/58 1/11/58
f 25/56/59 71/52/59 72/60/59 29/64/59
f 21/48/60 70/45/60 71/52/60 25/56/60
f 16/42/61 69/38/61 70/45/61 21/48/61
f 12/35/62 68/31/62 69/38/62 16/42/62
f 8/27/63 67/20/63 68/31/63 12/35/63
f 4/10/64 66/1/64 67/20/64 8/27/64
f 1/11/65 73/4/65 66/1/65 4/10/65
f 28/61/66 80/65/66 81/15/66 33/3/66
f 24/53/67 79/57/67 80/65/67 28/61/67
f 20/46/68 78/49/68 79/57/68 24/53/68
f 15/39/69 77/43/69 78/49/69 20/46/69
f 11/32/70 76/36/70 77/43/70 15/39/70
f 7/21/71 75/28/71 76/36/71 11/32/71
f 3/2/72 74/13/72 75/28/72 7/21/72
f 33/3/73 81/15/73 74/13/73 3/2/73
f 30/59/74 88/63/74 89/12/74 34/17/74
f 26/51/75 87/55/75 88/63/75 30/59/75
f 22/44/76 86/47/76 87/55/76 26/51/76
f 17/37/77 85/41/77 86/47/77 22/44/77
f 13/30/78 84/34/78 85/41/78 17/37/78
f 9/19/79 83/26/79 84/34/79 13/30/79
f 5/16/80 82/9/80 83/26/80 9/19/80
f 34/17/81 89/12/81 82/9/81 5/16/81

