# WaveFront *.obj file (generated by CINEMA 4D)

mtllib ./6.mtl

v -10 -0.65460157394409 -9.78519725799561
v -10 -0.63779258728027 -10.56845855712891
v -9.85250473022461 -0.61390662193298 -9.72698497772217
v -9.33238410949707 -0.45358619093895 -10.30495929718018
v -9.816086769104 -0.52246230840683 -9.59617805480957
v -9.16749477386475 -0.03966915607452 -9.71286964416504
v -9.91815280914307 -0.44912940263748 -9.49127864837646
v -9.62950134277344 0.29226136207581 -9.23805809020996
v -10.08184719085693 -0.44912940263748 -9.49127864837646
v -10.37049865722656 0.29226136207581 -9.23805809020996
v -10.183913230896 -0.52246230840683 -9.59617805480957
v -10.83250522613525 -0.03966915607452 -9.71286964416504
v -10.14749526977539 -0.61390662193298 -9.72698497772217
v -10.66761589050293 -0.45358619093895 -10.30495929718018
v -10 -0.73802590370178 -10.35269641876221
v -9.43060207366943 -0.5809218287468 -10.12796592712402
v -9.28997135162354 -0.22790196537971 -9.62298679351807
v -9.6840124130249 0.05519876256585 -9.21802425384521
v -10.3159875869751 0.05519876256585 -9.21802425384521
v -10.71002864837646 -0.22790196537971 -9.62298679351807
v -10.56939792633057 -0.5809218287468 -10.12796592712402
v -10 -0.42336612939835 -10.78384208679199
v -9.28824138641357 -0.22697824239731 -10.50291728973389
v -9.11245918273926 0.21430568397045 -9.87168025970459
v -9.60500812530518 0.56818157434464 -9.36547660827637
v -10.39499187469482 0.56818157434464 -9.36547660827637
v -10.88754081726074 0.21430568397045 -9.87168025970459
v -10.71175861358643 -0.22697824239731 -10.50291728973389
v -10 0.68901515007019 -10.65557289123535
v -9.89896583557129 0.7168904542923 -10.61569786071777
v -9.87401962280273 0.77953082323074 -10.52609348297119
v -9.94393253326416 0.82976138591766 -10.45424175262451
v -10.05606746673584 0.82976138591766 -10.45424175262451
v -10.12598037719727 0.77953082323074 -10.52609348297119
v -10.10103416442871 0.7168904542923 -10.61569786071777
v -10.63070774078369 0.03539526462555 -10.61372947692871
v -10 -0.13863219320774 -10.86266708374023
v -10.35001564025879 0.74000829458237 -9.60581111907959
v -10.78647899627686 0.42642268538475 -10.05438137054443
v -9.21352100372314 0.42642268538475 -10.05438137054443
v -9.64998435974121 0.74000829458237 -9.60581111907959
v -9.36929225921631 0.03539526462555 -10.61372947692871
v -10.42336940765381 0.33630853891373 -10.63837242126465
v -10.23495578765869 0.80928617715836 -9.96179866790771
v -9.47206497192383 0.5987920165062 -10.26290130615234
v -10 0.21948954463005 -10.80547714233398
v -10.52793502807617 0.5987920165062 -10.26290130615234
v -9.76504421234131 0.80928617715836 -9.96179866790771
v -9.57663059234619 0.33630853891373 -10.63837242126465
v -10.04217720031738 0.87030184268951 -10.79240417480469
v -9.92798614501953 0.90625667572021 -10.75339412689209
v -9.89849472045898 0.9778026342392 -10.65342140197754
v -9.97591400146484 1.03022277355194 -10.5668363571167
v -10.10321617126465 1.02454972267151 -10.5599536895752
v -10.18452930450439 0.96500581502914 -10.63789081573486
v -10.15760898590088 0.89684575796127 -10.74196529388428
v -9.91105365753174 1.29009354114532 -10.82516956329346
v -10.00169372558594 1.35003399848938 -10.71918201446533
v -10.15266513824463 1.33996534347534 -10.70705032348633
v -10.25029468536377 1.26748275756836 -10.79791641235352
v -9.85418033599854 2.32052397727966 -11.33443546295166
v -9.9897403717041 2.41791892051697 -11.19511699676514
v -10.20715713500977 2.41791892051697 -11.19511699676514
v -10.34271812438965 2.32052397727966 -11.33443546295166
v -9.93086624145508 4.80722045898438 -12.77727222442627
v -9.98594665527344 4.84679508209229 -12.72066307067871
v -10.07429504394531 4.84679508209229 -12.72066307067871
v -10.12937641143799 4.80722045898438 -12.77727222442627
v -9.6568660736084 1.72097778320312 -11.65308666229248
v -9.52622222900391 1.85588884353638 -11.4515209197998
v -9.93178939819336 1.71432590484619 -11.71410655975342
v -9.42421913146973 2.56509971618652 -12.53502941131592
v -9.3378267288208 2.65431547164917 -12.40173625946045
v -9.60602283477783 2.56070351600647 -12.5753755569458
v -9.33029270172119 3.49467468261719 -13.18481922149658
v -9.30995559692383 3.51566743850708 -13.15344715118408
v -9.37307643890381 3.49363827705383 -13.19431495666504
v -10.24326801300049 1.98696196079254 -11.53672122955322
v -10.15896701812744 2.01908087730408 -11.4965763092041
v -10.31306266784668 2.09722638130188 -11.35408592224121
v -10.36717510223389 2.0504047870636 -11.42308521270752
v -10.47287273406982 3.27718544006348 -12.58246803283691
v -10.3194465637207 3.26307606697083 -12.61085319519043
v -10.41035747528076 3.57881188392639 -12.09354209899902
v -10.54666996002197 3.53281402587891 -12.16891765594482
v -10.46950435638428 5.42387342453003 -14.12422561645508
v -10.41793632507324 5.41912603378296 -14.13376712799072
v -10.44849681854248 5.52525568008423 -13.95987510681152
v -10.49431419372559 5.50979423522949 -13.98521518707275
# 89 vertices

vn 0.38450938463211 -0.83719617128372 -0.38891535997391
vn 0.85667556524277 -0.50325638055801 0.1133134290576
vn 0.67958521842957 -0.09479312598705 0.72744631767273
vn 0 0.08419793844223 0.99644905328751
vn -0.67958521842957 -0.09479312598705 0.72744631767273
vn 0.7699853181839 0.20991052687168 0.60254472494125
vn -0.85667556524277 -0.50325638055801 0.1133134290576
vn -0.38450938463211 -0.83719617128372 -0.38891535997391
vn 0 -0.81958669424057 0.57295513153076
vn -0.21069045364857 -0.96715635061264 0.14219038188457
vn -0.45967209339142 -0.78286308050156 0.41931721568108
vn -0.35559794306755 -0.56749272346497 0.7426318526268
vn 0 -0.47634816169739 0.87925672531128
vn 0.35559794306755 -0.56749272346497 0.7426318526268
vn 0.45967209339142 -0.78286308050156 0.41931721568108
vn 0.21069045364857 -0.96715635061264 0.14219038188457
vn -0.28038573265076 0.29193446040154 -0.91441679000854
vn -0.96148371696472 -0.26141455769539 -0.08492036908865
vn 0 0.41921618580818 0.90788644552231
vn -0.42831444740295 -0.64033478498459 -0.63758772611618
vn 0.96148371696472 -0.26141455769539 -0.08492036908865
vn -0.7699853181839 0.20991052687168 0.60254472494125
vn 0.42831444740295 -0.64033478498459 -0.63758772611618
vn -0.94616448879242 -0.32165440917015 -0.03620978072286
vn -0.48010012507439 0.86623281240463 -0.13836389780045
vn 0.48010012507439 0.86623281240463 -0.13836389780045
vn 0.28038573265076 0.29193446040154 -0.91441679000854
vn -0.61578768491745 0.55493372678757 -0.55933356285095
vn 0 0.99913769960403 0.04152006283402
vn 0.61578768491745 0.55493372678757 -0.55933356285095
vn 0.92550379037857 0.13666179776192 -0.35322263836861
vn 0 0.81349176168442 0.58157640695572
vn -0.92550379037857 0.13666179776192 -0.35322263836861
vn 0.41338196396828 -0.24293413758278 -0.87755244970322
vn 0.73866868019104 0.60605931282043 0.2950604557991
vn -0.73866868019104 0.60605931282043 0.2950604557991
vn -0.41338196396828 -0.24293413758278 -0.87755244970322
vn 0.72279846668243 0.4554850757122 -0.51970732212067
vn 0 0.98157441616058 0.19108036160469
vn -0.72279846668243 0.4554850757122 -0.51970732212067
vn 0.32719346880913 0.14904050529003 -0.93312990665436
vn 0.56749123334885 0.82305014133453 -0.02328506484628
vn -0.56749123334885 0.82305014133453 -0.02328506484628
vn -0.32719346880913 0.14904050529003 -0.93312990665436
vn -0.40010270476341 0.7006054520607 0.59082132577896
vn 0.01359385345131 0.4855463206768 0.87410527467728
vn 0.96727448701859 -0.03799629956484 -0.25087106227875
vn -0.43131729960442 -0.60523039102554 -0.66907513141632
vn -0.750508248806 0.15839993953705 0.64159709215164
vn 0.7861020565033 0.39656469225883 0.4741096496582
vn 0.42416325211525 -0.484988540411 -0.76476901769638
vn -0.98326468467712 -0.03620079159737 0.17854981124401
vn 0.03728183358908 0.42974999547005 0.90217792987823
vn -0.76431971788406 0.23582047224045 0.60017001628876
vn -0.74245607852936 0.18202546238899 0.64469039440155
vn -0.0330010689795 -0.47795748710632 -0.87776279449463
vn 0.79852437973022 0.31231510639191 0.51460480690002
vn 0 -0.50184047222137 -0.86496019363403
vn 0.78568536043167 0.24159872531891 0.56949853897095
vn -0.01718764565885 -0.44879186153412 -0.89347100257874
vn 0.01878158003092 0.41005983948708 0.911865234375
vn 0 0.81958669424057 -0.57295513153076
vn 0 0.53186857700348 0.8468269109726
vn -0.78179514408112 0.3617517054081 0.50787007808685
vn 0.78141856193542 0.33101624250412 0.52897375822067
vn -0.54698169231415 0.69118916988373 0.47230130434036
vn -0.01918814517558 -0.73620575666428 -0.67648565769196
vn 0.73360657691956 -0.59886991977692 -0.32121059298515
vn -0.58127516508102 0.5456041097641 0.60368478298187
vn 0.16400372982025 -0.73387360572815 -0.65919065475464
vn 0.84851467609406 -0.47581055760384 -0.23157539963722
vn 0.11469051986933 0.78957557678223 -0.60284036397934
vn 0.19046975672245 -0.57525157928467 -0.79549157619476
vn 0.877421438694 -0.33119079470634 -0.34705084562302
vn -0.94460612535477 -0.26471039652824 -0.19402998685837
vn -0.35009834170341 -0.56960982084274 -0.74362343549728
vn 0.82536590099335 -0.18494156002998 -0.53344893455505
vn 0.34938871860504 0.58663249015808 0.73060917854309
vn 0.98785185813904 0.11720319092274 0.10203962028027
vn 0.08618794381618 -0.63855147361755 -0.76473766565323
vn 0.94870096445084 0.23415939509869 0.21245194971561
vn -0.66339629888535 0.28486049175262 0.6919247508049
vn -0.00868760794401 0.85155552625656 -0.52419245243073
vn -0.53538769483566 0.57904523611069 0.61487126350403
vn -0.98864263296127 -0.08666943013668 -0.12277679890394
vn -0.19978412985802 -0.57134974002838 -0.79601871967316
# 86 normals

vt 0.96412998437881 0.77392399311066 0
vt 0.96442300081253 0.77389705181122 0
vt 0.96302700042725 0.77552199363708 0
vt 0.96296399831772 0.77545601129532 0
vt 0.96508699655533 0.77275800704956 0
vt 0.96645098924637 0.77145802974701 0
vt 0.96341001987457 0.77419799566269 0
vt 0.96343702077866 0.77388203144073 0
vt 0.96183300018311 0.7759850025177 0
vt 0.96147102117538 0.77595400810242 0
vt 0.96016597747803 0.77744400501251 0
vt 0.95884001255035 0.77877604961395 0
vt 0.9634969830513 0.77376198768616 0
vt 0.96838700771332 0.7695659995079 0
vt 0.96136599779129 0.77652204036713 0
vt 0.96134001016617 0.77683001756668 0
vt 0.97274297475815 0.83863699436188 0
vt 0.97299098968506 0.83844000101089 0
vt 0.97243398427963 0.83856701850891 0
vt 0.96356302499771 0.77607703208923 0
vt 0.96252399682999 0.77682602405548 0
vt 0.96144598722458 0.77669101953506 0
vt 0.96121799945831 0.77490299940109 0
vt 0.96281397342682 0.77361899614334 0
vt 0.96439999341965 0.77400004863739 0
vt 0.96439999341965 0.77509796619415 0
vt 0.9626470208168 0.77511298656464 0
vt 0.9623309969902 0.77537703514099 0
vt 0.96198898553848 0.77637499570847 0
vt 0.96303302049637 0.77553498744965 0
vt 0.96134197711945 0.77698600292206 0
vt 0.95688700675964 0.78064900636673 0
vt 0.96126300096512 0.77592098712921 0
vt 0.96304398775101 0.77553999423981 0
vt 0.96456497907639 0.77389299869537 0
vt 0.95806002616882 0.90368103981018 0
vt 0.95815497636795 0.90387797355652 0
vt 0.95810401439667 0.9037070274353 0
vt 0.95787101984024 0.90347701311111 0
vt 0.96222501993179 0.77552497386932 0
vt 0.96269398927689 0.77562701702118 0
vt 0.96183502674103 0.77558898925781 0
vt 0.96093302965164 0.77672600746155 0
vt 0.96310597658157 0.77507799863815 0
vt 0.96301800012588 0.77464401721954 0
vt 0.96429198980331 0.77343904972076 0
vt 0.96313202381134 0.77430301904678 0
vt 0.96287399530411 0.77476000785828 0
vt 0.96390700340271 0.77449405193329 0
vt 0.96606701612473 0.77172899246216 0
vt 0.96443599462509 0.77418601512909 0
vt 0.96133697032928 0.77569800615311 0
vt 0.96328401565552 0.77383899688721 0
vt 0.96165001392364 0.77687901258469 0
vt 0.95914202928543 0.77842104434967 0
vt 0.9630960226059 0.7755960226059 0
vt 0.95791298151016 0.90375399589539 0
vt 0.95791101455688 0.90375697612762 0
vt 0.95795100927353 0.90378898382187 0
vt 0.96981900930405 0.89993298053741 0
vt 0.96976298093796 0.89988899230957 0
vt 0.96955198049545 0.90018498897552 0
vt 0.9697870016098 0.90003401041031 0
vt 0.95801401138306 0.90367901325226 0
vt 0.95688700675964 0.9038280248642 0
vt 0.95742297172546 0.90409100055695 0
vt 0.95795899629593 0.90371203422546 0
vt 0.95743000507355 0.90347599983215 0
vt 0.95810002088547 0.9038400053978 0
vt 0.95806801319122 0.90394002199173 0
vt 0.96973299980164 0.89977300167084 0
vt 0.96914100646973 0.90018498897552 0
vt 0.96589297056198 0.90313696861267 0
vt 0.96585702896118 0.90335297584534 0
vt 0.969790995121 0.89991301298141 0
vt 0.9697830080986 0.89990299940109 0
vt 0.95805501937866 0.90381801128387 0
vt 0.95807301998138 0.90381902456284 0
vt 0.95807498693466 0.9038280248642 0
vt 0.95805698633194 0.90380102396011 0
vt 0.96977597475052 0.89989501237869 0
vt 0.95805197954178 0.9038200378418 0
vt 0.9580540060997 0.90381699800491 0
vt 0.95806401968002 0.90380901098251 0
vt 0.95791000127792 0.90375500917435 0
vt 0.95791000127792 0.90375602245331 0
vt 0.97130697965622 0.90309000015259 0
vt 0.97111999988556 0.90257596969604 0
vt 0.9658380150795 0.90326702594757 0
vt 0.96579402685165 0.90302401781082 0
vt 0.98391300439835 0.90210998058319 0
vt 0.98451900482178 0.90174698829651 0
vt 0.97125500440598 0.90232402086258 0
vt 0.971126973629 0.90334796905518 0
vt 0.98393297195435 0.90193498134613 0
vt 0.98429900407791 0.90204000473022 0
vt 0.97229701280594 0.83828103542328 0
vt 0.97299098968506 0.83812296390533 0
vt 0.97274297475815 0.83792501688004 0
vt 0.97243398427963 0.83799600601196 0
# 100 texture coordinates

o Onion_Cylinder.016
usemtl VegetationMaterials
f 15/4/1 2/3/1 4/2/1 16/1/1
f 16/1/2 4/2/2 6/6/2 17/5/2
f 17/5/3 6/6/3 8/8/3 18/7/3
f 18/7/4 8/8/4 10/10/4 19/9/4
f 19/9/5 10/10/5 12/12/5 20/11/5
f 8/8/6 6/6/6 24/14/6 25/13/6
f 20/11/7 12/12/7 14/16/7 21/15/7
f 21/15/8 14/16/8 2/3/8 15/4/8
f 11/19/9 7/18/9 9/17/9
f 13/21/10 21/15/10 15/4/10 1/20/10
f 11/22/11 20/11/11 21/15/11 13/21/11
f 9/23/12 19/9/12 20/11/12 11/22/12
f 7/24/13 18/7/13 19/9/13 9/23/13
f 5/25/14 17/5/14 18/7/14 7/24/14
f 3/26/15 16/1/15 17/5/15 5/25/15
f 1/20/16 15/4/16 16/1/16 3/26/16
f 46/30/17 43/29/17 35/28/17 29/27/17
f 14/16/18 12/12/18 27/32/18 28/31/18
f 10/10/19 8/8/19 25/13/19 26/33/19
f 2/3/20 14/16/20 28/31/20 22/34/20
f 6/6/21 4/2/21 23/35/21 24/14/21
f 12/12/22 10/10/22 26/33/22 27/32/22
f 4/2/23 2/3/23 22/34/23 23/35/23
f 35/39/24 34/38/24 55/37/24 56/36/24
f 47/43/25 44/42/25 33/41/25 34/40/25
f 48/47/26 45/46/26 31/45/26 32/44/26
f 49/49/27 46/30/27 29/27/27 30/48/27
f 43/29/28 47/43/28 34/40/28 35/28/28
f 44/42/29 48/47/29 32/44/29 33/41/29
f 45/46/30 49/49/30 30/48/30 31/45/30
f 24/14/31 23/35/31 42/51/31 40/50/31
f 26/33/32 25/13/32 41/53/32 38/52/32
f 28/31/33 27/32/33 39/55/33 36/54/33
f 23/35/34 22/34/34 37/56/34 42/51/34
f 25/13/35 24/14/35 40/50/35 41/53/35
f 27/32/36 26/33/36 38/52/36 39/55/36
f 22/34/37 28/31/37 36/54/37 37/56/37
f 40/50/38 42/51/38 49/49/38 45/46/38
f 38/52/39 41/53/39 48/47/39 44/42/39
f 36/54/40 39/55/40 47/43/40 43/29/40
f 42/51/41 37/56/41 46/30/41 49/49/41
f 41/53/42 40/50/42 45/46/42 48/47/42
f 39/55/43 38/52/43 44/42/43 47/43/43
f 37/56/44 36/54/44 43/29/44 46/30/44
f 56/36/45 51/59/45 70/58/45 71/57/45
f 33/63/46 32/62/46 53/61/46 54/60/46
f 31/66/47 30/65/47 51/59/47 52/64/47
f 29/68/48 35/39/48 56/36/48 50/67/48
f 34/38/49 33/70/49 54/69/49 55/37/49
f 32/62/50 31/72/50 52/71/50 53/61/50
f 30/65/51 29/68/51 50/67/51 51/59/51
f 56/36/52 55/37/52 80/74/52 81/73/52
f 54/60/53 53/61/53 58/76/53 59/75/53
f 60/79/54 59/78/54 63/77/54 64/77/54
f 55/37/55 54/69/55 59/78/55 60/79/55
f 52/64/56 55/37/56 60/79/56 57/80/56
f 53/61/57 52/71/57 57/81/57 58/76/57
f 61/83/58 64/77/58 68/82/58 65/82/58
f 58/84/59 57/80/59 61/83/59 62/83/59
f 57/80/60 60/79/60 64/77/60 61/83/60
f 59/78/61 58/84/61 62/83/61 63/77/61
f 66/82/62 65/82/62 68/82/62 67/82/62
f 63/77/63 62/83/63 66/82/63 67/82/63
f 64/77/64 63/77/64 67/82/64 68/82/64
f 62/83/65 61/83/65 65/82/65 66/82/65
f 71/57/66 70/58/66 73/85/66 74/85/66
f 50/67/67 56/36/67 71/57/67 69/86/67
f 51/59/68 50/67/68 69/86/68 70/58/68
f 74/85/69 73/85/69 76/85/69 77/85/69
f 69/86/70 71/57/70 74/85/70 72/85/70
f 70/58/71 69/86/71 72/85/71 73/85/71
f 76/85/72 75/85/72 77/85/72
f 72/85/73 74/85/73 77/85/73 75/85/73
f 73/85/74 72/85/74 75/85/74 76/85/74
f 78/89/75 81/73/75 85/88/75 82/87/75
f 51/59/76 56/36/76 81/73/76 78/89/76
f 52/64/77 51/59/77 78/89/77 79/90/77
f 55/37/78 52/64/78 79/90/78 80/74/78
f 84/94/79 83/93/79 87/92/79 88/91/79
f 79/90/80 78/89/80 82/87/80 83/93/80
f 80/74/81 79/90/81 83/93/81 84/94/81
f 81/73/82 80/74/82 84/94/82 85/88/82
f 87/92/83 86/96/83 89/95/83 88/91/83
f 85/88/84 84/94/84 88/91/84 89/95/84
f 82/87/85 85/88/85 89/95/85 86/96/85
f 83/93/86 82/87/86 86/96/86 87/92/86
f 1/100/9 3/99/9 5/98/9 13/97/9
f 13/97/9 5/98/9 7/18/9 11/19/9

